<svg xmlns="http://www.w3.org/2000/svg" width="81" height="66" viewBox="0 0 81 66"><g><g><g><g><g><path fill="#0e294a" d="M19.005 48.385c-9.89-2.198-16.85-10.99-16.85-21.247 0-5.86 2.197-11.356 6.227-15.385 4.03-4.03 9.524-6.228 15.385-6.228 2.565 0 5.495.366 8.06 1.465 3.296-3.296 8.059-5.128 12.821-5.128 6.594 0 12.455 3.297 15.752 9.158h1.099c4.762 0 9.524 1.832 13.187 5.495 3.297 3.297 5.495 8.059 5.495 12.821 0 8.06-5.495 15.386-13.554 17.584v17.217H19.005z"/></g></g><g><g><path fill="#f26522" d="M44.281.763c-4.762 0-9.524 1.832-13.187 5.129-2.564-.733-5.129-1.466-7.693-1.466-6.228 0-12.089 2.565-16.485 6.594C2.52 15.416.323 21.277.323 27.138c0 10.624 6.96 19.415 16.85 22.346v15.752H67.36V47.652c8.059-2.564 13.554-10.257 13.554-18.682 0-5.129-2.198-10.257-5.861-13.92-3.663-3.664-8.792-5.862-13.92-5.862H60.4C57.103 4.06 50.875.763 44.28.763zm0 2.564c6.228 0 12.09 3.663 15.02 9.158h1.831c4.396 0 8.792 1.832 12.09 5.129 3.296 3.297 5.128 7.693 5.128 12.088 0 8.06-5.862 15.02-13.554 16.851v16.851H19.738V48.02C9.847 46.553 2.887 38.128 2.887 27.87c0-5.495 2.198-10.624 5.861-14.653 4.03-4.03 9.158-5.861 14.653-5.861 2.93 0 5.495.732 8.06 1.831 3.663-4.03 8.058-5.86 12.82-5.86"/></g></g></g><g><g><path fill="#fff" d="M61.865 40.692c5.861-.366 10.623-5.128 10.623-11.356 0-2.93-1.098-5.861-3.296-8.059-2.198-2.198-5.129-3.297-8.06-3.297-.732 0-1.831 0-2.93.366l-2.564.733-.733-2.564c-1.466-4.396-5.861-7.693-10.624-7.693-3.663 0-7.326 1.832-9.158 4.762l-1.465 2.198-2.198-1.465c-2.198-1.465-4.762-2.198-7.693-2.198-4.03 0-7.692 1.465-10.257 4.396-2.93 2.93-4.396 6.594-4.396 10.257 0 8.059 6.228 14.286 14.287 14.653h2.93v15.02h33.336V39.96z"/></g><g><path fill="#0e294a" d="M22.668 46.92v-4.762h18.683v4.762z"/></g></g><g/></g></g></svg>