<svg xmlns="http://www.w3.org/2000/svg" width="84" height="48" viewBox="0 0 84 48"><g><g><path fill="#f26522" d="M3.715 40.063h77.057l-.487 2.37a1.42 1.42 0 0 1-1.418 1.419H5.133a1.42 1.42 0 0 1-1.418-1.418zm7.09-3.301c0-14.856 12.086-26.941 26.941-26.941h8.508c14.855 0 26.941 12.085 26.941 26.94v1.419h-62.39zM40.582 4.149h2.836v4.006h-2.836zM5.132 46.688h73.735a4.259 4.259 0 0 0 4.254-4.254v-2.836c0-.783-.635-1.418-1.418-1.418h-5.672v-1.418c0-16.42-13.358-29.777-29.777-29.777V4.149h1.418a1.418 1.418 0 1 0 0-2.836H36.328a1.418 1.418 0 0 0 0 2.836h1.418v2.836c-16.42 0-29.777 13.358-29.777 29.777v1.418H2.297c-.783 0-1.418.635-1.418 1.418v2.836a4.259 4.259 0 0 0 4.254 4.254z"/><path fill="none" stroke="#f26522" stroke-miterlimit="20" d="M3.715 40.063h77.057l-.487 2.37a1.42 1.42 0 0 1-1.418 1.419H5.133a1.42 1.42 0 0 1-1.418-1.418zm7.09-3.301c0-14.856 12.086-26.941 26.941-26.941h8.508c14.855 0 26.941 12.085 26.941 26.94v1.419h-62.39zM40.582 4.149h2.836v4.006h-2.836zM5.132 46.688h73.735a4.259 4.259 0 0 0 4.254-4.254v-2.836c0-.783-.635-1.418-1.418-1.418h-5.672v-1.418c0-16.42-13.358-29.777-29.777-29.777V4.149h1.418a1.418 1.418 0 1 0 0-2.836H36.328a1.418 1.418 0 0 0 0 2.836h1.418v2.836c-16.42 0-29.777 13.358-29.777 29.777v1.418H2.297c-.783 0-1.418.635-1.418 1.418v2.836a4.259 4.259 0 0 0 4.254 4.254z"/></g><g><path fill="#0e294a" d="M5.69 40.138h72.62v1.345c0 .742-.602 1.344-1.344 1.345H7.034a1.346 1.346 0 0 1-1.344-1.345zm6.724-4.034c0-14.09 11.462-25.552 25.552-25.552h8.069c14.089 0 25.551 11.462 25.551 25.552v1.344H12.414zM40.655 5.173h2.69v2.69h-2.69zm36.31 40.344A4.04 4.04 0 0 0 81 41.483v-2.69c0-.742-.602-1.345-1.345-1.345h-5.38v-1.344c0-15.573-12.668-28.242-28.24-28.242v-2.69h1.344a1.345 1.345 0 1 0 0-2.69H36.621a1.345 1.345 0 1 0 0 2.69h1.345v2.69c-15.573 0-28.242 12.67-28.242 28.242v1.344h-5.38c-.742 0-1.344.603-1.344 1.345v2.69a4.04 4.04 0 0 0 4.034 4.034z"/><path fill="none" stroke="#0e294a" stroke-miterlimit="20" d="M5.69 40.138h72.62v1.345c0 .742-.602 1.344-1.344 1.345H7.034a1.346 1.346 0 0 1-1.344-1.345zm6.724-4.034c0-14.09 11.462-25.552 25.552-25.552h8.069c14.089 0 25.551 11.462 25.551 25.552v1.344H12.414zM40.655 5.173h2.69v2.69h-2.69zm36.31 40.344A4.04 4.04 0 0 0 81 41.483v-2.69c0-.742-.602-1.345-1.345-1.345h-5.38v-1.344c0-15.573-12.668-28.242-28.24-28.242v-2.69h1.344a1.345 1.345 0 1 0 0-2.69H36.621a1.345 1.345 0 1 0 0 2.69h1.345v2.69c-15.573 0-28.242 12.67-28.242 28.242v1.344h-5.38c-.742 0-1.344.603-1.344 1.345v2.69a4.04 4.04 0 0 0 4.034 4.034z"/></g></g></svg>