<svg xmlns="http://www.w3.org/2000/svg" width="83" height="63" viewBox="0 0 83 63"><g><g><g><g><path fill="#0e294a" d="M68.15 62.127c-5.207 0-9.67-3.348-11.53-8.183h-.743c-1.86 0-3.72-1.116-4.464-2.604-.372 0-1.116.372-1.488.372-2.975.744-5.95.744-8.927.744h-7.811c-1.115 5.58-6.323 9.67-11.902 9.67-6.695 0-12.274-5.579-12.274-12.273 0-1.116 0-2.232.371-3.348-2.975-2.232-3.72-5.207-3.347-7.439.744-4.835 2.975-8.927 4.835-11.159H6.035c-3.72 0-5.208-5.95-5.208-11.53 0-5.58 1.488-11.53 5.208-11.53H22.4c3.72 0 5.207 5.95 5.207 11.53 0 1.488 0 4.835-1.116 7.811h8.555c1.488 0 3.348 1.116 4.464 3.347 1.488 3.348-.372 6.696-1.488 8.555H40.626c1.116 0 8.555 0 10.415-5.579 1.488-4.464-1.116-10.415-2.604-13.39-1.488.744-2.604.744-3.72.744-2.603 0-4.463-1.116-5.579-3.348l-.372-.372v-.744c-.372-1.86.744-4.463 3.348-5.579.744-.372 3.72-1.488 7.81-2.232 1.489-1.488 4.464-3.347 9.672-3.347h.744c2.975 0 5.207 2.231 5.95 5.207.744 4.463.372 7.44-1.115 9.299 1.488 2.603 3.72 8.555 4.463 15.622 3.348.744 6.695 2.231 8.927 4.835 1.488 1.488 1.86 3.72.744 5.58-.372.743-.744 1.115-1.116 1.487 1.116 1.86 1.488 3.72 1.488 5.951.744 6.323-4.835 11.903-11.53 11.903z"/></g><g><path fill="#f26522" d="M60.34 1.127c-5.207 0-8.555 1.86-10.042 3.347-4.092.744-7.068 1.86-7.44 2.232-2.975 1.488-4.091 4.463-3.72 6.695v1.116l.373.372c1.116 2.604 3.72 4.091 6.695 4.091 1.116 0 2.231-.372 3.347-.743 1.489 2.975 3.348 8.182 2.232 11.53-1.488 4.835-8.555 4.835-8.927 4.835h-1.115c1.115-2.231 2.231-5.207.743-8.183-1.115-2.603-3.719-3.72-5.207-3.72h-7.067c.744-2.603.744-5.206.744-6.694 0-7.811-2.231-12.647-6.323-12.647H8.267c-4.091 0-6.323 4.836-6.323 12.647 0 7.81 2.231 12.646 6.323 12.646h2.604a20.281 20.281 0 0 0-3.72 10.043c-.372 2.231.372 5.207 2.976 7.81-.372 1.117-.372 1.86-.372 2.976 0 7.44 5.951 13.39 13.39 13.39 5.951 0 11.159-4.09 12.647-9.67H42.858c2.604 0 5.952-.372 8.927-.744h.744c1.116 1.488 2.976 2.232 4.836 2.232 1.86 4.835 6.695 8.183 12.274 8.183 7.44 0 13.39-5.952 13.39-13.39 0-1.86-.372-4.092-1.488-5.952.372-.372.744-.744.744-1.488 1.116-2.231.744-4.835-1.116-6.695-2.231-2.603-5.207-4.463-8.926-5.207-.744-6.323-2.976-11.53-4.464-14.506 1.488-2.232 1.488-5.207 1.116-9.67C68.523 2.614 65.547.01 62.2.01c-1.488 1.116-1.86 1.116-1.86 1.116zm0 1.86h.744c2.232 0 4.464 1.86 4.836 4.091.744 4.463 0 7.439-1.488 8.927 1.115 2.232 4.09 8.555 4.835 16.366 3.72.372 6.695 2.231 9.299 4.835 1.116 1.116 1.488 2.976.744 4.463-.372.744-.744 1.488-1.488 1.86 1.116 1.86 1.86 3.72 1.86 6.323 0 6.324-4.836 11.159-11.159 11.159-5.207 0-9.67-3.72-10.787-8.183-.372 0-.744.372-1.115.372-1.86 0-3.348-1.116-4.092-2.604-.744.372-1.488.372-2.231.372-2.976.744-5.952.744-8.555.744h-2.976c-1.86 0-3.72 0-5.58-.372-.743 5.58-5.578 9.67-11.158 9.67-6.323 0-11.158-4.834-11.158-11.158 0-1.115.372-2.603.744-3.719-3.348-2.232-3.72-5.208-3.348-7.067.744-6.323 4.091-10.415 6.323-12.647H7.523c-2.975 0-4.091-5.579-4.091-10.414S4.548 5.59 7.523 5.59H23.89c2.976 0 4.092 5.58 4.092 10.415 0 3.347-.372 6.695-1.86 8.555h9.67c1.116 0 2.976.744 3.72 2.604 1.488 3.347-1.116 7.067-1.86 8.554v.372c.372.372 1.488.744 3.72.744h.371c.744 0 8.927 0 11.16-6.323 1.487-4.835-1.117-11.159-2.977-14.878-1.115.744-2.975 1.116-4.09 1.116-2.233 0-3.72-1.116-4.836-2.976l-.372-.372v-.372c-.372-1.488.372-3.72 2.603-4.835 0 0 3.348-1.116 7.812-2.232 1.115-1.116 4.091-2.975 9.298-2.975"/></g></g><g><path fill="#fff" d="M19.425 45.39l2.976.743-1.86 2.976c-.372.744-.372 1.86.372 2.231 0 .372.372.372.744.372s.744-.372 1.116-.744l2.604-4.463.744 1.116c.371.744.371 1.488.371 2.232 0 2.603-2.231 4.835-4.835 4.835s-4.835-2.232-4.835-4.835c0-1.86.743-3.72 2.603-4.464zm44.635 1.859l2.604 4.091c0 .372.743.744 1.115.744s.372-.372.744-.372c.744-.744.744-1.487.372-2.232l-2.604-4.09h1.86c2.604 0 4.836 2.23 4.836 4.835 0 2.603-2.232 4.835-4.836 4.835-2.603 0-4.835-2.232-4.835-4.835 0-.745 0-1.116.372-1.86zm4.09 10.042c4.092 0 7.44-3.347 6.696-7.44 0-4.09-2.975-7.066-6.695-7.438v-1.488c1.488-.372 2.975-.372 4.463-.372h1.86c.372 0 .372-.372.372-.372v-.372c-2.232-2.232-5.208-3.347-8.183-3.347h-1.86v-.744c0-8.555-4.091-16.366-4.835-17.854-6.323-1.116-7.811-5.207-7.811-5.207l1.488-.744c1.116 1.116 3.348 1.86 5.58 1.86h1.487c.744 0 1.488-1.86.744-5.58 0-.744-.744-1.115-1.116-1.115h-.744c-5.579 0-6.695 2.603-6.695 2.603v.372h-.372c-4.463.744-8.183 2.232-8.183 2.232-.372.372-.372.744-.372.744 0 .372.372.744 1.116.744 1.488 0 4.092-1.488 4.836-2.232l.744-.372.371.744c.372.372 8.184 11.903 5.208 20.83-2.604 8.554-12.647 8.926-14.878 8.926h-.372c-4.092 0-6.695-.744-7.439-2.603-1.116-2.232.372-4.464.372-4.464 1.86-3.347 1.488-4.463 1.488-4.835-.372-.372-.744-.372-.744-.372H16.45c-.744 1.116-4.835 4.835-5.58 11.158 0 0-.371 1.86 2.977 3.72.371 0 .743.372 1.115.372l1.116.372-.744.744c-1.116 1.116-1.488 2.975-1.488 4.463 0 4.092 3.348 7.44 7.44 7.44 4.09 0 7.438-3.348 7.438-7.44 0-.372-.372-1.116-.372-1.488l-.371-1.115h1.115c2.604.372 5.58.372 8.555.372h2.976c2.975 0 5.579-.372 8.183-.744 2.231-.372 4.463-1.116 5.207-2.976v-.372l2.604-1.86-.744 2.232c-.372 1.488-.372 2.976-.372 4.464 0 .371.372.371.372.371h.372c1.115-1.86 2.975-3.347 4.835-4.835L62.2 45.39c-.744 1.116-1.488 2.604-1.488 4.463 0 4.092 3.348 7.44 7.439 7.44z"/></g><g><path fill="#fff" d="M8.267 23.072c-.372-.372-1.488-2.604-1.488-6.695 0-4.092 1.116-6.323 1.488-6.695h13.762c.372.372 1.488 2.604 1.488 6.695s-1.116 6.323-1.488 6.695z"/></g></g></g></svg>