<svg xmlns="http://www.w3.org/2000/svg" width="55" height="81" viewBox="0 0 55 81"><g><g><g><path fill="#0e294a" d="M45.84 76.655l-25.086 3.69c-5.533.737-10.698-2.952-11.435-8.485L1.203 16.524C.465 10.991 4.153 5.826 9.687 5.088L34.773 1.4C40.306.661 45.47 4.35 46.209 9.884l8.115 55.335c.738 5.534-2.95 10.698-8.484 11.436z"/><path fill="none" stroke="#f26522" stroke-miterlimit="20" stroke-width=".57" d="M45.84 76.655v0l-25.086 3.69c-5.533.737-10.698-2.952-11.435-8.485L1.203 16.524C.465 10.991 4.153 5.826 9.687 5.088L34.773 1.4C40.306.661 45.47 4.35 46.209 9.884l8.115 55.335c.738 5.534-2.95 10.698-8.484 11.436z"/></g><g><g transform="rotate(-8.198 27.5 39)"><path fill="#fff" d="M13.055 63.707V13.904h29.144v49.803z"/></g></g><g><path fill="#f26522" d="M32.56 74.073c-1.476 0-2.583-.738-2.952-2.213-.369-1.476.738-2.952 2.214-3.32 1.844 0 2.95.737 3.32 2.213 0 .738 0 1.475-.37 2.213-.737.37-1.106.738-2.213 1.107z"/></g></g></g></svg>