<svg xmlns="http://www.w3.org/2000/svg" width="77" height="74" viewBox="0 0 77 74"><g><g><g><g><path fill="#0e294a" d="M60.314 67.358c-1.116 0-1.488-.744-1.488-1.488-.744-1.86-1.116-3.347-1.86-4.835l-1.116-3.347c-.372-1.116-1.115-2.232-2.231-3.348l-5.58-5.58c-.371-.371-.371-.743 0-1.115l.745-.744c1.115-1.116 1.487-1.116 2.603 0 1.488 1.86 3.348 3.347 4.836 5.207 1.487 1.116 2.975 1.86 4.835 1.86 1.488 0 3.347-.372 4.835-.372h2.232c1.116 0 1.488.744 1.86 1.86 0 1.116 0 1.488-1.116 2.232-1.116.743-1.86 1.115-2.976 1.487-1.86.744-2.603 1.86-2.975 3.72-.372 1.116-.372 1.86-.744 2.975-.372 1.116-.744 1.488-1.86 1.488zM40.6 17.888c5.207 7.44 8.555 15.25 11.53 24.177-2.603.372-4.835.744-6.695 2.604-1.488 1.86-2.232 4.091-2.603 6.695l-3.348-1.116c-7.439-2.975-14.506-6.323-21.201-10.786-3.72-2.604-6.695-5.208-9.299-8.555-1.116-1.86-2.232-4.092-2.604-6.323-.372-2.604 0-5.208 1.488-7.811 1.86-3.72 4.835-6.695 8.183-8.927 0-.372.372-.372.372-.372h.372c1.86 2.975 4.463 4.463 8.183 4.835.372 3.72 2.231 6.695 5.95 7.811 3.72 1.116 6.696.372 9.672-2.231zm5.95 35.336c1.489 1.116 2.605 2.232 4.836 4.835 1.488 1.116 2.232 2.604 2.603 4.092.744 2.603 1.488 5.207 2.604 7.439.744 2.231 2.604 2.975 4.836 2.975 2.231 0 4.09-1.116 4.835-3.347.372-1.116.744-2.604 1.116-3.72 0-.372.372-.744.744-1.116 1.116-.744 2.231-1.116 3.347-1.86 1.86-1.115 2.604-2.975 2.604-5.207-.372-2.975-2.232-5.207-4.835-5.58H61.057c-.743 0-1.487-.371-1.859-.743-1.488-1.488-2.604-2.976-4.092-4.463 1.488-.744 2.604-1.488 1.86-3.72-1.86-4.463-3.72-9.299-5.579-13.762-2.604-5.208-5.207-10.043-8.555-14.506-1.116-1.488-2.603-1.488-3.347 0 0 .372-.372.372-.372.744-1.488 2.231-4.092 3.347-6.695 2.231-2.604-1.116-3.72-3.72-3.348-6.323v-1.116c0-1.115-.372-1.487-1.116-1.86-.744-.371-1.488-.371-1.86.373-.372.372-1.116.372-1.487.372-2.604-.372-4.092-1.86-4.836-4.092-.744-1.86-1.86-2.232-3.347-1.488-4.092 1.86-7.44 4.836-10.043 8.555-2.232 2.976-3.72 5.951-4.091 9.67-.373 3.72 1.115 7.068 2.975 10.044 2.975 4.091 6.323 7.439 10.415 10.042 8.555 5.952 17.853 10.043 27.524 13.39 1.488.745 2.604 0 3.348-1.86z"/></g><g><path fill="#f26522" d="M60.314 63.267zm-.744-1.86l-.372-1.116c0-.372-.372-.744-.372-1.116-.372-.744-.372-1.86-1.115-2.603 0-.372-.372-.744-.372-.744 1.115.372 1.86.744 2.975.744H65.893c-.371.371-1.115.371-1.487.743-2.478 1.062-3.945 2.797-4.402 5.206-.119-.345-.207-.66-.434-1.114zm.434 1.114c.041.12.086.244.142.378a2.473 2.473 0 0 0-.204-.004c.018-.127.039-.251.062-.374zm.31.746a5.638 5.638 0 0 1-.168-.368c.168.016.168.082.168.368zM40.973 47.645c-.372 0-.372 0-.744-.372-8.555-3.348-15.25-6.696-20.83-10.415-2.603-1.86-5.95-4.463-8.554-7.81-1.116-1.86-1.86-3.348-2.232-5.208-.372-2.232 0-4.092 1.116-6.323 1.488-2.604 3.347-4.836 5.95-6.696 1.86 1.86 4.092 3.348 6.696 3.72 1.116 3.72 3.72 6.695 7.44 7.81 1.487.373 2.603.745 4.09.745 1.86 0 4.092-.744 5.952-1.86 3.347 5.207 6.323 11.159 8.926 18.598-1.86.372-3.347 1.487-5.207 2.975-1.116 1.488-1.86 2.976-2.603 4.836zM17.912.035c.743 0 2.975.372 4.464 3.72.371 1.115 1.116 1.86 2.231 2.231.744-.744 1.488-1.116 2.604-1.116.744 0 1.488 0 1.86.372 1.487.744 2.603 2.232 2.603 4.092-.372.372-.372 1.116-.372 1.488-.371 1.487.372 2.975 1.86 3.347.372.372.744.372 1.116.372 1.116 0 2.232-.744 2.604-1.488.372 0 .372-.372.372-.372.744-1.488 2.231-2.231 3.72-2.231 1.487 0 2.975.743 3.719 1.86 3.347 4.835 6.323 10.042 8.554 14.877 1.489 2.604 2.604 5.58 3.72 8.555.372 1.86 1.116 3.348 1.86 5.208.744 1.86.372 3.347 0 4.091 0 .372-.372.372-.372.744l2.232 2.232h8.926c3.72.744 6.323 3.72 6.695 7.81.372 2.976-1.116 5.58-3.72 7.44-1.115.744-2.231 1.488-3.347 1.86l-1.116 3.347c-1.488 2.976-3.72 4.835-7.439 4.835h-.372c-3.347 0-5.951-1.488-7.067-4.463-1.116-1.86-1.86-4.092-2.604-6.323l-.372-1.116c-.371-1.488-1.115-2.232-1.86-2.976l-1.487-1.488c-1.116.745-1.86.745-2.604.745-.372 0-1.116 0-1.86-.373-11.53-4.091-20.457-8.554-28.268-13.762-4.835-3.347-8.183-7.067-10.787-10.786-2.603-3.72-3.719-7.44-3.347-11.53.372-4.092 1.86-7.44 4.463-11.16C7.87 5.988 11.217 3.012 15.308.78c1.116-.372 1.86-.744 2.604-.744zm42.402 67.323c1.116 0 1.488-.372 1.86-1.488.372-1.115.372-1.86.744-2.975.372-1.86 1.116-2.976 2.975-3.72 1.116-.372 1.86-.744 2.976-1.487 1.116-.745 1.116-1.116 1.116-2.232-.372-1.116-.744-1.86-1.86-1.86h-2.232c-1.488 0-3.347.372-4.835.372-1.86 0-3.348-.744-4.463-1.86-1.488-1.86-3.348-3.347-4.836-5.207-.372-.372-.744-.744-1.116-.744-.372 0-.744.372-1.488.744l-.743.744c-.372.372-.372.744 0 1.116l5.579 5.579c1.115 1.116 1.86 2.232 2.231 3.348l1.116 3.347c.744 1.488 1.116 2.976 1.86 4.835-.372.744 0 1.488 1.116 1.488zM42.832 50.992c.372-2.603 1.116-4.835 2.604-6.695 1.86-1.86 4.091-2.232 6.695-2.604-2.976-8.554-6.695-16.365-11.53-23.804-1.86 1.86-4.092 2.975-6.324 2.975-1.115 0-2.231-.372-3.347-.744-3.72-1.116-5.58-4.091-5.951-7.81-3.72-.373-6.324-1.86-8.183-4.836h-.372s-.372 0-.372.372c-3.348 2.232-6.323 5.207-8.183 8.927-1.488 2.603-1.86 5.207-1.488 7.81.372 2.232 1.488 4.464 2.604 6.324 2.603 3.347 5.58 5.951 9.299 8.555 6.695 4.463 13.762 7.81 21.2 10.786 1.117 0 2.232.372 3.348.744zM17.912 2.64c.744 0 1.488.744 1.86 1.86.743 2.231 2.231 3.719 4.835 4.09h.372c.372 0 .744 0 1.115-.371.372-.372.744-.744 1.116-.744h.744c.744.372 1.116.744 1.116 1.86v1.115c-.372 2.604.744 5.208 3.348 6.324.744.372 1.488.372 1.86.372 1.86 0 3.719-1.116 4.463-2.604 0-.372.372-.372.372-.744.372-.744 1.116-1.116 1.488-1.116.744 0 1.115.372 1.488.744 3.347 4.464 5.95 9.299 8.554 14.506 1.86 4.464 3.72 9.299 5.58 13.762.744 2.232-.372 2.976-1.86 3.72 1.488 1.488 2.604 2.976 4.091 4.463.372.372 1.116.744 1.86.744h8.183c2.604.372 4.463 2.604 4.835 5.58 0 2.231-.744 4.091-2.603 5.207-1.116.744-2.232 1.116-3.348 1.86-.372.372-.744.744-.744 1.116-.372 1.115-.744 2.603-1.116 3.719-.744 2.232-2.603 3.347-4.835 3.347h-.372c-2.232 0-3.72-.743-4.463-2.975-1.116-2.232-1.86-4.835-2.604-7.44-.372-1.487-1.116-2.975-2.604-4.09l-3.72-3.72c-.371 1.488-1.115 2.232-2.231 2.232-.372 0-.744 0-1.116-.372-9.67-3.348-18.97-7.44-27.524-13.39-4.092-2.604-7.44-5.952-10.415-10.043-1.86-2.976-3.348-6.323-2.975-10.043.371-3.72 1.86-6.695 4.091-9.67 2.604-3.72 5.951-6.696 10.043-8.556.372-.743.744-.743 1.116-.743"/></g></g><g><g><path fill="#fff" d="M40.6 17.888c4.836 7.44 8.556 15.622 11.531 23.805-2.603.372-4.835 1.116-6.695 2.604-1.86 1.86-2.232 4.092-2.604 6.695l-3.347-1.116c-7.44-2.975-14.878-6.323-21.202-10.786-3.347-2.232-6.695-5.208-9.298-8.555-1.488-1.86-2.232-4.092-2.604-6.323-.372-2.976.372-5.208 1.488-7.811 1.86-3.72 4.835-6.323 8.183-8.927 0 0 .372 0 .372-.372h.371c1.86 2.975 4.464 4.835 8.183 4.835.745 3.72 2.604 6.323 5.952 7.811 3.72 1.488 7.067.744 9.67-1.86z"/></g><g><path fill="#0e294a" d="M16.796 7.102c-.372 0-.372 0-.744.372-3.348 2.232-6.324 5.207-8.183 8.927-1.488 2.603-1.86 5.207-1.488 7.81.372 2.232 1.488 4.464 2.603 6.324 2.604 3.347 5.58 5.951 9.3 8.555 6.694 4.463 13.761 7.81 21.2 10.786l3.348 1.116c.372-2.604 1.116-4.835 2.604-6.695 1.86-1.86 4.091-2.232 6.695-2.604-2.975-8.554-6.695-16.366-11.53-23.805-1.86 1.86-4.092 2.976-6.324 2.976-1.116 0-2.231-.372-3.347-.744-3.72-1.116-5.58-4.091-5.951-7.81-3.72-.373-6.324-1.86-8.183-5.208zm-.372.744c1.86 2.975 4.463 4.463 7.81 4.835.745 4.092 2.976 6.695 6.324 7.811 1.116.372 2.231.744 3.348.744 2.231 0 4.463-.744 6.323-2.604 4.091 6.324 7.439 13.39 10.786 22.69-2.231.371-4.463 1.115-6.323 2.975-1.86 1.86-2.603 4.092-2.603 6.323h-.372c-.744-.372-1.488-.744-2.232-.744-8.555-3.347-15.25-6.695-21.201-10.786-2.976-1.86-6.323-4.836-8.927-8.555-1.488-1.86-2.232-4.092-2.604-5.951-.372-2.604 0-4.836 1.488-7.44 1.86-3.719 4.835-6.695 8.183-9.298"/></g></g><g><g><path fill="#fff" d="M60.314 67.358c-.744 0-1.488-.744-1.488-1.116-.744-1.487-1.116-2.975-1.86-4.835l-1.115-3.347c-.744-1.116-1.488-2.604-2.232-3.348l-5.58-5.58c-.371-.371-.371-.743 0-1.115.373-.372.373-.744.745-.744 1.116-1.116 1.488-1.116 2.603 0 1.488 1.86 3.348 3.347 4.836 5.207 1.116 1.488 2.975 1.86 4.835 1.86 1.488 0 3.348 0 4.835-.372h2.232c1.116 0 1.488.744 1.86 1.86.372 1.116 0 1.487-1.116 2.231-1.116.372-1.86 1.116-2.976 1.488-1.487.744-2.603 1.86-2.975 3.72 0 1.116-.372 1.86-.744 2.975-.372.372-1.116 1.116-1.86 1.116z"/></g><g><path fill="#0e294a" d="M49.528 46.157c-.373 0-.745.372-1.488.744l-.744.744c-.372.372-.372.744 0 1.116l5.579 5.579c1.116 1.116 1.86 2.232 2.232 3.347l1.115 3.348c.744 1.488 1.116 2.975 1.86 4.835.372.744.744 1.116 1.488 1.116 1.116 0 1.488-.372 1.86-1.488.372-1.116.372-1.86.744-2.975.371-1.86 1.115-2.976 2.975-3.72 1.116-.372 1.86-.744 2.976-1.488 1.116-.744 1.116-1.115 1.116-2.231-.372-1.116-.744-1.86-1.86-1.86h-2.232c-1.488 0-3.347.372-4.835.372-1.86 0-3.348-.744-4.464-1.86-1.487-1.86-3.347-3.347-4.835-5.207-.744 0-1.116-.372-1.487-.372zm0 .744c.371 0 .743.372.743.744l1.488 1.487 3.348 3.348c1.488 1.488 2.976 2.232 5.207 2.232h7.067c.744 0 1.116.372 1.488 1.488 0 .744 0 1.115-.744 1.487-.744.372-1.86.744-2.975 1.488-1.86.744-2.976 2.232-3.348 4.092 0 .744-.372 1.86-.744 2.975-.372.744-.744 1.116-1.116 1.116-.372 0-.744 0-1.116-.744-.371-1.116-.743-2.232-1.488-3.72l-.371-1.115c0-.372-.372-.744-.372-1.116-.372-.744-.372-1.488-.744-2.232-.744-1.488-1.488-2.603-2.604-3.72-1.488-1.86-3.347-3.347-4.835-4.835l-.744-.744-.372-.372v-.372s0-.372.372-.372l.372-.372 1.488-.743"/></g></g></g></g></svg>