<?xml version="1.0" encoding="utf-8"?>
<!-- Generator: Adobe Illustrator 24.1.2, SVG Export Plug-In . SVG Version: 6.00 Build 0)  -->
<svg version="1.1" id="Layer_1" xmlns="http://www.w3.org/2000/svg" xmlns:xlink="http://www.w3.org/1999/xlink" x="0px" y="0px"
	 viewBox="0 0 27 15.8" style="enable-background:new 0 0 27 15.8;" xml:space="preserve">
<style type="text/css">
	.st0{fill:#FFFFFF;}
</style>
<g>
	<g>
		<g>
			<path class="st0" d="M25.9,2.3H1.1C0.5,2.2,0,1.7,0,1.1C0,0.5,0.5,0,1.1,0h24.8C26.5,0,27,0.5,27,1.1S26.5,2.3,25.9,2.3z"/>
		</g>
		<g>
			<path class="st0" d="M25.9,9.3H1.1C0.5,9.2,0,8.7,0,8.1C0,7.5,0.5,7,1.1,7h24.8C26.5,7,27,7.5,27,8.1S26.5,9.3,25.9,9.3z"/>
		</g>
		<g>
			<path class="st0" d="M25.9,15.8H1.1c-0.6,0-1.1-0.5-1.1-1.1c0-0.6,0.5-1.1,1.1-1.1h24.8c0.6,0,1.1,0.5,1.1,1.1
				S26.5,15.8,25.9,15.8z"/>
		</g>
	</g>
</g>
</svg>
