<svg xmlns="http://www.w3.org/2000/svg" width="26" height="26" viewBox="0 0 26 26"><defs><clipPath id="yx76a"><path fill="#fff" d="M-2 26V-2h28v28z"/></clipPath></defs><g><g><g><g><path fill="#fff" d="M1.198 13.208c0-6.437 5.218-11.655 11.655-11.655 6.437 0 11.655 5.218 11.655 11.655 0 6.437-5.218 11.655-11.655 11.655-6.437 0-11.655-5.218-11.655-11.655z"/><path fill="none" stroke="#0e294a" stroke-miterlimit="20" stroke-width="1.57" d="M1.198 13.208c0-6.437 5.218-11.655 11.655-11.655 6.437 0 11.655 5.218 11.655 11.655 0 6.437-5.218 11.655-11.655 11.655-6.437 0-11.655-5.218-11.655-11.655z"/></g></g><g><g><g><text dominant-baseline="text-before-edge" style="font-kerning:normal" fill="#f26522" font-family="'Lapsus Pro','LapsusPro-Bold'" font-size="8" font-style="none" font-weight="700" transform="translate(-1287 -358)"><tspan style="text-transform:uppercase">c</tspan></text></g></g><g><g><text dominant-baseline="text-before-edge" style="font-kerning:normal" fill="#f26522" font-family="'Lapsus Pro','LapsusPro-Bold'" font-size="8" font-style="none" font-weight="700" transform="translate(-1287 -358)"><tspan style="text-transform:uppercase">a</tspan></text></g></g><g><g><text dominant-baseline="text-before-edge" style="font-kerning:normal" fill="#f26522" font-family="'Lapsus Pro','LapsusPro-Bold'" font-size="8" font-style="none" font-weight="700" transform="translate(-1287 -358)"><tspan style="text-transform:uppercase">l</tspan></text></g></g><g><g><g><text dominant-baseline="text-before-edge" style="font-kerning:normal" fill="#0e294a" font-family="'Lapsus Pro','LapsusPro-Bold'" font-size="7" font-style="none" font-weight="700" transform="translate(-1287 -358)"><tspan style="text-transform:uppercase">c</tspan></text></g></g><g><g><text dominant-baseline="text-before-edge" style="font-kerning:normal" fill="#0e294a" font-family="'Lapsus Pro','LapsusPro-Bold'" font-size="7" font-style="none" font-weight="700" transform="translate(-1287 -358)"><tspan style="text-transform:uppercase">a</tspan></text></g></g><g><g><text dominant-baseline="text-before-edge" style="font-kerning:normal" fill="#0e294a" font-family="'Lapsus Pro','LapsusPro-Bold'" font-size="7" font-style="none" font-weight="700" transform="translate(-1287 -358)"><tspan style="text-transform:uppercase">l</tspan></text></g></g></g></g></g></g></svg>