<?xml version="1.0" encoding="utf-8"?>
<!-- Generator: Adobe Illustrator 24.1.2, SVG Export Plug-In . SVG Version: 6.00 Build 0)  -->
<svg version="1.1" id="Layer_1" xmlns="http://www.w3.org/2000/svg" xmlns:xlink="http://www.w3.org/1999/xlink" x="0px" y="0px"
	 viewBox="0 0 36.3 30.6" style="enable-background:new 0 0 36.3 30.6;" xml:space="preserve">
<style type="text/css">
	.st0{fill:#0E294A;}
</style>
<g>
	<g>
		<g>
			<path class="st0" d="M30.1,28.5H6.2c-0.2,0-0.3-0.1-0.4-0.3L2.1,11.9c0-0.1,0-0.2,0.1-0.3c0.1-0.1,0.2-0.1,0.3-0.1h6.1l-0.3,0.6
				c-0.2,0.5,0,1.2,0.5,1.4c0.5,0.2,1.2,0,1.4-0.5l0,0l0.6-1.5h14.5l0.6,1.5c0.2,0.5,0.9,0.8,1.4,0.5c0.5-0.2,0.8-0.9,0.5-1.4
				l-0.3-0.6h6.1c0.2,0,0.3,0.1,0.3,0.1c0.1,0.1,0.1,0.2,0.1,0.3l-3.7,16.3C30.4,28.4,30.2,28.5,30.1,28.5L30.1,28.5z M35.8,10.3
				c-0.5-0.6-1.2-1-2-0.9h-7L23,0.7c-0.2-0.5-0.8-0.8-1.4-0.6s-0.8,0.8-0.6,1.4c0,0,0,0,0,0l3.4,7.8H11.8l3.4-7.8
				c0.2-0.5,0-1.2-0.6-1.4c-0.5-0.2-1.1,0-1.4,0.5L9.5,9.3h-7c-0.8,0-1.5,0.3-2,0.9c-0.5,0.6-0.6,1.4-0.5,2.1l3.7,16.3
				c0.3,1.1,1.3,1.9,2.5,1.9h23.8c1.2,0,2.2-0.8,2.5-1.9l3.7-16.3C36.4,11.6,36.2,10.9,35.8,10.3L35.8,10.3z"/>
		</g>
		<g>
			<path class="st0" d="M11.8,16.1c-0.6,0-1.1,0.5-1.1,1.1v7.8c0,0.6,0.5,1.1,1.1,1.1s1.1-0.5,1.1-1.1v-7.8
				C12.8,16.6,12.4,16.1,11.8,16.1z"/>
		</g>
		<g>
			<path class="st0" d="M18.2,16.1c-0.6,0-1.1,0.5-1.1,1.1v7.8c0,0.6,0.5,1.1,1.1,1.1c0.6,0,1.1-0.5,1.1-1.1v-7.8
				C19.2,16.6,18.7,16.1,18.2,16.1z"/>
		</g>
		<g>
			<path class="st0" d="M24.5,16.1c-0.6,0-1.1,0.5-1.1,1.1v7.8c0,0.6,0.5,1.1,1.1,1.1c0.6,0,1.1-0.5,1.1-1.1v-7.8
				C25.6,16.6,25.1,16.1,24.5,16.1z"/>
		</g>
	</g>
</g>
</svg>
