<?xml version="1.0" encoding="utf-8"?>
<!-- Generator: Adobe Illustrator 24.1.2, SVG Export Plug-In . SVG Version: 6.00 Build 0)  -->
<svg version="1.1" id="Layer_1" xmlns="http://www.w3.org/2000/svg" xmlns:xlink="http://www.w3.org/1999/xlink" x="0px" y="0px"
	 viewBox="0 0 34.4 34.4" style="enable-background:new 0 0 34.4 34.4;" xml:space="preserve">
<style type="text/css">
	.st0{fill:#FFFFFF;}
	.st1{fill:none;stroke:#0E294A;stroke-width:1.57;stroke-miterlimit:20;}
	.st2{fill:#0E294A;}
	.st3{fill:#F26522;}
	.st4{fill:none;stroke:#0E294A;stroke-width:1.1;stroke-miterlimit:20;}
</style>
<g>
	<g>
		<g>
			<g>
				<path class="st0" d="M0.8,17.2c0-9.1,7.3-16.4,16.4-16.4c9.1,0,16.4,7.3,16.4,16.4s-7.3,16.4-16.4,16.4
					C8.1,33.6,0.8,26.2,0.8,17.2z"/>
				<path class="st1" d="M0.8,17.2c0-9.1,7.3-16.4,16.4-16.4c9.1,0,16.4,7.3,16.4,16.4s-7.3,16.4-16.4,16.4
					C8.1,33.6,0.8,26.2,0.8,17.2z"/>
			</g>
			<g>
				<g>
					<g>
						<path class="st2" d="M16.6,14.8c0.1,0.1,0.1,0.2,0.3,0.2c-0.1,0.1-0.1,0.1-0.2,0.1s-0.1,0.1-0.2,0.1
							C16.6,15.1,16.6,14.9,16.6,14.8z M19.8,15.6c0.2-0.1,0.4-0.3,0.6-0.3c0,0.2,0,0.5,0.1,0.8c-0.1-0.1-0.2-0.1-0.3-0.2
							C20.1,15.8,19.9,15.7,19.8,15.6z M14.1,17.5c0.2,0,0.3-0.1,0.5-0.1c-0.1,0.2-0.2,0.3-0.2,0.5c0,0.1-0.1,0.2-0.1,0.3
							c-0.1-0.2-0.2-0.5-0.4-0.7C13.9,17.5,14.1,17.5,14.1,17.5z M17,26.3c0.9,0,1.8-0.3,2.6-1.2c0.1,0,0.2-0.1,0.3-0.2
							c0.3-0.2,0.5-0.3,0.9-0.3s0.9-0.1,1.2-0.1h0.4l0.2-0.1c2.2-0.8,2.3-2.7,2.4-3.3c0.2-1.4-0.3-2.5-1.2-3.3
							c1.3-0.3,2.4-1.5,2.4-2.9v-0.7c-0.2-1.3-1-2.6-1.2-2.8c-0.3-0.4-0.5-0.7-0.8-0.9c-0.4-0.5-0.9-0.7-1.4-0.7h-0.3
							c-0.4,0.1-0.8,0.4-1.1,0.8c0-0.2-0.1-0.3-0.2-0.5c-0.7-1.5-2.1-2.4-3.6-2.6h-0.4c-0.4,0-0.8,0.1-1.1,0.3l-0.4,0.3l-0.2,0.2
							c-0.2,0.2-0.6,0.7-0.7,1.5c-0.5-0.5-1-0.8-1.6-0.8s-1.2,0.4-1.8,1c-1,1.1-1.4,2.7-1,4.1c0.1,0.2,0.1,0.4,0.2,0.6
							c-0.2-0.1-0.3-0.1-0.5-0.1c-0.3,0-0.6,0.1-0.8,0.2c-0.4,0.2-0.8,0.7-1,1.6c-0.3,1.6,0.1,3,1,4.3c0.6,0.9,1.5,1.4,2.5,1.4
							c0.5,0,0.9-0.1,1.4-0.3c0-0.1,0.1-0.1,0.1-0.1c0,0.5-0.1,0.9,0,1.2c0.2,1.4,1.1,2.6,2.4,3.1C16.1,26.2,16.5,26.3,17,26.3z"/>
					</g>
					<g>
						<path class="st3" d="M17,7.3c0.1,0,0.3,0,0.6-0.1c1.7,0.2,3.1,1.2,3.9,2.8c0.2-0.3,0.6-0.4,0.9-0.5h0.4c0.6,0,1.2,0.3,1.7,0.8
							c0.2,0.3,0.5,0.6,0.8,1c0.1,0.3,1,1.6,1.2,3v0.8c0,1.3-0.9,2.5-2.1,3c0.7,0.9,1,1.9,0.9,3.2c-0.1,0.6-0.3,2.7-2.6,3.6h-0.6
							C21.8,25,21.3,25,20.9,25c-0.4,0-0.5,0.1-0.6,0.2L20,25.5c-0.9,0.6-1.8,1-2.8,1c-0.5,0-1-0.1-1.5-0.3
							c-1.5-0.6-2.4-1.8-2.7-3.4v-0.7c-0.4,0.1-0.7,0.2-1.1,0.2c-1.1,0-2.1-0.5-2.8-1.5c-1-1.4-1.4-2.9-1.1-4.6
							c0.2-1.1,0.8-1.6,1.2-1.8c0.3-0.1,0.6-0.2,1-0.2v-0.1c-0.4-1.6,0-3.2,1-4.4c0.6-0.7,1.3-1.1,2.1-1.1c0.4,0,0.9,0.1,1.4,0.5
							c0.2-0.6,0.4-0.9,0.6-1.1l0.2-0.2l0.3-0.2C16.1,7.4,16.5,7.3,17,7.3z M15.4,16.6c-0.4,0.4-0.8,0.6-1.3,0.6
							c-0.3,0-0.6-0.1-0.9-0.2c-0.1,0-0.2-0.1-0.2-0.1c0.6,0.6,1,1.3,1.3,1.9c0.1,0.2,0.1,0.4,0.1,0.6c0.1-0.5,0.3-0.9,0.4-1.4
							C14.9,17.4,15.1,16.9,15.4,16.6z M20.5,14.4c-0.4,0.6-1,1-1.7,1h-0.2c0.4,0.1,0.9,0.3,1.4,0.7c0.4,0.3,0.8,0.5,1.2,0.8
							c-0.1-0.2-0.2-0.3-0.3-0.5c-0.2-0.8-0.3-1.5-0.2-2.3C20.6,14.2,20.6,14.3,20.5,14.4z M15.7,16.2c0.4-0.4,0.8-0.7,1.1-0.8
							c0.2-0.1,0.5-0.2,0.9-0.2H18c-0.8-0.3-1.4-0.8-1.8-1.4c0.1,0.7,0,1.4-0.4,2.2C15.8,16.1,15.7,16.1,15.7,16.2z M17,8h0.3
							c1.4,0.1,2.6,1,3.3,2.4c0.2,0.5,0.4,1,0.4,1.5c0-0.1,0.1-0.3,0.1-0.4c0.2-0.6,0.7-1,1.2-1.1h0.3c0.4,0,0.8,0.2,1.2,0.6
							c0.2,0.2,0.5,0.5,0.7,0.9c0.1,0.2,0.9,1.4,1.1,2.6v0.7c0,1.3-1.2,2.5-2.5,2.7h-0.2c-0.1,0-0.3,0-0.4-0.1
							c0.1,0.1,0.3,0.2,0.4,0.3c1.2,0.7,1.7,1.8,1.6,3.3c-0.1,1-0.4,2.4-2.2,3.1h-0.5c-0.3,0-0.7,0.1-1.2,0.1s-0.8,0.1-1.1,0.4
							c-0.1,0.1-0.2,0.2-0.3,0.2c-0.7,0.6-1.6,0.9-2.4,0.9c-0.4,0-0.8-0.1-1.2-0.2c-1.2-0.5-2-1.5-2.2-2.8c-0.1-0.4,0-0.9,0.1-1.5
							c0-0.2,0.1-0.3,0.2-0.5c-0.2,0.3-0.5,0.5-0.9,0.6c-0.4,0.2-0.9,0.3-1.3,0.3c-0.9,0-1.7-0.4-2.3-1.2c-0.9-1.2-1.2-2.6-1-4.1
							c0.1-0.8,0.5-1.2,0.8-1.3c0.2-0.1,0.4-0.2,0.7-0.2s0.6,0.1,0.9,0.2c0.1,0.1,0.2,0.1,0.4,0.2c-0.3-0.4-0.5-0.9-0.6-1.4
							c-0.3-1.3,0-2.7,0.9-3.8c0.5-0.6,1-0.8,1.6-0.8s1.1,0.3,1.5,0.9c0.2,0.2,0.3,0.4,0.4,0.6c-0.2-1.3,0.3-2,0.6-2.3l0.1-0.1
							l0.3-0.2C16.4,8.1,16.7,8,17,8"/>
					</g>
				</g>
				<g>
					<g>
						<path class="st0" d="M22.2,23.8c-0.4,0-0.9,0.1-1.4,0.1c-0.6,0-1.1,0.1-1.5,0.5c-0.1,0.1-0.2,0.2-0.3,0.2
							c-1.9,1.5-4.4,0.5-4.8-1.9c-0.1-0.4,0-0.9,0.1-1.3c0.3-1.1,0.7-2.2,1.1-3.4c0.7-2.4,2.4-3,4.4-1.6c1,0.7,2,1.3,3,1.9
							c1.1,0.6,1.4,1.6,1.3,2.8C23.9,22.4,23.5,23.3,22.2,23.8z"/>
						<path class="st4" d="M22.2,23.8c-0.4,0-0.9,0.1-1.4,0.1c-0.6,0-1.1,0.1-1.5,0.5c-0.1,0.1-0.2,0.2-0.3,0.2
							c-1.9,1.5-4.4,0.5-4.8-1.9c-0.1-0.4,0-0.9,0.1-1.3c0.3-1.1,0.7-2.2,1.1-3.4c0.7-2.4,2.4-3,4.4-1.6c1,0.7,2,1.3,3,1.9
							c1.1,0.6,1.4,1.6,1.3,2.8C23.9,22.4,23.5,23.3,22.2,23.8z"/>
					</g>
					<g>
						<path class="st0" d="M15.4,12.8c0.3,1,0.5,2,0,3c-0.4,0.8-1.1,1.1-2,0.7c-2.3-0.9-3.1-4-1.4-5.8c0.8-0.9,1.6-0.9,2.3,0
							c0.2,0.2,0.4,0.5,0.5,0.8C15,11.9,15.2,12.3,15.4,12.8z"/>
						<path class="st4" d="M15.4,12.8c0.3,1,0.5,2,0,3c-0.4,0.8-1.1,1.1-2,0.7c-2.3-0.9-3.1-4-1.4-5.8c0.8-0.9,1.6-0.9,2.3,0
							c0.2,0.2,0.4,0.5,0.5,0.8C15,11.9,15.2,12.3,15.4,12.8z"/>
					</g>
					<g>
						<path class="st0" d="M13.7,19c0.3,0.9,0,1.7-0.9,2.1c-1.1,0.5-2.1,0.2-2.9-0.8C9.1,19.2,8.8,18,9,16.7c0.2-1,0.7-1.2,1.6-0.8
							C11.7,16.2,13.3,17.9,13.7,19z"/>
						<path class="st4" d="M13.7,19c0.3,0.9,0,1.7-0.9,2.1c-1.1,0.5-2.1,0.2-2.9-0.8C9.1,19.2,8.8,18,9,16.7c0.2-1,0.7-1.2,1.6-0.8
							C11.7,16.2,13.3,17.9,13.7,19z"/>
					</g>
					<g>
						<path class="st0" d="M17.3,8.7c-0.5,0-0.8,0-1.1,0.2L16.1,9c-0.3,0.3-0.9,1.4,0,3.5c0.5,1,1,1.9,2.1,2.3
							c0.8,0.3,1.4,0.1,1.8-0.6C21.4,12,19.9,8.9,17.3,8.7z"/>
						<path class="st4" d="M17.3,8.7c-0.5,0-0.8,0-1.1,0.2l0,0L16.1,9l0,0c-0.3,0.3-0.9,1.4,0,3.5c0.5,1,1,1.9,2.1,2.3
							c0.8,0.3,1.4,0.1,1.8-0.6C21.4,12,19.9,8.9,17.3,8.7z"/>
					</g>
					<g>
						<path class="st0" d="M25.2,15.1v-0.6c-0.2-1.2-0.9-2.3-1-2.4c-0.2-0.3-0.4-0.5-0.7-0.8c-0.7-0.7-1.4-0.5-1.7,0.4
							c-0.6,1.5-0.7,3-0.2,4.5c0.2,0.7,0.9,1.1,1.6,1C24.2,17.2,25.1,16.2,25.2,15.1z"/>
						<path class="st4" d="M25.2,15.1v-0.6c-0.2-1.2-0.9-2.3-1-2.4c-0.2-0.3-0.4-0.5-0.7-0.8c-0.7-0.7-1.4-0.5-1.7,0.4
							c-0.6,1.5-0.7,3-0.2,4.5c0.2,0.7,0.9,1.1,1.6,1C24.2,17.2,25.1,16.2,25.2,15.1z"/>
					</g>
				</g>
			</g>
		</g>
	</g>
</g>
</svg>
