<?xml version="1.0" encoding="utf-8"?>
<!-- Generator: Adobe Illustrator 24.1.2, SVG Export Plug-In . SVG Version: 6.00 Build 0)  -->
<svg version="1.1" id="Layer_1" xmlns="http://www.w3.org/2000/svg" xmlns:xlink="http://www.w3.org/1999/xlink" x="0px" y="0px"
	 viewBox="0 0 34.4 34.4" style="enable-background:new 0 0 34.4 34.4;" xml:space="preserve">
<style type="text/css">
	.st0{fill:#FFFFFF;}
	.st1{fill:none;stroke:#0E294A;stroke-width:1.57;stroke-miterlimit:20;}
	.st2{fill:#F26522;}
	.st3{fill:none;stroke:#F26522;stroke-width:0.5;stroke-miterlimit:20;}
	.st4{fill:#0E294A;}
	.st5{fill:none;stroke:#0E294A;stroke-width:0.5;stroke-miterlimit:20;}
</style>
<g>
	<g>
		<g>
			<g>
				<path class="st0" d="M0.8,17.2c0-9.1,7.3-16.4,16.4-16.4s16.4,7.3,16.4,16.4s-7.3,16.4-16.4,16.4S0.8,26.2,0.8,17.2z"/>
				<path class="st1" d="M0.8,17.2c0-9.1,7.3-16.4,16.4-16.4s16.4,7.3,16.4,16.4s-7.3,16.4-16.4,16.4S0.8,26.2,0.8,17.2z"/>
			</g>
			<g>
				<path class="st2" d="M23.8,11l-6.5,5.4L10.8,11H23.8z M9,10.2c-0.1,0.2,0,0.7,0.2,0.9l7.3,6.3v8h-3.1c-0.3,0-0.6,0.3-0.6,0.6
					c0,0.3,0.3,0.6,0.6,0.6h7.8c0.3,0,0.6-0.3,0.6-0.6c0-0.3-0.3-0.6-0.6-0.6h-3.1l-0.1-8l7.3-6.3c0.2-0.2,0.3-0.6,0.2-0.9
					C25.5,10,25.3,9.8,25,9.8h-4.2l1.1-1.1c0.2-0.2,0.2-0.6,0-0.8c0,0,0,0,0,0c-0.2-0.2-0.6-0.2-0.8,0l-1.8,1.8c0,0-0.1,0.1-0.1,0.1
					H9.5C9.3,9.8,9.1,10,9,10.2z"/>
				<path class="st3" d="M23.8,11l-6.5,5.4L10.8,11H23.8z M9,10.2c-0.1,0.2,0,0.7,0.2,0.9l7.3,6.3v8h-3.1c-0.3,0-0.6,0.3-0.6,0.6
					c0,0.3,0.3,0.6,0.6,0.6h7.8c0.3,0,0.6-0.3,0.6-0.6c0-0.3-0.3-0.6-0.6-0.6h-3.1l-0.1-8l7.3-6.3c0.2-0.2,0.3-0.6,0.2-0.9
					C25.5,10,25.3,9.8,25,9.8h-4.2l1.1-1.1c0.2-0.2,0.2-0.6,0-0.8c0,0,0,0,0,0c-0.2-0.2-0.6-0.2-0.8,0l-1.8,1.8c0,0-0.1,0.1-0.1,0.1
					H9.5C9.3,9.8,9.1,10,9,10.2z"/>
			</g>
			<g>
				<path class="st4" d="M23.2,11.3l-5.9,4.9l-5.9-4.9H23.2z M9.3,10.6c-0.1,0.2,0,0.5,0.2,0.6l7.2,6V25h-3.1
					c-0.3,0-0.6,0.2-0.6,0.6c0,0,0,0,0,0c0,0.3,0.3,0.6,0.6,0.6H21c0.3,0,0.6-0.3,0.6-0.6c0-0.3-0.3-0.6-0.6-0.6h-3.1v-7.9l7.2-6
					c0.2-0.2,0.3-0.4,0.2-0.6c-0.1-0.2-0.3-0.4-0.5-0.4h-4.1l1-1c0.2-0.2,0.2-0.6,0-0.8c0,0,0,0,0,0c-0.2-0.2-0.6-0.2-0.8,0
					l-1.7,1.7c0,0-0.1,0.1-0.1,0.1H9.8C9.6,10.2,9.4,10.3,9.3,10.6L9.3,10.6z"/>
				<path class="st5" d="M23.2,11.3l-5.9,4.9l-5.9-4.9H23.2z M9.3,10.6c-0.1,0.2,0,0.5,0.2,0.6l7.2,6V25h-3.1
					c-0.3,0-0.6,0.2-0.6,0.6c0,0,0,0,0,0c0,0.3,0.3,0.6,0.6,0.6H21c0.3,0,0.6-0.3,0.6-0.6c0-0.3-0.3-0.6-0.6-0.6h-3.1v-7.9l7.2-6
					c0.2-0.2,0.3-0.4,0.2-0.6c-0.1-0.2-0.3-0.4-0.5-0.4h-4.1l1-1c0.2-0.2,0.2-0.6,0-0.8c0,0,0,0,0,0c-0.2-0.2-0.6-0.2-0.8,0
					l-1.7,1.7c0,0-0.1,0.1-0.1,0.1H9.8C9.6,10.2,9.4,10.3,9.3,10.6L9.3,10.6z"/>
			</g>
		</g>
	</g>
</g>
</svg>
