<?xml version="1.0" encoding="utf-8"?>
<!-- Generator: Adobe Illustrator 24.1.2, SVG Export Plug-In . SVG Version: 6.00 Build 0)  -->
<svg version="1.1" id="Layer_1" xmlns="http://www.w3.org/2000/svg" xmlns:xlink="http://www.w3.org/1999/xlink" x="0px" y="0px"
	 viewBox="0 0 34.4 34.4" style="enable-background:new 0 0 34.4 34.4;" xml:space="preserve">
<style type="text/css">
	.st0{fill:#FFFFFF;}
	.st1{fill:none;stroke:#0E294A;stroke-width:1.57;stroke-miterlimit:20;}
	.st2{fill:#F26522;}
	.st3{fill:#0E294A;}
</style>
<g>
	<g>
		<g>
			<g>
				<path class="st0" d="M0.8,17.2c0-9.1,7.3-16.4,16.4-16.4s16.4,7.3,16.4,16.4s-7.3,16.4-16.4,16.4S0.8,26.2,0.8,17.2z"/>
				<path class="st1" d="M0.8,17.2c0-9.1,7.3-16.4,16.4-16.4s16.4,7.3,16.4,16.4s-7.3,16.4-16.4,16.4S0.8,26.2,0.8,17.2z"/>
			</g>
			<g>
				<g>
					<path class="st2" d="M9.7,18.4H8.5v-8.1C9.2,11.1,10.3,13.2,9.7,18.4z M9.3,24.4c-0.2,0.2-0.6,0.3-0.9,0c0,0,0,0,0,0
						c-0.1-0.1-0.2-0.3-0.2-0.4L8.5,19h0.7L9.5,24C9.5,24.1,9.4,24.3,9.3,24.4z M8.4,9.3c-0.1-0.1-0.2-0.1-0.3,0
						C8,9.4,7.9,9.5,7.9,9.6v9.1l-0.3,5.2c0,0.3,0.1,0.7,0.3,0.9c0.2,0.3,0.5,0.4,0.9,0.4c0.3,0,0.7-0.1,0.9-0.4
						c0.2-0.3,0.3-0.6,0.3-0.9L9.8,19H10c0.2,0,0.3-0.1,0.3-0.3C11.2,10.9,8.5,9.4,8.4,9.3z M26.6,14c0,0.1,0,0.1-0.1,0.2l-0.6,0.7
						c-0.2,0.2-0.2,0.4-0.2,0.6l0.3,8.3c0,0.2-0.1,0.4-0.2,0.5c-0.3,0.3-0.7,0.3-0.9,0c-0.1-0.1-0.2-0.3-0.2-0.5l0.3-8.3
						c0-0.2-0.1-0.4-0.2-0.6l-0.6-0.7c0-0.1-0.1-0.1-0.1-0.2v-0.6h2.4L26.6,14L26.6,14z M27.2,13.1l-0.1-3.5c0-0.2-0.1-0.3-0.3-0.3
						c-0.2,0-0.3,0.1-0.3,0.3l0.1,3.3h-0.4V9.5c0-0.2-0.2-0.3-0.3-0.3c-0.2,0-0.3,0.1-0.3,0.3l0,3.3h-0.4l0-3.3
						c0-0.2-0.1-0.3-0.3-0.3c-0.2,0-0.3,0.1-0.3,0.3l0,3.3h-0.4l0.1-3.2c0-0.2-0.1-0.3-0.3-0.3c-0.2,0-0.3,0.1-0.3,0.3l0,3.5V14
						c0,0.2,0.1,0.4,0.2,0.6l0.6,0.7c0,0.1,0.1,0.1,0.1,0.2l-0.3,8.3c0,0.3,0.1,0.7,0.4,1c0.2,0.3,0.5,0.4,0.9,0.4
						c0.3,0,0.7-0.1,0.9-0.4c0.3-0.3,0.4-0.6,0.4-1l-0.3-8.3c0-0.1,0-0.1,0.1-0.2l0.6-0.7c0.1-0.2,0.2-0.4,0.2-0.6
						C27.2,14,27.2,13.1,27.2,13.1z M17.1,23c-3.2,0-5.9-2.6-5.9-5.9c0,0,0,0,0,0c0-3.2,2.6-5.9,5.9-5.9c0,0,0,0,0,0
						c3.2,0,5.9,2.6,5.9,5.9c0,0,0,0,0,0C23,20.4,20.4,23,17.1,23C17.1,23,17.1,23,17.1,23z M17.1,10.6c-3.6,0-6.5,2.9-6.5,6.5
						c0,3.6,2.9,6.5,6.5,6.5c3.6,0,6.5-2.9,6.5-6.5C23.7,13.5,20.7,10.6,17.1,10.6z"/>
				</g>
			</g>
			<g>
				<g>
					<path class="st3" d="M17.1,21c-2.1,0-3.9-1.7-3.9-3.9c0,0,0,0,0,0c0-2.1,1.7-3.9,3.9-3.9c2.1,0,3.9,1.7,3.9,3.9c0,0,0,0,0,0
						C21,19.3,19.3,21,17.1,21C17.1,21,17.1,21,17.1,21L17.1,21z M17.1,12.7c-2.5,0-4.5,2-4.5,4.5c0,2.5,2,4.5,4.5,4.5
						c2.5,0,4.5-2,4.5-4.5C21.6,14.7,19.6,12.7,17.1,12.7z"/>
				</g>
				<g>
					<path class="st3" d="M9.5,18.3H8.4v-7.8C9,11.3,10,13.3,9.5,18.3z M9.1,24c-0.2,0.2-0.6,0.2-0.8,0c0,0,0,0,0,0
						c-0.1-0.1-0.2-0.3-0.2-0.4l0.3-4.7H9l0.3,4.7C9.2,23.8,9.2,23.9,9.1,24L9.1,24z M8.2,9.6C8.1,9.5,8,9.5,7.9,9.6
						C7.8,9.7,7.8,9.8,7.8,9.8v8.7l-0.3,5c0,0.3,0.1,0.6,0.3,0.9c0.2,0.2,0.5,0.4,0.8,0.4c0.3,0,0.6-0.1,0.8-0.4
						c0.2-0.2,0.3-0.6,0.3-0.9l-0.3-4.7h0.2c0.2,0,0.3-0.1,0.3-0.3C10.9,11.1,8.3,9.6,8.2,9.6z M26.3,14.2c0,0.1,0,0.1-0.1,0.2
						L25.7,15c-0.2,0.2-0.2,0.4-0.2,0.6l0.3,8c0,0.2-0.1,0.4-0.2,0.5c-0.2,0.2-0.6,0.2-0.9,0c-0.1-0.1-0.2-0.3-0.2-0.5l0.3-8
						c0-0.2-0.1-0.4-0.2-0.6L24,14.3c0-0.1-0.1-0.1-0.1-0.2v-0.6h2.3L26.3,14.2z M26.9,13.2l-0.1-3.4c0-0.2-0.1-0.3-0.3-0.3
						c-0.2,0-0.3,0.1-0.3,0.3l0.1,3.1h-0.4V9.8c0-0.2-0.2-0.3-0.3-0.3c-0.1,0-0.3,0.1-0.3,0.3l0,3.1h-0.4l0-3.1
						c0-0.2-0.2-0.3-0.3-0.3c-0.1,0-0.3,0.1-0.3,0.3l0,3.1H24L24,9.9c0-0.2-0.2-0.3-0.3-0.3c-0.1,0-0.3,0.1-0.3,0.3l0,3.4v0.9
						c0,0.2,0.1,0.4,0.2,0.5l0.5,0.6c0,0.1,0.1,0.1,0.1,0.2l-0.3,8c0,0.3,0.1,0.7,0.4,0.9c0.2,0.2,0.5,0.4,0.9,0.4
						c0.3,0,0.6-0.1,0.8-0.4c0.2-0.2,0.4-0.6,0.4-0.9l-0.3-8c0-0.1,0-0.1,0.1-0.2l0.5-0.6c0.1-0.2,0.2-0.3,0.2-0.5L26.9,13.2
						L26.9,13.2z M17.1,22.8c-3.1,0-5.6-2.5-5.6-5.6c0,0,0,0,0,0c0-3.1,2.5-5.6,5.6-5.6c0,0,0,0,0,0c3.1,0,5.6,2.5,5.6,5.6
						c0,0,0,0,0,0C22.8,20.2,20.3,22.8,17.1,22.8C17.1,22.8,17.1,22.8,17.1,22.8L17.1,22.8z M17.1,10.9c-3.4,0-6.2,2.8-6.2,6.2
						c0,3.4,2.8,6.2,6.2,6.2c3.4,0,6.2-2.8,6.2-6.2C23.4,13.7,20.6,10.9,17.1,10.9z"/>
				</g>
			</g>
		</g>
	</g>
</g>
</svg>
