<?xml version="1.0" encoding="utf-8"?>
<!-- Generator: Adobe Illustrator 24.1.2, SVG Export Plug-In . SVG Version: 6.00 Build 0)  -->
<svg version="1.1" id="Layer_1" xmlns="http://www.w3.org/2000/svg" xmlns:xlink="http://www.w3.org/1999/xlink" x="0px" y="0px"
	 viewBox="0 0 34.4 34.4" style="enable-background:new 0 0 34.4 34.4;" xml:space="preserve">
<style type="text/css">
	.st0{fill:#FFFFFF;}
	.st1{fill:none;stroke:#0E294A;stroke-width:1.57;stroke-miterlimit:20;}
	.st2{fill:#F26522;}
	.st3{fill:none;stroke:#F26522;stroke-width:0.3;stroke-miterlimit:20;}
	.st4{fill:#0E294A;}
	.st5{fill:none;stroke:#0E294A;stroke-width:0.3;stroke-miterlimit:20;}
</style>
<g>
	<g>
		<g>
			<g>
				<path class="st0" d="M0.8,17.2c0-9.1,7.3-16.4,16.4-16.4s16.4,7.3,16.4,16.4s-7.3,16.4-16.4,16.4S0.8,26.2,0.8,17.2z"/>
				<path class="st1" d="M0.8,17.2c0-9.1,7.3-16.4,16.4-16.4s16.4,7.3,16.4,16.4s-7.3,16.4-16.4,16.4S0.8,26.2,0.8,17.2z"/>
			</g>
			<g>
				<path class="st2" d="M17.2,9.4c5.5,0,10.1,4.2,10.6,9.7c-0.1-0.1-0.2,6.5-0.5,6.2C27,25,7.6,25,7.3,25.3
					c-0.3,0.4-0.6-6.3-0.7-6.2C7.1,13.6,11.7,9.4,17.2,9.4z M17.2,8.7C10.9,8.7,5.9,13.8,5.9,20v5.3c0,0.2,0.2,0.4,0.4,0.4h21.9
					c0.2,0,0.4-0.2,0.4-0.4c0,0,0,0,0,0V20C28.5,13.8,23.4,8.7,17.2,8.7L17.2,8.7z"/>
				<path class="st3" d="M17.2,9.4c5.5,0,10.1,4.2,10.6,9.7c-0.1-0.1-0.2,6.5-0.5,6.2C27,25,7.6,25,7.3,25.3
					c-0.3,0.4-0.6-6.3-0.7-6.2C7.1,13.6,11.7,9.4,17.2,9.4z M17.2,8.7C10.9,8.7,5.9,13.8,5.9,20v5.3c0,0.2,0.2,0.4,0.4,0.4h21.9
					c0.2,0,0.4-0.2,0.4-0.4c0,0,0,0,0,0V20C28.5,13.8,23.4,8.7,17.2,8.7L17.2,8.7z"/>
			</g>
			<g>
				<path class="st4" d="M7.5,24.5c1.1-5.4,6.3-8.8,11.7-7.7c3.9,0.8,6.9,3.8,7.7,7.7H7.5z M17.2,15.2c3.7,0,7.2,2.1,8.9,5.4
					c-3.2-4.9-9.8-6.3-14.7-3c-1.2,0.8-2.2,1.8-3,3C10,17.3,13.4,15.2,17.2,15.2L17.2,15.2z M26.8,20.7
					C26.8,20.7,26.8,20.7,26.8,20.7c-0.2-0.4-0.4-0.8-0.7-1.3c0.1,0.1,0.1,0.1,0.2,0.1l0.1,0c0.4,0,0.7,0.3,0.7,0.7
					C27.1,20.4,27,20.6,26.8,20.7z M8.4,18.9c-0.2-0.3-0.1-0.7,0.2-0.9c0.1-0.1,0.3-0.1,0.5-0.1c0.1,0,0.2,0,0.3-0.1
					c0.1-0.1,0.2-0.2,0.2-0.3c0.1-0.1,0.1-0.2,0.1-0.3c-0.1-0.3,0-0.7,0.4-0.9c0.2-0.1,0.3-0.1,0.5,0c0.1,0,0.3,0,0.4-0.1
					c0.1-0.1,0.2-0.2,0.1-0.4c-0.1-0.3,0-0.7,0.4-0.9c0.2-0.1,0.5,0,0.7,0.1c0.1,0.1,0.4,0.1,0.5,0c0.1-0.1,0.1-0.2,0.1-0.3
					c-0.1-0.4,0.1-0.7,0.5-0.8c0.3-0.1,0.6,0,0.7,0.3c0.1,0.1,0.2,0.2,0.4,0.1l0.2-0.1c0.1,0,0.2-0.2,0.2-0.3l0,0l0,0
					c0-0.4,0.3-0.7,0.7-0.7c0.3,0,0.5,0.2,0.6,0.5c0.1,0.2,0.3,0.3,0.4,0.2c0.2-0.1,0.3-0.2,0.2-0.4c0-0.4,0.3-0.7,0.7-0.7
					s0.7,0.3,0.7,0.7l0,0l0,0.1c0,0.2,0.1,0.3,0.3,0.3c0.2,0,0.3-0.1,0.4-0.2c0.1-0.3,0.5-0.6,0.8-0.4c0.3,0.1,0.5,0.3,0.5,0.6
					c0,0,0,0,0,0l0,0c0,0.2,0.1,0.3,0.2,0.3l0.2,0.1c0.1,0,0.3,0,0.4-0.1c0.2-0.3,0.6-0.4,0.9-0.2c0.2,0.1,0.3,0.3,0.3,0.6
					c0,0.1,0,0.1,0,0.2c0,0.1,0,0.3,0.2,0.4c0.1,0.1,0.3,0.1,0.4,0c0.3-0.3,0.7-0.2,0.9,0c0.2,0.2,0.2,0.5,0.1,0.7
					c0,0.1,0,0.3,0.1,0.4l0,0c0.1,0.1,0.2,0.1,0.4,0.1c0.3-0.1,0.7,0,0.9,0.4c0.1,0.2,0.1,0.3,0,0.5c0,0.1,0,0.2,0.1,0.3
					c0.1,0.1,0.2,0.2,0.2,0.3c0.1,0.1,0.2,0.1,0.3,0.1c0.4-0.1,0.7,0.2,0.8,0.5c0,0.2,0,0.3-0.1,0.5c-0.1,0.1-0.1,0.2,0,0.3l0,0
					c-3.3-4.9-9.9-6.1-14.7-2.8c-1.1,0.8-2.1,1.7-2.8,2.8v0C8.5,19.1,8.4,19,8.4,18.9L8.4,18.9z M8,19.5L8,19.5L8,19.5
					c0.1,0,0.2,0,0.3-0.1c-0.3,0.4-0.5,0.8-0.7,1.3c0,0,0,0,0,0c-0.2-0.1-0.3-0.3-0.3-0.5C7.3,19.8,7.6,19.5,8,19.5
					C8,19.5,8,19.5,8,19.5z M17.2,9.9c5.1,0,9.4,3.9,9.9,9.1c-0.1-0.1-0.2-0.1-0.3-0.1c0.2-0.7-0.2-1.4-0.9-1.6c-0.1,0-0.2,0-0.4,0
					h0l0,0c0.2-0.7-0.3-1.4-1-1.6c-0.1,0-0.2,0-0.3,0c0-0.7-0.6-1.3-1.3-1.3c-0.1,0-0.2,0-0.4,0.1c-0.2-0.7-0.9-1.2-1.6-1
					c-0.2,0-0.3,0.1-0.4,0.2c-0.2-0.7-1-1.1-1.7-0.8c-0.1,0.1-0.3,0.1-0.4,0.2c-0.4-0.6-1.2-0.8-1.8-0.4c-0.2,0.1-0.3,0.3-0.4,0.4
					c-0.6-0.5-1.4-0.4-1.9,0.2c-0.1,0.1-0.2,0.3-0.2,0.4c-0.6-0.4-1.4-0.2-1.8,0.4C12,14,12,14.1,11.9,14.3
					c-0.7-0.2-1.4,0.2-1.6,0.9c0,0.1,0,0.2,0,0.4c-0.7,0-1.3,0.6-1.3,1.3c0,0.1,0,0.2,0,0.3l0,0c-0.7,0-1.3,0.6-1.3,1.3
					c0,0.1,0,0.2,0,0.4c-0.1,0-0.2,0.1-0.3,0.1C7.8,13.9,12,9.9,17.2,9.9L17.2,9.9z M17.2,9.3C11.4,9.3,6.6,14,6.6,19.8v5
					c0,0.2,0.1,0.3,0.3,0.3h20.5c0.2,0,0.3-0.1,0.3-0.3v-5C27.7,14,23,9.3,17.2,9.3L17.2,9.3z"/>
				<path class="st5" d="M7.5,24.5c1.1-5.4,6.3-8.8,11.7-7.7c3.9,0.8,6.9,3.8,7.7,7.7H7.5z M17.2,15.2c3.7,0,7.2,2.1,8.9,5.4
					c-3.2-4.9-9.8-6.3-14.7-3c-1.2,0.8-2.2,1.8-3,3C10,17.3,13.4,15.2,17.2,15.2L17.2,15.2z M26.8,20.7
					C26.8,20.7,26.8,20.7,26.8,20.7c-0.2-0.4-0.4-0.8-0.7-1.3c0.1,0.1,0.1,0.1,0.2,0.1l0.1,0c0.4,0,0.7,0.3,0.7,0.7
					C27.1,20.4,27,20.6,26.8,20.7z M8.4,18.9c-0.2-0.3-0.1-0.7,0.2-0.9c0.1-0.1,0.3-0.1,0.5-0.1c0.1,0,0.2,0,0.3-0.1
					c0.1-0.1,0.2-0.2,0.2-0.3c0.1-0.1,0.1-0.2,0.1-0.3c-0.1-0.3,0-0.7,0.4-0.9c0.2-0.1,0.3-0.1,0.5,0c0.1,0,0.3,0,0.4-0.1
					c0.1-0.1,0.2-0.2,0.1-0.4c-0.1-0.3,0-0.7,0.4-0.9c0.2-0.1,0.5,0,0.7,0.1c0.1,0.1,0.4,0.1,0.5,0c0.1-0.1,0.1-0.2,0.1-0.3
					c-0.1-0.4,0.1-0.7,0.5-0.8c0.3-0.1,0.6,0,0.7,0.3c0.1,0.1,0.2,0.2,0.4,0.1l0.2-0.1c0.1,0,0.2-0.2,0.2-0.3l0,0l0,0
					c0-0.4,0.3-0.7,0.7-0.7c0.3,0,0.5,0.2,0.6,0.5c0.1,0.2,0.3,0.3,0.4,0.2c0.2-0.1,0.3-0.2,0.2-0.4c0-0.4,0.3-0.7,0.7-0.7
					s0.7,0.3,0.7,0.7l0,0l0,0.1c0,0.2,0.1,0.3,0.3,0.3c0.2,0,0.3-0.1,0.4-0.2c0.1-0.3,0.5-0.6,0.8-0.4c0.3,0.1,0.5,0.3,0.5,0.6
					c0,0,0,0,0,0l0,0c0,0.2,0.1,0.3,0.2,0.3l0.2,0.1c0.1,0,0.3,0,0.4-0.1c0.2-0.3,0.6-0.4,0.9-0.2c0.2,0.1,0.3,0.3,0.3,0.6
					c0,0.1,0,0.1,0,0.2c0,0.1,0,0.3,0.2,0.4c0.1,0.1,0.3,0.1,0.4,0c0.3-0.3,0.7-0.2,0.9,0c0.2,0.2,0.2,0.5,0.1,0.7
					c0,0.1,0,0.3,0.1,0.4l0,0c0.1,0.1,0.2,0.1,0.4,0.1c0.3-0.1,0.7,0,0.9,0.4c0.1,0.2,0.1,0.3,0,0.5c0,0.1,0,0.2,0.1,0.3
					c0.1,0.1,0.2,0.2,0.2,0.3c0.1,0.1,0.2,0.1,0.3,0.1c0.4-0.1,0.7,0.2,0.8,0.5c0,0.2,0,0.3-0.1,0.5c-0.1,0.1-0.1,0.2,0,0.3l0,0
					c-3.3-4.9-9.9-6.1-14.7-2.8c-1.1,0.8-2.1,1.7-2.8,2.8v0C8.5,19.1,8.4,19,8.4,18.9L8.4,18.9z M8,19.5L8,19.5L8,19.5
					c0.1,0,0.2,0,0.3-0.1c-0.3,0.4-0.5,0.8-0.7,1.3c0,0,0,0,0,0c-0.2-0.1-0.3-0.3-0.3-0.5C7.3,19.8,7.6,19.5,8,19.5
					C8,19.5,8,19.5,8,19.5z M17.2,9.9c5.1,0,9.4,3.9,9.9,9.1c-0.1-0.1-0.2-0.1-0.3-0.1c0.2-0.7-0.2-1.4-0.9-1.6c-0.1,0-0.2,0-0.4,0
					h0l0,0c0.2-0.7-0.3-1.4-1-1.6c-0.1,0-0.2,0-0.3,0c0-0.7-0.6-1.3-1.3-1.3c-0.1,0-0.2,0-0.4,0.1c-0.2-0.7-0.9-1.2-1.6-1
					c-0.2,0-0.3,0.1-0.4,0.2c-0.2-0.7-1-1.1-1.7-0.8c-0.1,0.1-0.3,0.1-0.4,0.2c-0.4-0.6-1.2-0.8-1.8-0.4c-0.2,0.1-0.3,0.3-0.4,0.4
					c-0.6-0.5-1.4-0.4-1.9,0.2c-0.1,0.1-0.2,0.3-0.2,0.4c-0.6-0.4-1.4-0.2-1.8,0.4C12,14,12,14.1,11.9,14.3
					c-0.7-0.2-1.4,0.2-1.6,0.9c0,0.1,0,0.2,0,0.4c-0.7,0-1.3,0.6-1.3,1.3c0,0.1,0,0.2,0,0.3l0,0c-0.7,0-1.3,0.6-1.3,1.3
					c0,0.1,0,0.2,0,0.4c-0.1,0-0.2,0.1-0.3,0.1C7.8,13.9,12,9.9,17.2,9.9L17.2,9.9z M17.2,9.3C11.4,9.3,6.6,14,6.6,19.8v5
					c0,0.2,0.1,0.3,0.3,0.3h20.5c0.2,0,0.3-0.1,0.3-0.3v-5C27.7,14,23,9.3,17.2,9.3L17.2,9.3z"/>
			</g>
		</g>
	</g>
</g>
</svg>
