<?xml version="1.0" encoding="utf-8"?>
<!-- Generator: Adobe Illustrator 24.1.2, SVG Export Plug-In . SVG Version: 6.00 Build 0)  -->
<svg version="1.1" id="Layer_1" xmlns="http://www.w3.org/2000/svg" xmlns:xlink="http://www.w3.org/1999/xlink" x="0px" y="0px"
	 viewBox="0 0 34.4 34.4" style="enable-background:new 0 0 34.4 34.4;" xml:space="preserve">
<style type="text/css">
	.st0{fill:#FFFFFF;}
	.st1{fill:none;stroke:#0E294A;stroke-width:1.57;stroke-miterlimit:20;}
	.st2{fill:none;stroke:#F26522;stroke-width:1.4;stroke-linecap:round;stroke-linejoin:round;stroke-miterlimit:20;}
	.st3{fill:none;stroke:#0E294A;stroke-width:1.4;stroke-linecap:round;stroke-linejoin:round;stroke-miterlimit:20;}
</style>
<g>
	<g>
		<g>
			<path class="st0" d="M0.8,17.2c0-9.1,7.3-16.4,16.4-16.4s16.4,7.3,16.4,16.4s-7.3,16.4-16.4,16.4S0.8,26.2,0.8,17.2z"/>
			<path class="st1" d="M0.8,17.2c0-9.1,7.3-16.4,16.4-16.4s16.4,7.3,16.4,16.4s-7.3,16.4-16.4,16.4S0.8,26.2,0.8,17.2z"/>
		</g>
		<g>
			<g>
				<path class="st2" d="M9.4,13.7c-1.1-1.3-1.4-3-0.8-4.5l0,0C8.7,8.9,9,8.7,9.4,8.8l0,0c2.3,0.5,3.9,2.6,3.8,5L9.4,13.7z
					 M12.3,10.7c0.9-1.3,2.8-1.6,4.1-0.7c0.3,0.2,0.5,0.5,0.7,0.8"/>
			</g>
			<g>
				<path class="st2" d="M7.5,13.7h19.4c0.4,0,0.7,0.3,0.7,0.7v2.3H6.9v-2.3C6.9,14,7.1,13.7,7.5,13.7z M20.3,25.6H14
					c-0.9,0-1.8-0.2-2.6-0.7c-2.8-1.8-4.5-4.8-4.6-8.2h20.7c-0.1,3.3-1.8,6.4-4.6,8.2C22.1,25.4,21.2,25.6,20.3,25.6L20.3,25.6z
					 M25,11.4c-0.6-0.6-1.5-0.8-2.4-0.6c-0.6-1.2-2.1-1.6-3.3-1c-0.4,0.2-0.8,0.6-1,1c-1.3-0.4-2.6,0.4-3,1.6
					c-0.1,0.4-0.1,0.9,0,1.3h10.3C25.9,12.9,25.6,12,25,11.4z"/>
			</g>
		</g>
		<g>
			<g>
				<path class="st3" d="M10.1,14c-1-1.2-1.3-2.7-0.8-4.1l0,0C9.5,9.6,9.7,9.4,10,9.5l0,0c2.1,0.4,3.6,2.4,3.4,4.5H10.1z M12.7,11.3
					c0.9-1.2,2.5-1.5,3.7-0.6c0.3,0.2,0.5,0.4,0.7,0.7"/>
			</g>
			<g>
				<path class="st3" d="M11.3,12.5l0.9,1.5"/>
			</g>
			<g>
				<path class="st3" d="M8.4,14H26c0.3,0,0.6,0.3,0.6,0.6v2.1h0c0,3-1.6,5.8-4.2,7.5c-0.7,0.4-1.5,0.7-2.4,0.7h-5.8
					c-0.8,0-1.6-0.2-2.4-0.7c-2.6-1.6-4.1-4.4-4.2-7.5v-2.1C7.8,14.3,8,14,8.4,14z M24.3,11.9c-0.6-0.5-1.4-0.7-2.2-0.5
					c-0.6-1.1-1.9-1.5-3-0.9c-0.4,0.2-0.7,0.5-0.9,0.9c-1.2-0.3-2.4,0.3-2.7,1.5c-0.1,0.4-0.1,0.8,0,1.2h9.4
					C25.1,13.3,24.9,12.4,24.3,11.9z"/>
			</g>
		</g>
	</g>
</g>
</svg>
