<?xml version="1.0" encoding="utf-8"?>
<!-- Generator: Adobe Illustrator 24.1.2, SVG Export Plug-In . SVG Version: 6.00 Build 0)  -->
<svg version="1.1" id="Layer_1" xmlns="http://www.w3.org/2000/svg" xmlns:xlink="http://www.w3.org/1999/xlink" x="0px" y="0px"
	 viewBox="0 0 34.4 34.4" style="enable-background:new 0 0 34.4 34.4;" xml:space="preserve">
<style type="text/css">
	.st0{fill:#FFFFFF;}
	.st1{fill:none;stroke:#0E294A;stroke-width:1.57;stroke-miterlimit:20;}
	.st2{fill:#F26522;}
	.st3{fill:none;stroke:#F26522;stroke-width:0.2;stroke-miterlimit:20;}
	.st4{fill:#0E294A;}
	.st5{fill:none;stroke:#0E294A;stroke-width:0.2;stroke-miterlimit:20;}
</style>
<g>
	<g>
		<g>
			<g>
				<path class="st0" d="M0.8,17.2c0-9.1,7.3-16.4,16.4-16.4s16.4,7.3,16.4,16.4s-7.3,16.4-16.4,16.4S0.8,26.2,0.8,17.2z"/>
				<path class="st1" d="M0.8,17.2c0-9.1,7.3-16.4,16.4-16.4s16.4,7.3,16.4,16.4s-7.3,16.4-16.4,16.4S0.8,26.2,0.8,17.2z"/>
			</g>
			<g>
				<path class="st2" d="M23.7,19.5c-0.3,0.2-0.7,0.3-1.1,0.3H11.8c-0.4,0-0.7-0.1-1.1-0.3c-1.1-0.6-1.5-1.9-0.9-3
					c0.4-0.7,1.2-1.2,2-1.2h0.1c0.2,0,0.5-0.2,0.5-0.5c0,0,0,0,0,0c-0.1-1.7,1.2-3.1,2.8-3.2c0,0,0.1,0,0.1,0c0.5,1,1.7,1.5,2.7,1
					c0.5-0.2,0.8-0.6,1-1c1.7,0,3,1.4,3,3.1c0,0,0,0.1,0,0.1c0,0.2,0.2,0.5,0.4,0.5c0,0,0,0,0,0h0.1c1.2,0,2.2,1,2.2,2.2
					C24.9,18.4,24.4,19.1,23.7,19.5z M21.9,27.5c0,0.2-0.2,0.4-0.4,0.4h-8.5c-0.2,0-0.4-0.2-0.4-0.4l-1.4-6.9c0.2,0,0.4,0.1,0.7,0.1
					h10.9c0.2,0,0.4,0,0.7-0.1L21.9,27.5z M17.2,9.6L17.2,9.6c0.7,0,1.2,0.5,1.2,1.2c0,0.7-0.5,1.2-1.2,1.2c-0.7,0-1.2-0.5-1.2-1.2
					C16,10.1,16.5,9.6,17.2,9.6z M24.8,15.3c-0.5-0.5-1.2-0.8-1.9-0.9c-0.1-2-1.7-3.6-3.7-3.7c0-1-0.7-1.8-1.7-2
					c0-0.4,0-1.1,0.5-1.6c0.3-0.3,0.7-0.5,1.1-0.6c0.2-0.1,0.4-0.3,0.3-0.5c-0.1-0.2-0.3-0.4-0.5-0.3c-0.6,0.1-1.1,0.4-1.5,0.8
					c-0.7,0.8-0.8,1.7-0.8,2.3c-0.9,0.2-1.6,1.1-1.6,2c-2,0.1-3.6,1.7-3.7,3.7c-1.7,0.2-3,1.7-2.8,3.4c0.1,1,0.6,1.8,1.5,2.4
					l1.5,7.5c0.1,0.6,0.7,1.1,1.3,1.1h8.5c0.6,0,1.2-0.5,1.3-1.1l1.5-7.5c1.5-0.9,1.9-2.9,1-4.3C25.2,15.7,25,15.5,24.8,15.3
					L24.8,15.3z"/>
				<path class="st3" d="M23.7,19.5c-0.3,0.2-0.7,0.3-1.1,0.3H11.8c-0.4,0-0.7-0.1-1.1-0.3c-1.1-0.6-1.5-1.9-0.9-3
					c0.4-0.7,1.2-1.2,2-1.2h0.1c0.2,0,0.5-0.2,0.5-0.5c0,0,0,0,0,0c-0.1-1.7,1.2-3.1,2.8-3.2c0,0,0.1,0,0.1,0c0.5,1,1.7,1.5,2.7,1
					c0.5-0.2,0.8-0.6,1-1c1.7,0,3,1.4,3,3.1c0,0,0,0.1,0,0.1c0,0.2,0.2,0.5,0.4,0.5c0,0,0,0,0,0h0.1c1.2,0,2.2,1,2.2,2.2
					C24.9,18.4,24.4,19.1,23.7,19.5z M21.9,27.5c0,0.2-0.2,0.4-0.4,0.4h-8.5c-0.2,0-0.4-0.2-0.4-0.4l-1.4-6.9c0.2,0,0.4,0.1,0.7,0.1
					h10.9c0.2,0,0.4,0,0.7-0.1L21.9,27.5z M17.2,9.6L17.2,9.6c0.7,0,1.2,0.5,1.2,1.2c0,0.7-0.5,1.2-1.2,1.2c-0.7,0-1.2-0.5-1.2-1.2
					C16,10.1,16.5,9.6,17.2,9.6z M24.8,15.3c-0.5-0.5-1.2-0.8-1.9-0.9c-0.1-2-1.7-3.6-3.7-3.7c0-1-0.7-1.8-1.7-2
					c0-0.4,0-1.1,0.5-1.6c0.3-0.3,0.7-0.5,1.1-0.6c0.2-0.1,0.4-0.3,0.3-0.5c-0.1-0.2-0.3-0.4-0.5-0.3c-0.6,0.1-1.1,0.4-1.5,0.8
					c-0.7,0.8-0.8,1.7-0.8,2.3c-0.9,0.2-1.6,1.1-1.6,2c-2,0.1-3.6,1.7-3.7,3.7c-1.7,0.2-3,1.7-2.8,3.4c0.1,1,0.6,1.8,1.5,2.4
					l1.5,7.5c0.1,0.6,0.7,1.1,1.3,1.1h8.5c0.6,0,1.2-0.5,1.3-1.1l1.5-7.5c1.5-0.9,1.9-2.9,1-4.3C25.2,15.7,25,15.5,24.8,15.3
					L24.8,15.3z"/>
			</g>
			<g>
				<path class="st4" d="M14.2,22.2c-0.1-0.2-0.3-0.4-0.5-0.3c-0.2,0.1-0.4,0.3-0.3,0.5l0,0l0.8,3.3c0,0.2,0.3,0.4,0.5,0.3
					c0.2,0,0.4-0.3,0.3-0.5c0,0,0,0,0,0L14.2,22.2z M17.2,21.9c-0.2,0-0.4,0.2-0.4,0.4c0,0,0,0,0,0v3.3c0,0.2,0.2,0.4,0.4,0.4
					c0.2,0,0.4-0.2,0.4-0.4v-3.3C17.6,22.1,17.4,21.9,17.2,21.9L17.2,21.9z M15.6,15.1c0.2,0,0.4-0.2,0.4-0.4c0-0.2-0.1-0.4-0.3-0.4
					l-1.2-0.4c-0.2-0.1-0.5,0.1-0.5,0.3s0.1,0.5,0.3,0.5l1.2,0.4C15.5,15.1,15.5,15.1,15.6,15.1z M19.7,13.7
					c-0.1-0.2-0.3-0.3-0.5-0.3c0,0,0,0,0,0L18,13.9c-0.2,0.1-0.3,0.3-0.3,0.5s0.3,0.3,0.5,0.3l1.2-0.4C19.7,14.2,19.8,14,19.7,13.7
					C19.7,13.7,19.7,13.7,19.7,13.7L19.7,13.7z M13.2,16.7c-0.2-0.1-0.5-0.1-0.6,0.1l-0.7,1c-0.1,0.2-0.1,0.5,0.1,0.6
					c0.2,0.1,0.4,0.1,0.6-0.1l0.7-1C13.4,17.1,13.4,16.8,13.2,16.7C13.2,16.7,13.2,16.7,13.2,16.7z M16.9,17.8l-1-0.8
					c-0.2-0.2-0.4-0.1-0.6,0c-0.2,0.2-0.1,0.4,0,0.6l0,0l1,0.8c0.2,0.1,0.5,0.1,0.6-0.1C17,18.2,17,18,16.9,17.8z M20.7,21.9
					c-0.2-0.1-0.5,0.1-0.5,0.3l-0.8,3.3c-0.1,0.2,0.1,0.5,0.3,0.5c0.2,0.1,0.4-0.1,0.5-0.3l0.8-3.3C21,22.2,20.9,22,20.7,21.9z
					 M19.7,15.9c-0.1-0.2-0.3-0.3-0.6-0.2c-0.2,0.1-0.3,0.3-0.2,0.6c0,0,0,0,0,0l0.5,1.1c0.1,0.2,0.3,0.3,0.6,0.2
					c0.2-0.1,0.3-0.3,0.2-0.6c0,0,0,0,0,0L19.7,15.9z M21.8,17.2l-1,0.8c-0.2,0.2-0.2,0.4,0,0.6c0.2,0.2,0.4,0.2,0.6,0l1-0.8
					c0.2-0.1,0.2-0.4,0.1-0.6C22.3,17.1,22,17.1,21.8,17.2C21.8,17.2,21.8,17.2,21.8,17.2L21.8,17.2z M23.3,19.4
					c-0.3,0.2-0.6,0.2-1,0.2H12.1c-0.6,0-1.1-0.2-1.5-0.6c-0.8-0.8-0.8-2.2,0-3c0.4-0.4,0.9-0.6,1.5-0.6h0.1c0.2,0,0.4-0.2,0.4-0.4
					c0,0,0,0,0,0c-0.1-1.6,1.1-2.9,2.7-3c0,0,0.1,0,0.1,0c0.4,1,1.6,1.4,2.5,1c0.4-0.2,0.8-0.5,1-1c1.6,0,2.8,1.3,2.8,2.9
					c0,0,0,0.1,0,0.1c0,0.2,0.2,0.4,0.4,0.4c0,0,0,0,0,0h0.1c1.2,0,2.1,0.9,2.1,2.1C24.4,18.3,23.9,19,23.3,19.4L23.3,19.4z
					 M21.6,26.9c0,0.2-0.2,0.3-0.4,0.3h-8c-0.2,0-0.4-0.1-0.4-0.3l-1.3-6.5c0.2,0,0.4,0.1,0.6,0.1h10.2c0.2,0,0.4,0,0.6-0.1
					L21.6,26.9z M17.2,10L17.2,10c0.6,0,1.1,0.5,1.1,1.1c0,0.6-0.5,1.1-1.1,1.1c-0.6,0-1.1-0.5-1.1-1.1C16.1,10.5,16.6,10,17.2,10z
					 M24.4,15.4c-0.5-0.5-1.1-0.8-1.8-0.9c-0.1-1.9-1.6-3.3-3.4-3.4c0-0.9-0.7-1.7-1.6-1.9c0-0.4,0-1,0.5-1.5c0.3-0.3,0.6-0.5,1-0.5
					c0.2,0,0.4-0.3,0.3-0.5c0-0.2-0.3-0.4-0.5-0.3c-0.5,0.1-1,0.4-1.4,0.8c-0.7,0.7-0.8,1.6-0.8,2.1c-0.9,0.2-1.5,1-1.5,1.9
					c-1.9,0.1-3.3,1.6-3.4,3.4c-1.6,0.2-2.8,1.6-2.6,3.2c0.1,0.9,0.6,1.7,1.4,2.2l1.4,7c0.1,0.6,0.6,1,1.2,1h8c0.6,0,1.1-0.4,1.2-1
					l1.4-7c1.4-0.9,1.8-2.7,0.9-4.1C24.7,15.8,24.5,15.6,24.4,15.4z"/>
				<path class="st5" d="M14.2,22.2c-0.1-0.2-0.3-0.4-0.5-0.3c-0.2,0.1-0.4,0.3-0.3,0.5l0,0l0.8,3.3c0,0.2,0.3,0.4,0.5,0.3
					c0.2,0,0.4-0.3,0.3-0.5c0,0,0,0,0,0L14.2,22.2z M17.2,21.9c-0.2,0-0.4,0.2-0.4,0.4c0,0,0,0,0,0v3.3c0,0.2,0.2,0.4,0.4,0.4
					c0.2,0,0.4-0.2,0.4-0.4v-3.3C17.6,22.1,17.4,21.9,17.2,21.9L17.2,21.9z M15.6,15.1c0.2,0,0.4-0.2,0.4-0.4c0-0.2-0.1-0.4-0.3-0.4
					l-1.2-0.4c-0.2-0.1-0.5,0.1-0.5,0.3s0.1,0.5,0.3,0.5l1.2,0.4C15.5,15.1,15.5,15.1,15.6,15.1z M19.7,13.7
					c-0.1-0.2-0.3-0.3-0.5-0.3c0,0,0,0,0,0L18,13.9c-0.2,0.1-0.3,0.3-0.3,0.5s0.3,0.3,0.5,0.3l1.2-0.4C19.7,14.2,19.8,14,19.7,13.7
					C19.7,13.7,19.7,13.7,19.7,13.7L19.7,13.7z M13.2,16.7c-0.2-0.1-0.5-0.1-0.6,0.1l-0.7,1c-0.1,0.2-0.1,0.5,0.1,0.6
					c0.2,0.1,0.4,0.1,0.6-0.1l0.7-1C13.4,17.1,13.4,16.8,13.2,16.7C13.2,16.7,13.2,16.7,13.2,16.7z M16.9,17.8l-1-0.8
					c-0.2-0.2-0.4-0.1-0.6,0c-0.2,0.2-0.1,0.4,0,0.6l0,0l1,0.8c0.2,0.1,0.5,0.1,0.6-0.1C17,18.2,17,18,16.9,17.8z M20.7,21.9
					c-0.2-0.1-0.5,0.1-0.5,0.3l-0.8,3.3c-0.1,0.2,0.1,0.5,0.3,0.5c0.2,0.1,0.4-0.1,0.5-0.3l0.8-3.3C21,22.2,20.9,22,20.7,21.9z
					 M19.7,15.9c-0.1-0.2-0.3-0.3-0.6-0.2c-0.2,0.1-0.3,0.3-0.2,0.6c0,0,0,0,0,0l0.5,1.1c0.1,0.2,0.3,0.3,0.6,0.2
					c0.2-0.1,0.3-0.3,0.2-0.6c0,0,0,0,0,0L19.7,15.9z M21.8,17.2l-1,0.8c-0.2,0.2-0.2,0.4,0,0.6c0.2,0.2,0.4,0.2,0.6,0l1-0.8
					c0.2-0.1,0.2-0.4,0.1-0.6C22.3,17.1,22,17.1,21.8,17.2C21.8,17.2,21.8,17.2,21.8,17.2L21.8,17.2z M23.3,19.4
					c-0.3,0.2-0.6,0.2-1,0.2H12.1c-0.6,0-1.1-0.2-1.5-0.6c-0.8-0.8-0.8-2.2,0-3c0.4-0.4,0.9-0.6,1.5-0.6h0.1c0.2,0,0.4-0.2,0.4-0.4
					c0,0,0,0,0,0c-0.1-1.6,1.1-2.9,2.7-3c0,0,0.1,0,0.1,0c0.4,1,1.6,1.4,2.5,1c0.4-0.2,0.8-0.5,1-1c1.6,0,2.8,1.3,2.8,2.9
					c0,0,0,0.1,0,0.1c0,0.2,0.2,0.4,0.4,0.4c0,0,0,0,0,0h0.1c1.2,0,2.1,0.9,2.1,2.1C24.4,18.3,23.9,19,23.3,19.4L23.3,19.4z
					 M21.6,26.9c0,0.2-0.2,0.3-0.4,0.3h-8c-0.2,0-0.4-0.1-0.4-0.3l-1.3-6.5c0.2,0,0.4,0.1,0.6,0.1h10.2c0.2,0,0.4,0,0.6-0.1
					L21.6,26.9z M17.2,10L17.2,10c0.6,0,1.1,0.5,1.1,1.1c0,0.6-0.5,1.1-1.1,1.1c-0.6,0-1.1-0.5-1.1-1.1C16.1,10.5,16.6,10,17.2,10z
					 M24.4,15.4c-0.5-0.5-1.1-0.8-1.8-0.9c-0.1-1.9-1.6-3.3-3.4-3.4c0-0.9-0.7-1.7-1.6-1.9c0-0.4,0-1,0.5-1.5c0.3-0.3,0.6-0.5,1-0.5
					c0.2,0,0.4-0.3,0.3-0.5c0-0.2-0.3-0.4-0.5-0.3c-0.5,0.1-1,0.4-1.4,0.8c-0.7,0.7-0.8,1.6-0.8,2.1c-0.9,0.2-1.5,1-1.5,1.9
					c-1.9,0.1-3.3,1.6-3.4,3.4c-1.6,0.2-2.8,1.6-2.6,3.2c0.1,0.9,0.6,1.7,1.4,2.2l1.4,7c0.1,0.6,0.6,1,1.2,1h8c0.6,0,1.1-0.4,1.2-1
					l1.4-7c1.4-0.9,1.8-2.7,0.9-4.1C24.7,15.8,24.5,15.6,24.4,15.4z"/>
			</g>
		</g>
	</g>
</g>
</svg>
