<?xml version="1.0" encoding="utf-8"?>
<!-- Generator: Adobe Illustrator 24.1.2, SVG Export Plug-In . SVG Version: 6.00 Build 0)  -->
<svg version="1.1" id="Layer_1" xmlns="http://www.w3.org/2000/svg" xmlns:xlink="http://www.w3.org/1999/xlink" x="0px" y="0px"
	 viewBox="0 0 34.4 34.4" style="enable-background:new 0 0 34.4 34.4;" xml:space="preserve">
<style type="text/css">
	.st0{fill:#FFFFFF;}
	.st1{fill:none;stroke:#0E294A;stroke-width:1.57;stroke-miterlimit:20;}
	.st2{fill:#F26522;}
	.st3{fill:#0E294A;}
	.st4{fill:none;stroke:#0E294A;stroke-width:0.3;stroke-miterlimit:20;}
</style>
<g>
	<g>
		<g>
			<g>
				<path class="st0" d="M0.8,17.2c0-9.1,7.3-16.4,16.4-16.4s16.4,7.3,16.4,16.4s-7.3,16.4-16.4,16.4S0.8,26.2,0.8,17.2z"/>
				<path class="st1" d="M0.8,17.2c0-9.1,7.3-16.4,16.4-16.4s16.4,7.3,16.4,16.4s-7.3,16.4-16.4,16.4S0.8,26.2,0.8,17.2z"/>
			</g>
			<g>
				<path class="st2" d="M11.5,25c-2.5-1.7-4.2-4.4-4.6-7.4c2,1.2,6.8,1.7,10.3,1.7s8.3-0.5,10.3-1.7c-0.4,3-2.1,5.7-4.6,7.4
					C19.2,26.2,15.2,26.2,11.5,25z M11.4,25.8c3.8,1.2,7.8,1.2,11.6,0v0.6c0,0.2-0.1,0.4-0.3,0.4c-3.6,0.9-7.4,0.9-11,0
					c-0.2,0-0.3-0.2-0.3-0.4L11.4,25.8z M27.5,16.4c0,0.1-0.1,0.3-0.2,0.3c-1.1-0.5-2.4-0.9-3.6-1.1l0.2-0.8
					C26.5,15.3,27.5,16,27.5,16.4z M23.4,16.4c1,0.1,2,0.4,3,0.8c-1.1,0.4-2.3,0.7-3.4,0.8L23.4,16.4z M24.7,7.3
					c0.2,0.3,0.3,0.7,0.2,1l-2.8,9.8c-0.8,0.1-1.6,0.2-2.6,0.2l3.1-10.7c0.1-0.2,0.2-0.5,0.4-0.6C23.6,6.7,24.3,6.8,24.7,7.3z
					 M17.2,14.3c0.9,0,1.8,0,2.6,0.1l-0.2,0.8c-0.8,0-1.6-0.1-2.4-0.1c-4.5,0-8.4,0.6-10.1,1.6c-0.1-0.1-0.2-0.2-0.2-0.3
					C6.9,15.6,10.4,14.3,17.2,14.3z M18.6,18.4c-0.5,0-1,0-1.5,0c-4.6,0-7.7-0.6-9.2-1.2c1.8-0.8,5.3-1.2,9.2-1.2
					c0.7,0,1.4,0,2.2,0.1C19.3,16,18.6,18.4,18.6,18.4z M6,16.4c0,3.5,1.7,6.9,4.5,9v1.1c0,0.6,0.4,1.1,0.9,1.2
					c3.7,0.9,7.6,0.9,11.3,0c0.6-0.1,0.9-0.6,0.9-1.2v-1.1c2.9-2.1,4.5-5.4,4.5-9c0-1.2-2.2-1.9-4.2-2.3l1.6-5.5
					c0.3-1.1-0.3-2.2-1.3-2.5c-1.1-0.3-2.2,0.3-2.5,1.3c0,0,0,0.1,0,0.1l-1.8,6.1c-0.9-0.1-1.9-0.1-2.9-0.1C12.7,13.5,6,14.2,6,16.4
					z"/>
			</g>
			<g>
				<path class="st3" d="M11.8,24.6c-2.4-1.6-4-4.1-4.3-7c1.9,1.1,6.4,1.6,9.7,1.6c3.3,0,7.8-0.4,9.7-1.6c-0.4,2.9-1.9,5.4-4.4,7
					C19,25.7,15.3,25.7,11.8,24.6L11.8,24.6z M11.7,25.4c3.6,1.1,7.4,1.1,10.9,0V26c0,0.2-0.1,0.3-0.3,0.4c-3.4,0.8-7,0.8-10.4,0
					c-0.2,0-0.3-0.2-0.3-0.4L11.7,25.4z M27,16.4c0,0.1-0.1,0.2-0.2,0.3c-1.1-0.5-2.2-0.9-3.4-1l0.2-0.7C26,15.4,27,16.1,27,16.4z
					 M23.1,16.5c1,0.1,1.9,0.4,2.8,0.7c-1,0.4-2.1,0.7-3.2,0.8L23.1,16.5z M24.5,8.8l-2.6,9.3c-0.8,0.1-1.6,0.2-2.4,0.2l2.9-10.1
					c0.1-0.2,0.2-0.4,0.4-0.6c0.5-0.4,1.2-0.3,1.6,0.2C24.5,8.1,24.6,8.5,24.5,8.8z M19.7,14.5l-0.2,0.8c-0.8,0-1.5-0.1-2.3-0.1
					c-4.2,0-7.9,0.6-9.6,1.5c-0.1-0.1-0.2-0.2-0.2-0.3c0-0.7,3.4-2,9.8-2C18,14.5,18.9,14.5,19.7,14.5z M17.2,18.4
					c-4.3,0-7.3-0.6-8.7-1.2c1.7-0.7,5-1.2,8.7-1.2c0.7,0,1.4,0,2,0.1l-0.7,2.3C18.1,18.3,17.7,18.4,17.2,18.4L17.2,18.4z M6.6,16.4
					c0,3.4,1.6,6.5,4.3,8.5V26c0,0.5,0.4,1,0.9,1.1c3.5,0.9,7.2,0.9,10.7,0c0.5-0.1,0.9-0.6,0.9-1.1v-1.1c2.7-2,4.3-5.1,4.3-8.5
					c0-1.2-2.1-1.8-4-2.2l1.5-5.2C25.5,8,25,7,24,6.7C23,6.4,21.9,7,21.6,8c0,0,0,0,0,0.1l-1.7,5.7c-0.9-0.1-1.8-0.1-2.7-0.1
					C12.9,13.7,6.6,14.4,6.6,16.4z"/>
				<path class="st4" d="M11.8,24.6c-2.4-1.6-4-4.1-4.3-7c1.9,1.1,6.4,1.6,9.7,1.6c3.3,0,7.8-0.4,9.7-1.6c-0.4,2.9-1.9,5.4-4.4,7
					C19,25.7,15.3,25.7,11.8,24.6L11.8,24.6z M11.7,25.4c3.6,1.1,7.4,1.1,10.9,0V26c0,0.2-0.1,0.3-0.3,0.4c-3.4,0.8-7,0.8-10.4,0
					c-0.2,0-0.3-0.2-0.3-0.4L11.7,25.4z M27,16.4c0,0.1-0.1,0.2-0.2,0.3c-1.1-0.5-2.2-0.9-3.4-1l0.2-0.7C26,15.4,27,16.1,27,16.4z
					 M23.1,16.5c1,0.1,1.9,0.4,2.8,0.7c-1,0.4-2.1,0.7-3.2,0.8L23.1,16.5z M24.5,8.8l-2.6,9.3c-0.8,0.1-1.6,0.2-2.4,0.2l2.9-10.1
					c0.1-0.2,0.2-0.4,0.4-0.6c0.5-0.4,1.2-0.3,1.6,0.2C24.5,8.1,24.6,8.5,24.5,8.8z M19.7,14.5l-0.2,0.8c-0.8,0-1.5-0.1-2.3-0.1
					c-4.2,0-7.9,0.6-9.6,1.5c-0.1-0.1-0.2-0.2-0.2-0.3c0-0.7,3.4-2,9.8-2C18,14.5,18.9,14.5,19.7,14.5z M17.2,18.4
					c-4.3,0-7.3-0.6-8.7-1.2c1.7-0.7,5-1.2,8.7-1.2c0.7,0,1.4,0,2,0.1l-0.7,2.3C18.1,18.3,17.7,18.4,17.2,18.4L17.2,18.4z M6.6,16.4
					c0,3.4,1.6,6.5,4.3,8.5V26c0,0.5,0.4,1,0.9,1.1c3.5,0.9,7.2,0.9,10.7,0c0.5-0.1,0.9-0.6,0.9-1.1v-1.1c2.7-2,4.3-5.1,4.3-8.5
					c0-1.2-2.1-1.8-4-2.2l1.5-5.2C25.5,8,25,7,24,6.7C23,6.4,21.9,7,21.6,8c0,0,0,0,0,0.1l-1.7,5.7c-0.9-0.1-1.8-0.1-2.7-0.1
					C12.9,13.7,6.6,14.4,6.6,16.4z"/>
			</g>
		</g>
	</g>
</g>
</svg>
