<?xml version="1.0" encoding="utf-8"?>
<!-- Generator: Adobe Illustrator 24.1.2, SVG Export Plug-In . SVG Version: 6.00 Build 0)  -->
<svg version="1.1" id="Layer_1" xmlns="http://www.w3.org/2000/svg" xmlns:xlink="http://www.w3.org/1999/xlink" x="0px" y="0px"
	 viewBox="0 0 34.4 34.4" style="enable-background:new 0 0 34.4 34.4;" xml:space="preserve">
<style type="text/css">
	.st0{fill:#FFFFFF;}
	.st1{fill:none;stroke:#0E294A;stroke-width:1.57;stroke-miterlimit:20;}
	.st2{fill:#F26522;}
	.st3{fill:#0E294A;}
</style>
<g>
	<g>
		<g>
			<g>
				<path class="st0" d="M0.8,17.2c0-9.1,7.3-16.4,16.4-16.4s16.4,7.3,16.4,16.4s-7.3,16.4-16.4,16.4S0.8,26.2,0.8,17.2z"/>
				<path class="st1" d="M0.8,17.2c0-9.1,7.3-16.4,16.4-16.4s16.4,7.3,16.4,16.4s-7.3,16.4-16.4,16.4S0.8,26.2,0.8,17.2z"/>
			</g>
			<g>
				<path class="st2" d="M17.2,16.6c2.2,0,4.3,0.8,6.1,2.3l0,0l0,0c0.5,0.5,1,0.8,1.6,0.9V22c0,1.1-0.8,1.9-1.9,1.9H11.4
					c-1.1,0-1.9-0.8-1.9-1.9v-2.2c0.6-0.1,1.1-0.5,1.6-0.9l0,0C12.8,17.4,14.9,16.6,17.2,16.6L17.2,16.6z M18.1,10.6
					c0,0,2,0.2,2.9,0.4c0,1.9,1.9,0.6,1.9,0.6s0.4,0.2,0.5,0.2c1,0.5,1.9,0.9,2.5,1.4c0.6,0.5,0.9,0.9,0.9,1.5
					c0,1.5-0.5,2.6-0.9,2.9c-0.1,0.1-0.2,0.1-0.2,0.2c0,0-0.1,0-0.1,0c-0.1,0-0.1,0-0.2,0c-0.1,0-0.2,0-0.3-0.1h0l0,0
					c-0.1-0.1-0.3,0.5-0.5,0.3h0c0,0,0,0,0,0l0,0c-0.3-0.2-0.5-0.4-0.8-0.6l0,0c-1.9-1.4-4.2-2.1-6.5-2.1c-1.3,0-2.6,0.2-3.9,0.7
					c-0.5,0.2-0.9,0.4-1.4,0.6c-0.1,0.1-0.3,0.1-0.4,0.2l0,0c-0.3,0.2-0.6,0.4-0.9,0.6c-0.2,0.2-0.4,0.3-0.6,0.5
					C10,18,9.9,18,9.8,18.1l0,0c0,0,0,0,0,0c-0.1,0.1-0.2-0.1-0.3,0c-0.1,0-0.1-0.3-0.2-0.3l0,0c-0.1,0.1-0.2,0.1-0.3,0.1
					c-0.1,0-0.1,0-0.2,0c0,0-0.1,0-0.1,0c-0.1,0-0.2-0.1-0.2-0.2c-0.4-0.4-0.9-1.4-0.9-2.9c0-0.6,0.3-1.1,0.9-1.5
					c0.6-0.5,1.5-1,2.4-1.4c0.2-0.1,0.5-0.2,0.5-0.2s1.9,1.3,1.9-0.6c0.9-0.2,2.9-0.4,2.9-0.4L18.1,10.6z M17.2,8.5
					c-0.1,0-0.1,0-0.2,0c-2.5,0-4.9,0.6-7,1.6c-1,0.5-2,1-2.8,1.7c-0.8,0.7-1.5,1.7-1.5,3c0,1.9,0.5,3.4,1.5,4.3
					c0.1,0.1,0.3,0.2,0.4,0.3V22c0,2.1,1.7,3.8,3.8,3.8h11.5c2.1,0,3.8-1.7,3.8-3.8v-2.5c0.1-0.1,0.3-0.2,0.4-0.3
					c1-0.9,1.5-2.5,1.5-4.3c0-1.3-0.7-2.3-1.5-3c-0.9-0.7-1.9-1.2-2.8-1.7c-2-1-4.5-1.5-7-1.6C17.3,8.5,17.2,8.5,17.2,8.5z"/>
			</g>
			<g>
				<path class="st3" d="M17.2,16.6c2,0,4,0.7,5.5,2.1l0,0c0,0,0,0,0,0c0.4,0.4,0.9,0.7,1.5,0.8v2c0,1-0.8,1.8-1.8,1.8H11.9
					c-1,0-1.8-0.8-1.8-1.8v-2c0.5-0.1,1-0.4,1.5-0.8l0,0C13.2,17.4,15.1,16.6,17.2,16.6L17.2,16.6z M16.3,11.1v1.7
					c0,0.5,0.4,0.9,0.9,0.9c0.5,0,0.9-0.4,0.9-0.9v-1.7c0.9,0.1,1.8,0.2,2.6,0.4v1.3c0,0.5,0.4,0.9,0.9,0.8c0.5,0,0.8-0.4,0.8-0.8
					v-0.7c0.2,0.1,0.3,0.1,0.5,0.2c0.9,0.4,1.7,0.9,2.3,1.3c0.5,0.5,0.8,0.8,0.8,1.4c0,1.4-0.4,2.3-0.8,2.7
					c-0.1,0.1-0.1,0.1-0.2,0.1c0,0-0.1,0-0.1,0c-0.1,0-0.1,0-0.2,0c-0.1,0-0.2,0-0.3-0.1h0l0,0c-0.2-0.1-0.3-0.2-0.4-0.3h0
					c0,0,0,0,0,0l0,0c-0.2-0.2-0.5-0.4-0.7-0.6l0,0c-1.7-1.3-3.8-2-6-1.9c-1.2,0-2.4,0.2-3.6,0.6c-0.4,0.2-0.9,0.4-1.3,0.6
					c-0.1,0.1-0.3,0.1-0.4,0.2l0,0c-0.3,0.2-0.5,0.3-0.8,0.5c-0.2,0.1-0.4,0.3-0.6,0.5c-0.1,0-0.1,0.1-0.2,0.1l0,0
					c-0.1,0.1-0.2,0.2-0.3,0.3c-0.1,0-0.1,0.1-0.2,0.1l0,0c-0.1,0-0.2,0.1-0.3,0.1c-0.1,0-0.1,0-0.2,0c0,0-0.1,0-0.1,0
					c-0.1,0-0.2-0.1-0.2-0.1c-0.4-0.3-0.8-1.3-0.8-2.7c0-0.6,0.2-1,0.8-1.4c0.5-0.4,1.4-0.9,2.2-1.3c0.2-0.1,0.3-0.1,0.5-0.2v0.7
					c0,0.5,0.4,0.9,0.9,0.9s0.9-0.4,0.9-0.9v-1.3C14.5,11.3,15.4,11.2,16.3,11.1z M17.2,9.3c-0.1,0-0.1,0-0.2,0
					c-2.3,0-4.5,0.5-6.4,1.4c-0.9,0.4-1.8,0.9-2.6,1.5c-0.8,0.6-1.4,1.6-1.4,2.8c0,1.7,0.4,3.1,1.4,4c0.1,0.1,0.2,0.2,0.4,0.3v2.3
					c0,1.9,1.6,3.5,3.5,3.5h10.6c1.9,0,3.5-1.6,3.5-3.5v-2.3c0.1-0.1,0.3-0.2,0.4-0.3c0.9-0.9,1.4-2.3,1.4-4c0-1.2-0.6-2.1-1.4-2.8
					c-0.8-0.6-1.7-1.1-2.6-1.5c-1.9-0.9-4.1-1.4-6.4-1.4C17.3,9.3,17.2,9.3,17.2,9.3L17.2,9.3z"/>
			</g>
		</g>
	</g>
</g>
</svg>
