<?xml version="1.0" encoding="utf-8"?>
<!-- Generator: Adobe Illustrator 24.1.2, SVG Export Plug-In . SVG Version: 6.00 Build 0)  -->
<svg version="1.1" id="Layer_1" xmlns="http://www.w3.org/2000/svg" xmlns:xlink="http://www.w3.org/1999/xlink" x="0px" y="0px"
	 viewBox="0 0 34.4 34.4" style="enable-background:new 0 0 34.4 34.4;" xml:space="preserve">
<style type="text/css">
	.st0{fill:#FFFFFF;}
	.st1{fill:none;stroke:#0E294A;stroke-width:1.57;stroke-miterlimit:20;}
	.st2{fill:none;stroke:#F26522;stroke-linecap:round;stroke-linejoin:round;stroke-miterlimit:20;}
	.st3{fill:none;stroke:#F26522;stroke-width:1.5;stroke-linecap:round;stroke-linejoin:round;stroke-miterlimit:20;}
	.st4{fill:none;stroke:#0E294A;stroke-width:1.5;stroke-linecap:round;stroke-linejoin:round;stroke-miterlimit:20;}
</style>
<g>
	<g>
		<g>
			<g>
				<path class="st0" d="M0.8,17.2c0-9.1,7.3-16.4,16.4-16.4s16.4,7.3,16.4,16.4s-7.3,16.4-16.4,16.4S0.8,26.2,0.8,17.2z"/>
				<path class="st1" d="M0.8,17.2c0-9.1,7.3-16.4,16.4-16.4s16.4,7.3,16.4,16.4s-7.3,16.4-16.4,16.4S0.8,26.2,0.8,17.2z"/>
			</g>
			<g transform="rotate(45 19.5 16)">
				<g>
					<path class="st2" d="M8.1,13c0.3,0.7,1.2,0.9,1.9,0.6c1.8-1.1,8.9-2.4,14.4,0c0.7,0.3,1.6,0.1,1.9-0.6l0.1-0.2
						c0.2-0.4,0.3-1.6,0.1-2c-0.2-0.4-0.5-0.7-0.9-0.9l0,0c-5.4-2.3-11.6-2.3-17,0l0,0c-0.4,0.2-0.7,0.5-0.9,0.9
						c-0.2,0.4,0,1.6,0.2,2L8.1,13z"/>
				</g>
				<g>
					<path class="st3" d="M9.4,13.6c0.2,0,0.4,0,0.6-0.1c4.8-1.7,9.5-1.7,14.2,0c0.2,0.1,0.6-0.1,0.8-0.1L25,13.6l0,0l-7,14.6
						c-0.2,0.5-0.8,0.6-1.2,0.4c-0.2-0.1-0.3-0.2-0.4-0.4L9.4,13.6L9.4,13.6L9.4,13.6z"/>
				</g>
			</g>
			<g transform="rotate(45 19.5 16.5)">
				<g>
					<path class="st4" d="M8.6,12.7c0.3,0.6,1,0.9,1.7,0.7c4.4-1.6,9.2-1.6,13.5,0c0.7,0.2,1.4,0,1.7-0.7l0.1-0.2
						c0.3-0.7,0-1.6-0.7-2c0,0,0,0,0,0l0,0c-5-2.2-10.7-2.2-15.7,0l0,0c-0.8,0.3-1.1,1.2-0.8,2c0,0,0,0,0,0L8.6,12.7z"/>
				</g>
				<g>
					<path class="st4" d="M9.8,13.5c0.2,0,0.4,0,0.6-0.1c4.4-1.6,9.2-1.6,13.6,0c0.2,0.1,0.4,0.1,0.6,0.1l0,0l-6.6,13.9
						c-0.2,0.4-0.7,0.6-1.1,0.4c-0.2-0.1-0.3-0.2-0.4-0.4L9.8,13.5L9.8,13.5L9.8,13.5z"/>
				</g>
				<g>
					<path class="st4" d="M17.1,16.2c0-1.1,0.9-1.9,1.9-1.9c1.1,0,1.9,0.9,1.9,1.9c0,1.1-0.9,1.9-1.9,1.9
						C17.9,18.1,17.1,17.3,17.1,16.2L17.1,16.2z"/>
				</g>
				<g>
					<path class="st4" d="M20.6,21.6c-0.8-0.7-2-0.6-2.8,0.2c-0.7,0.8-0.6,2,0.2,2.8c0.3,0.2,0.6,0.4,1,0.5L20.6,21.6z M13.1,20.5
						c1.1-0.1,1.8-1.1,1.7-2.2c-0.1-1.1-1.1-1.8-2.2-1.7c-0.4,0.1-0.8,0.2-1.1,0.5L13.1,20.5z"/>
				</g>
			</g>
		</g>
	</g>
</g>
</svg>
