<?xml version="1.0" encoding="utf-8"?>
<!-- Generator: Adobe Illustrator 26.0.1, SVG Export Plug-In . SVG Version: 6.00 Build 0)  -->
<svg version="1.1" id="Layer_1" xmlns="http://www.w3.org/2000/svg" xmlns:xlink="http://www.w3.org/1999/xlink" x="0px" y="0px"
	 viewBox="0 0 13.4 13.4" style="enable-background:new 0 0 13.4 13.4;" xml:space="preserve">
<style type="text/css">
	.st0{fill:#0E294A;}
</style>
<g>
	<g>
		<path class="st0" d="M8.3,6.7l4.8-4.8c0.4-0.4,0.4-1.1,0-1.6c-0.4-0.4-1.1-0.4-1.6,0L6.7,5.1L1.9,0.3c-0.4-0.4-1.2-0.4-1.6,0
			s-0.4,1.2,0,1.6l4.8,4.8l-4.8,4.8c-0.4,0.4-0.4,1.2,0,1.6c0,0,0,0,0,0c0.4,0.4,1.1,0.4,1.6,0l4.8-4.8l4.8,4.8
			c0.4,0.4,1.1,0.4,1.6,0c0.4-0.4,0.4-1.1,0-1.6L8.3,6.7z"/>
	</g>
</g>
</svg>
