<svg xmlns="http://www.w3.org/2000/svg" width="48" height="56" viewBox="0 0 48 56"><g><g><g><path fill="#f26522" d="M2.354 53.671L4.7 46.63c.038-.121.054-.249.046-.376l-2.668-31.09H45.92l-2.668 31.09c-.008.127.008.255.046.376l2.347 7.041zM10.248 7.83zm0 0l4.96-5.501h17.584l4.96 5.5H15.361zm4.96 7.157l-4.782-.188-.178-6.97h5.113zm17.043-.188H15.748v-6.97h16.503zm5.501-6.97v7.158l-4.96-.376-.54-6.781h5.5zm-27.504 0zm34.848 38.398l2.741-31.897a.917.917 0 0 0-.916-1h-7.335V6.914a.947.947 0 0 0-.266-.651L33.82.761a.947.947 0 0 0-.652-.266H14.832a.947.947 0 0 0-.651.266L8.68 6.262a.947.947 0 0 0-.266.65v6.419H1.079a.917.917 0 0 0-.917 1l2.742 31.896-2.696 8.068a.917.917 0 0 0 .129.825c.169.242.447.386.742.385h45.842a.901.901 0 0 0 .742-.385.917.917 0 0 0 .129-.825z"/></g></g><g><g><path fill="#0e294a" d="M3.605 52.187l2.211-6.634a.974.974 0 0 0 .044-.354L3.346 15.906h41.308L42.14 45.2c-.007.12.007.24.043.354l2.212 6.634zm7.438-43.191h3.455v5.183h-3.455zm20.731 0v5.183H16.226V8.996zm5.183 0v5.183h-3.455V8.996zM15.716 3.813h16.568l3.455 3.455H12.261zm28.16 41.36L46.46 15.12a.864.864 0 0 0-.864-.941h-6.91V8.132a.892.892 0 0 0-.25-.613L33.25 2.336a.892.892 0 0 0-.613-.25H15.362a.892.892 0 0 0-.614.25L9.565 7.519a.892.892 0 0 0-.25.613v6.047h-6.91a.864.864 0 0 0-.864.941l2.582 30.053-2.54 7.601a.864.864 0 0 0 .122.778.85.85 0 0 0 .7.363h43.19a.85.85 0 0 0 .7-.363.864.864 0 0 0 .121-.778z"/></g></g></g></svg>