<svg xmlns="http://www.w3.org/2000/svg" width="25" height="25" viewBox="0 0 25 25"><defs><clipPath id="7teja"><path fill="#fff" d="M-2 26V-2h28v28z"/></clipPath></defs><g><g><g><g><path fill="#fff" d="M1.121 12.845c0-6.283 5.093-11.377 11.376-11.377 6.283 0 11.377 5.094 11.377 11.377 0 6.282-5.094 11.376-11.377 11.376S1.121 19.127 1.121 12.845z"/><path fill="none" stroke="#0e294a" stroke-miterlimit="20" stroke-width="1.57" d="M1.121 12.845c0-6.283 5.093-11.377 11.376-11.377 6.283 0 11.377 5.094 11.377 11.377 0 6.282-5.094 11.376-11.377 11.376S1.121 19.127 1.121 12.845z"/></g></g><g><g><g><text dominant-baseline="text-before-edge" style="font-kerning:normal" fill="#f26522" font-family="'Lapsus Pro','LapsusPro-Bold'" font-size="8" font-style="none" font-weight="700" transform="translate(-1454 -358)"><tspan style="text-transform:uppercase">f</tspan></text></g></g><g><g><text dominant-baseline="text-before-edge" style="font-kerning:normal" fill="#f26522" font-family="'Lapsus Pro','LapsusPro-Bold'" font-size="8" font-style="none" font-weight="700" transform="translate(-1454 -358)"><tspan style="text-transform:uppercase">a</tspan></text></g></g><g><g><text dominant-baseline="text-before-edge" style="font-kerning:normal" fill="#f26522" font-family="'Lapsus Pro','LapsusPro-Bold'" font-size="8" font-style="none" font-weight="700" transform="translate(-1454 -358)"><tspan style="text-transform:uppercase">t</tspan></text></g></g><g><g><g><text dominant-baseline="text-before-edge" style="font-kerning:normal" fill="#0e294a" font-family="'Lapsus Pro','LapsusPro-Bold'" font-size="7" font-style="none" font-weight="700" transform="translate(-1454 -358)"><tspan style="text-transform:uppercase">f</tspan></text></g></g><g><g><text dominant-baseline="text-before-edge" style="font-kerning:normal" fill="#0e294a" font-family="'Lapsus Pro','LapsusPro-Bold'" font-size="7" font-style="none" font-weight="700" transform="translate(-1454 -358)"><tspan style="text-transform:uppercase">a</tspan></text></g></g><g><g><text dominant-baseline="text-before-edge" style="font-kerning:normal" fill="#0e294a" font-family="'Lapsus Pro','LapsusPro-Bold'" font-size="7" font-style="none" font-weight="700" transform="translate(-1454 -358)"><tspan style="text-transform:uppercase">t</tspan></text></g></g></g></g></g></g></svg>