<?xml version="1.0" encoding="utf-8"?>
<!-- Generator: Adobe Illustrator 24.1.2, SVG Export Plug-In . SVG Version: 6.00 Build 0)  -->
<svg version="1.1" id="Layer_1" xmlns="http://www.w3.org/2000/svg" xmlns:xlink="http://www.w3.org/1999/xlink" x="0px" y="0px"
	 viewBox="0 0 12.8 12.8" style="enable-background:new 0 0 12.8 12.8;" xml:space="preserve">
<style type="text/css">
	.st0{fill:#FFFFFF;}
</style>
<g>
	<g>
		<g>
			<g>
				<g>
					<path class="st0" d="M11.6,8.5c0.1,1.4-0.9,2.7-2.4,2.7l-5,0.4c-1.4,0.1-2.7-0.9-2.7-2.4l-0.4-5C1.1,2.8,2.2,1.5,3.6,1.5l5-0.4
						c1.4-0.1,2.7,0.9,2.7,2.4L11.6,8.5z M8.4,0l-5,0.4c-2.1,0.1-3.7,2-3.4,4l0.4,5c0.1,2.1,2,3.7,4,3.4l5-0.4c2.1-0.1,3.7-2,3.4-4
						l-0.4-5C12.3,1.4,10.6-0.1,8.4,0L8.4,0z"/>
				</g>
			</g>
		</g>
		<g>
			<path class="st0" d="M8,2.2L6.7,2.3C5.9,2.4,5.2,3.1,5.3,3.9L5.4,5L4.6,5.1c-0.1,0-0.1,0.1-0.1,0.1l0.1,1.2
				c0,0.1,0.1,0.1,0.1,0.1l0.8-0.1v0.1l0.3,3.9c0,0.1,0.1,0.1,0.1,0.1l1.4-0.1c0.1,0,0.1-0.1,0.1-0.1L7.1,6.5l1.1-0.1
				c0.1,0,0.1,0,0.1-0.1V5c0-0.1-0.1-0.1-0.1-0.1L7,5l-0.1-1c0-0.2,0.1-0.4,0.3-0.4L8,3.6c0.1,0,0.1-0.1,0.1-0.1L8,2.2
				C8.1,2.2,8,2.2,8,2.2z"/>
		</g>
	</g>
</g>
</svg>
