<svg xmlns="http://www.w3.org/2000/svg" width="66" height="66" viewBox="0 0 66 66"><g><g><g><path fill="#f26522" d="M3.592 63.369L14.998 47.21c.125-.177.191-.388.191-.604V25.652c0-.578-.469-1.048-1.047-1.048H11.95l7.43-10.73 7.427 10.73S30.466 29.221 33 29.04c2.534-.183 5.276-2.056 13.62-15.166l7.429 10.731h-2.19c-.58 0-1.048.47-1.048 1.048v20.954c0 .216.067.427.191.604L62.408 63.37zM33 27.748a4.19 4.19 0 1 1 0-8.382 4.19 4.19 0 0 1 0 8.382zm-6.286-11.525v2.095h2.095v-3.143c0-.578-.469-1.047-1.047-1.047H25.57L33 3.396l7.43 10.732h-2.192c-.578 0-1.047.469-1.047 1.047v3.143h2.095v-2.095h3.16l-3.562 5.144a6.275 6.275 0 0 0-11.768 0l-3.562-5.144zm38.572 47.589l-12.38-17.538V26.7h3.143a1.048 1.048 0 0 0 .861-1.644l-9.429-13.62a1.087 1.087 0 0 0-1.722 0l-2.345 3.386a1.022 1.022 0 0 0-.124-.243L33.861.96a1.087 1.087 0 0 0-1.722 0l-9.43 13.62a1.022 1.022 0 0 0-.123.243l-2.345-3.386a1.087 1.087 0 0 0-1.722 0l-9.43 13.62a1.048 1.048 0 0 0 .862 1.644h3.143v19.574L.714 63.812a1.048 1.048 0 0 0 .855 1.652H64.43a1.048 1.048 0 0 0 .856-1.652z"/></g></g><g><g><path fill="#0e294a" d="M4.93 61.986l10.887-15.423a1 1 0 0 0 .183-.577v-20a1 1 0 0 0-1-1h-2.091L20 14.743l7.09 10.243H25a1 1 0 0 0-1 1v18a1 1 0 0 0 1 1h2V56.987a1 1 0 0 0 1 1h10a1 1 0 0 0 1-1v-12h2a1 1 0 0 0 1-1v-10c0-.08-.02-.155-.024-.234H42v-7.767a1 1 0 0 0-1-1h-2.09L46 14.743l7.091 10.243H51a1 1 0 0 0-1 1v20a1 1 0 0 0 .183.577L61.07 61.986zm28.07-34a4 4 0 1 1 0-8 4 4 0 0 1 0 8zm-3.31 1H29a4.948 4.948 0 0 0-3 1.026v-3.026h1.812a6.04 6.04 0 0 0 1.878 2zm7.31 6v21h-3v-12h-2v12h-3v-21h-2v8h-1v-9a3 3 0 0 1 3-3h8a3 3 0 0 1 3 3v9h-1v-8zm3-4.974a4.948 4.948 0 0 0-3-1.026h-.69a6.041 6.041 0 0 0 1.878-2H40zM27 16.986v2h2v-3a1 1 0 0 0-1-1h-2.091L33 4.743l7.091 10.243H38a1 1 0 0 0-1 1v3h2v-2h3.016l-3.4 4.91a5.989 5.989 0 0 0-11.232 0l-3.4-4.91zM63.817 62.41L52 45.67V26.986h3a1 1 0 0 0 .822-1.569l-9-13a1.038 1.038 0 0 0-1.644 0L42.94 15.65a.976.976 0 0 0-.118-.232l-9-13a1.038 1.038 0 0 0-1.644 0l-9 13a.976.976 0 0 0-.118.232l-2.238-3.232a1.038 1.038 0 0 0-1.644 0l-9 13a1 1 0 0 0 .822 1.57h3v18.682L2.183 62.41A1 1 0 0 0 3 63.986h60a1 1 0 0 0 .817-1.577z"/></g></g></g></svg>