<svg xmlns="http://www.w3.org/2000/svg" width="70" height="70" viewBox="0 0 70 70"><g><g><g><path fill="#f26522" d="M5.185 67.661V15.123A2.485 2.485 0 0 1 7.67 12.64h54.66a2.485 2.485 0 0 1 2.485 2.484v52.538-5.33a2.485 2.485 0 0 1-2.485 2.484H7.67a2.485 2.485 0 0 1-2.485-2.485v5.331zM62.33 7.67h-8.454V2.7a2.485 2.485 0 1 0-4.97 0v4.97H21.092V2.7a2.485 2.485 0 1 0-4.969 0v4.97H7.67a7.454 7.454 0 0 0-7.454 7.453V62.33a7.454 7.454 0 0 0 7.454 7.454h54.66a7.454 7.454 0 0 0 7.454-7.454V15.123a7.454 7.454 0 0 0-7.453-7.454z"/></g></g><g><g><g><g><path fill="#0e294a" d="M7.27 25.756v-9.243a2.31 2.31 0 0 1 2.31-2.311h6.933v4.622a2.31 2.31 0 1 0 4.622 0v-4.622h27.73v4.622a2.31 2.31 0 1 0 4.622 0v-4.622h6.933a2.31 2.31 0 0 1 2.31 2.31v9.244zM62.73 60.42a2.31 2.31 0 0 1-2.31 2.31H9.58a2.31 2.31 0 0 1-2.31-2.31V30.378h55.46zM60.42 9.58h-6.933V4.958a2.31 2.31 0 1 0-4.622 0V9.58h-27.73V4.958a2.31 2.31 0 1 0-4.622 0V9.58H9.58a6.933 6.933 0 0 0-6.932 6.933V60.42a6.933 6.933 0 0 0 6.932 6.932h50.84a6.933 6.933 0 0 0 6.933-6.932V16.513A6.933 6.933 0 0 0 60.42 9.58z"/></g></g></g><g><g><g><path fill="#0e294a" d="M50.442 35.677a2.31 2.31 0 0 0-3.21 0L30.378 52.53l-7.61-7.61a2.31 2.31 0 0 0-3.267 3.268l9.243 9.244a2.311 2.311 0 0 0 3.268 0L50.5 38.945a2.31 2.31 0 0 0-.057-3.268z"/></g></g></g></g></g></svg>