<svg xmlns="http://www.w3.org/2000/svg" width="25" height="25" viewBox="0 0 25 25"><defs><clipPath id="dk99a"><path fill="#fff" d="M-2 26V-2h28v28z"/></clipPath><clipPath id="dk99b"><path fill="#fff" d="M6 12.5a6.5 6.5 0 1 1 13 0 6.5 6.5 0 0 1-13 0z"/></clipPath></defs><g><g><g><g><path fill="#fff" d="M1 12.345C1 6.08 6.08 1 12.345 1 18.61 1 23.69 6.08 23.69 12.345c0 6.266-5.08 11.345-11.345 11.345C6.079 23.69 1 18.611 1 12.345z"/><path fill="none" stroke="#0e294a" stroke-miterlimit="20" stroke-width="1.57" d="M1 12.345C1 6.08 6.08 1 12.345 1 18.61 1 23.69 6.08 23.69 12.345c0 6.266-5.08 11.345-11.345 11.345C6.079 23.69 1 18.611 1 12.345z"/></g></g><g><path fill="none" stroke="#f26522" stroke-miterlimit="20" stroke-width="2" d="M6 12.5a6.5 6.5 0 1 1 13 0 6.5 6.5 0 0 1-13 0z" clip-path="url(&quot;#dk99b&quot;)"/></g><g><path fill="#0e294a" d="M16.68 16.681c-2.059 2.144-5.704 2.322-7.963.406l1.968-2.109a1.394 1.394 0 0 0 .366.364l1.028.643v1.334c.021.524.77.524.79 0v-1.334l1.028-.643a.387.387 0 0 0 .02-.014c.346-.247.545-.602.545-.974v-3.428l2.353-2.52c2.181 2.234 2.121 6.11-.134 8.275zm-5.404-5.654v-.763l.803.573v.762zm.803 3.274v.753l-.598-.375c-.13-.096-.205-.214-.205-.325v-.625zm-.803-1.542v-.763l.803.573v.762zm1.593-1.16v-.762l.804-.573v.763zm.804 2.13v.625c0 .111-.075.23-.206.325l-.598.375V14.3zm-.804-.397v-.763l.804-.573v.763zm-6.343-.857c-.009-4.998 5.857-7.77 9.712-4.608l-1.776 1.902V8.384c-.02-.524-.769-.523-.79 0v.91l-.803.573V7.63c-.02-.524-.769-.524-.79 0v2.237l-.803-.572v-.91c-.021-.525-.77-.524-.79 0v5.649L8.14 16.548a5.907 5.907 0 0 1-1.614-4.073zM17.239 7.71a6.83 6.83 0 0 0-.16-.155l-.005-.005-.006-.005c-2.53-2.458-6.911-2.385-9.358.165-2.68 2.58-2.603 7.197.162 9.686l.008.009.01.008c2.533 2.45 6.906 2.372 9.35-.174 2.613-2.508 2.614-7.021 0-9.53z"/></g></g></g></svg>