<?xml version="1.0" encoding="utf-8"?>
<!-- Generator: Adobe Illustrator 24.1.2, SVG Export Plug-In . SVG Version: 6.00 Build 0)  -->
<svg version="1.1" id="Layer_1" xmlns="http://www.w3.org/2000/svg" xmlns:xlink="http://www.w3.org/1999/xlink" x="0px" y="0px"
	 viewBox="0 0 14.2 14.2" style="enable-background:new 0 0 14.2 14.2;" xml:space="preserve">
<style type="text/css">
	.st0{fill:#FFFFFF;}
</style>
<g>
	<g>
		<g>
			<g>
				<g>
					<path class="st0" d="M12.9,9.5c0.1,1.6-1.1,3-2.6,3l-5.5,0.4c-1.6,0.1-3-1.1-3-2.6L1.3,4.7c-0.1-1.6,1-3,2.6-3l5.5-0.4
						c1.6-0.1,3,1,3,2.6L12.9,9.5z M9.4,0L3.8,0.4C1.5,0.5-0.2,2.6,0,4.9l0.4,5.5c0.1,2.4,2.2,4.1,4.5,3.8l5.5-0.4
						c2.4-0.1,4.1-2.2,3.8-4.5l-0.4-5.5C13.6,1.6,11.6-0.1,9.4,0z"/>
				</g>
			</g>
		</g>
		<g>
			<g>
				<path class="st0" d="M10.9,3.1c-0.4,0-0.8,0.4-0.8,0.9c0,0.4,0.4,0.8,0.9,0.8c0.4,0,0.8-0.4,0.8-0.9C11.7,3.3,11.3,3.1,10.9,3.1
					z"/>
			</g>
		</g>
		<g>
			<g>
				<g>
					<path class="st0" d="M7.2,9.9c-1.1,0.1-2-0.7-2.1-1.8C5,7.1,5.8,6.1,6.9,6C8,5.9,8.9,6.7,9,7.8C9.1,8.8,8.3,9.8,7.2,9.9
						L7.2,9.9z M6.9,4.8C5.2,4.9,3.9,6.5,4,8.1c0.1,1.7,1.7,3,3.3,2.9c1.7-0.1,3-1.7,2.9-3.3C10.1,6,8.5,4.7,6.9,4.8L6.9,4.8z"/>
				</g>
			</g>
		</g>
	</g>
</g>
</svg>
