<?xml version="1.0" encoding="utf-8"?>
<!-- Generator: Adobe Illustrator 24.1.2, SVG Export Plug-In . SVG Version: 6.00 Build 0)  -->
<svg version="1.1" id="Layer_1" xmlns="http://www.w3.org/2000/svg" xmlns:xlink="http://www.w3.org/1999/xlink" x="0px" y="0px"
	 viewBox="0 0 72.6 63.8" style="enable-background:new 0 0 72.6 63.8;" xml:space="preserve">
<style type="text/css">
	.st0{fill:#FFFFFF;}
	.st1{fill:#35BDB2;}
	.st2{fill:#0E294A;}
	.st3{fill:#FFE293;}
	.st4{fill:#FFD768;}
	.st5{fill:#FFECB4;}
	.st6{fill:#61B4D0;}
	.st7{fill:#FEC84B;}
	.st8{fill:#007985;}
	.st9{fill:#2CBCB2;}
	.st10{fill:#503C59;}
</style>
<g>
	<g>
		<path class="st0" d="M45.6,63.8c-14.9,0-27-12.1-27-27c0-0.4,0-0.8,0-1.2c-0.2-0.1-0.4-0.3-0.6-0.4c-3.3-2.3-6.3-5.2-8.8-8.6
			C8,25,7,23.3,5.9,21.4c-1-1.8-1.9-3.7-2.5-5.6l-0.3-0.7l-0.2-0.7L2.7,14c-0.1-0.4-0.2-0.7-0.4-1.1c-0.1-0.3-0.2-0.6-0.2-0.9
			c-0.2-0.7-0.4-1.4-0.6-2C1,8,0.7,6,0.4,4.1L0,1.9l2.2-0.5c2-0.3,4-0.5,6.4-0.6c0.8,0,1.6-0.1,2.5-0.1c1.3,0,2.6,0,3.8,0.1
			c4.6,0.3,8.8,1.2,12.5,2.5c4.2,1.6,7.9,3.8,10.8,6.7c0.3-0.5,0.8-1,1.8-1.3c0.3-0.1,0.5-0.1,0.8-0.1c0.6,0,1.1,0.2,1.5,0.5
			c0.2,0.1,0.4,0.3,0.5,0.5h0.3c0.4,0,0.7,0,1.1,0.1c0.4,0,0.8,0,1.3,0h0.6c0.3-0.5,0.6-1,1-1.4c0.7-0.9,1.5-1.8,2.3-2.7
			c0.8-0.8,1.7-1.7,2.6-2.4C53,2.6,54,1.9,55,1.2l0,0L57,0l1,2c0.6,1.2,1.4,2.9,1.9,4.7c0.5,1.8,0.8,3.5,0.9,5.1
			c0,0.8,0,1.7-0.1,2.5c7.4,5,11.9,13.3,11.9,22.3C72.6,51.7,60.5,63.8,45.6,63.8L45.6,63.8z"/>
	</g>
	<g>
		<path class="st0" d="M71.1,36.8c0,14.1-11.4,25.5-25.5,25.5c-14.1,0-25.5-11.4-25.5-25.5c0-0.7,0-1.4,0.1-2l-1.3-0.8
			c-3.2-2.3-6.1-5.1-8.4-8.2c-1.2-1.6-2.2-3.3-3.2-5c-1-1.7-1.8-3.5-2.5-5.4l-0.3-0.7l-0.2-0.7c-0.2-0.5-0.3-0.9-0.5-1.4
			c-0.3-1-0.6-1.9-0.8-2.9C2.5,7.7,2.2,5.8,1.9,3.8L1.8,3.1L2.5,3c2.1-0.4,4.1-0.5,6.2-0.6c2.1-0.1,4.1-0.1,6.2,0.1
			c4.1,0.3,8.2,1,12.1,2.4c3.9,1.4,7.5,3.6,10.4,6.5c0.3,0.3,0.6,0.6,0.9,1c0.4-0.1,0.7-0.2,1.1-0.3c0-0.2-0.1-0.7,0.1-1.1
			c0.2-0.3,0.5-0.5,0.9-0.6c0.4-0.1,0.8-0.1,1.1,0.1c0.3,0.2,0.5,0.6,0.6,0.8c0.2,0,0.5-0.1,0.8-0.1c0.5,0,0.9,0,1.4,0.1
			c0.5,0,0.9,0,1.3,0c0.5,0,1,0,1.4,0c0.4-0.7,0.8-1.3,1.3-2c0.7-0.9,1.4-1.7,2.2-2.5c0.8-0.8,1.6-1.6,2.5-2.3
			c0.9-0.7,1.8-1.4,2.8-2l0.6-0.4l0.3,0.6c0.7,1.4,1.4,2.9,1.8,4.5c0.5,1.6,0.7,3.1,0.8,4.8c0.1,1.1,0,2.1-0.1,3.2
			C66.4,19.7,71.1,27.7,71.1,36.8L71.1,36.8z"/>
	</g>
	<g>
		<g>
			<path class="st0" d="M21,37c0-13.6,11-24.6,24.6-24.6c13.6,0,24.6,11,24.6,24.6c0,13.6-11,24.6-24.6,24.6
				C32.1,61.6,21,50.6,21,37L21,37z"/>
		</g>
		<g>
			<path class="st1" d="M52.8,56.1c0,0,0,0.1,0,0.1l0,0.3c-0.1,0.5-0.2,1.3-0.3,2.3c0.1,0.1,0.1,0.3,0.2,0.5c0,0.1,0.1,0.1,0.1,0.2
				c0.4-1.1,1.1-2.4,1.5-3.4C53.6,56.2,53.2,56.2,52.8,56.1L52.8,56.1z"/>
		</g>
		<g>
			<path class="st1" d="M37.2,55.6c0,0-3.6,0.2-4.9,1.6c0,0,9.7,4.9,14.4,3.4c0,0-9.2-4.2-9.5-5.3L37.2,55.6z"/>
		</g>
		<g>
			<path class="st2" d="M45.7,62.5C31.6,62.5,20.2,51,20.2,37s11.4-25.5,25.5-25.5c14.1,0,25.5,11.4,25.5,25.5
				C71.2,51,59.8,62.5,45.7,62.5z M45.7,13.2C32.6,13.2,22,23.9,22,37s10.6,23.7,23.7,23.7c13.1,0,23.7-10.6,23.7-23.7
				S58.8,13.2,45.7,13.2z"/>
		</g>
		<g>
			<path class="st3" d="M65.3,39.4L65,39.1l-0.3,0.1c-0.2-0.1-0.3-0.2-0.5-0.4c-0.2-0.1-0.3-0.3-0.5-0.5c-0.1-0.2-0.3-0.4-0.5-0.5
				c-0.3-0.4-0.6-0.7-0.8-1.1c-0.2-0.3-0.4-0.7-0.5-1.1c-0.1,0.1-0.3,0.1-0.5,0.2c-0.9,0.4-1.8,0.8-2.6,1.3c-1.5,0.8-3,1.6-4.4,2.5
				c-0.1,0.1-0.2,0.1-0.4,0.2c0.1-0.1,0.2-0.2,0.4-0.3c-0.1-0.2,1.4-0.8,1.3-1.1c-0.8,0.2-3.2,0.6-4.2,0.6
				c-6.7,0-12.2-4.9-12.2-10.9c0-1.7,0.4-3.3,1.2-4.8c-2,0.8-3.9,1.9-5.5,3.4c-0.6,0.5-1.2,1.1-1.7,1.7c-0.5,0.6-1,1.3-1.4,2
				c-0.4,0.7-0.7,1.5-1,2.2c-0.2,0.8-0.5,1.6-0.6,2.4c-0.3,1.6-0.2,3.2,0.1,4.8c0.4,1.6,1,3,1.9,4.3c1.8,2.6,4.6,4.6,7.6,5.7
				c3,1.1,9.8,0.8,9.9,0.8C66.8,49.6,65.3,39.4,65.3,39.4L65.3,39.4z"/>
		</g>
		<g>
			<path class="st4" d="M44.2,24c-0.2-0.2-8,1.7-9.5,10.4c-1.4,8.8,8.6,12.3,8.6,12.3s12.3,4.3,21-7.6l1.1,0.3
				c0,0,1.1,15.4-26.1,10.8c0,0-12.3-4.5-8.4-16.8c0,0,1.9-8.5,12.8-11L44.2,24z"/>
		</g>
		<g>
			<path class="st3" d="M32.2,28.5C32.2,28.5,32.3,28.5,32.2,28.5c-2.6-0.6-5.1-1.4-7.5-2.5c-2.5-1.2-5-2.6-7.2-4.3
				c-2.2-1.7-4.2-3.7-6-5.9c-1.7-2.2-3.2-4.6-4.4-7.2L6.8,7.6l1-0.1c1,0,1.8,0,2.7,0.2c0.9,0.1,1.8,0.3,2.6,0.5
				c1.7,0.5,3.4,1.2,4.9,2c1.5,0.9,2.9,2,4.2,3.4c0.8,0.9,1.5,1.8,2.2,2.9c-0.2-1.1-0.1-2.4-0.4-3.5c-0.2-0.8,1.1-1.8,2-0.5
				c0.6,0.8,1.2,1.6,1.7,2.5c0.1,0.2,0.3,0.5,0.4,0.7L28,14.2c-0.1-0.6-0.2-1.2-0.3-1.8c-0.1-0.6-0.2-1.2-0.4-1.8l-0.2-1l1,0.3
				c1.5,0.5,3,1.3,4.3,2.1c1.3,0.9,2.6,1.8,3.8,2.9c1.2,1.1,2.2,2.3,3.1,3.6c0.4,0.7,0.8,1.3,1.2,2l0.5,1.1c0.1,0.2,0.1,0.3,0.2,0.5
				c0,0.1,0.1,0.5,0.2,0.6c0.7-0.2,1.2-0.6,1.9-0.8c-1.4-3.7-3.5-7.1-6.4-9.8C34,9.4,30.5,7.3,26.7,6c-3.8-1.3-7.8-1.9-11.8-2.2
				c-2-0.1-4-0.1-6,0C7.1,4,5.3,4.2,3.6,4.5c0.2,1.7,0.5,3.3,0.9,4.9c0.2,1,0.5,1.9,0.7,2.8l0.4,1.4l0.2,0.7L6.1,15
				c0.6,1.8,1.4,3.6,2.3,5.3c0.9,1.7,1.9,3.4,3,4.9c2.2,3.1,4.9,5.9,8.1,8.2c2.9,2.1,6.2,3.9,9.7,4.8c-0.1-1.1,0-2.2,0.2-3.2
				c0.1-0.8,0.4-1.7,0.7-2.5c0.3-0.8,0.6-1.6,1.1-2.4C31.5,29.5,31.8,29,32.2,28.5L32.2,28.5z"/>
		</g>
		<g>
			<path class="st5" d="M21.7,14.2c-1.2-1.2-2.6-2.2-4.1-3c-1.5-0.8-3.1-1.4-4.7-1.8C11.6,9.1,10.3,9,9,9c1,2.1,2.2,4.1,3.6,6
				c1.6,2.2,3.5,4.1,5.6,5.9c2.1,1.7,4.4,3.2,6.8,4.4c2.4,1.2,5,2.1,7.6,2.6c0.6-0.6,1.1-1.2,1.8-1.7c1.3-1.1,2.8-2,4.3-2.7
				c0.7-0.3,1.3-0.6,2-0.8c0,0-0.1-0.1-0.1-0.1L40.5,22c-0.2-0.4-0.4-0.7-0.5-1c-0.4-0.7-0.8-1.3-1.2-1.9c-0.9-1.2-1.9-2.4-3.1-3.4
				c-1.1-1-2.4-1.9-3.7-2.7c-1-0.6-2.1-1.1-3.2-1.6l0.1,0.8c0.1,0.6-0.1,2.9-0.1,3.6c0.1,1.2-4-4-4.3-4.4c0.1,0.4,0.2,1.2,0.3,1.6
				c0.4,1.7,0.6,3.5,0.8,5.2l0.2,1.6l-0.8-1.4C23.9,16.8,22.9,15.4,21.7,14.2L21.7,14.2z"/>
		</g>
		<g>
			<path class="st4" d="M5.2,6.5c0,0,8.2,26.9,24.9,27v3.8c0,0-9.2,0.1-17.5-10.7c0,0-9.1-11.4-8.9-21.2l2-0.7L5.2,6.5z"/>
		</g>
		<g>
			<path class="st5" d="M53.4,49.7c-0.3,0.1-0.7,0.4-1.1,0.6c-0.8,0.4-1.6,0.7-2.4,1c-3.3,1-6.9,1-10.2-0.1c-0.1,0-0.1-0.1-0.2-0.1
				c-0.1,0.5-0.2,1.1-0.4,1.8c0,0,0.1,0,0.1,0.1c0.1,0.1,0.2,0.1,0.3,0.2c0.9,0.7,1.9,1.4,3,1.9c1.6,0.8,4.1,1.6,6.8,1
				c0.1,0,0.1,0,0.2,0c0.5-0.1,1.5-0.4,1.8,0.5c0.1,0.3,0.3,0.7,0.4,1c0.1-0.4,0.1-0.7,0.1-1l0-0.3c0-0.1,0-0.1,0.1-0.2l0.1-0.3
				c0.7-2.9,2.4-4.9,3.5-6c-0.4,0-0.8-0.1-1.1-0.1C54,49.5,53.8,49.6,53.4,49.7L53.4,49.7z"/>
		</g>
		<g>
			<path class="st4" d="M45.2,51.8L43.8,56c0,0-3.8-0.8-4.6-3.1c0.1-0.5,0.4-2.7,0.4-2.7S43.6,52,45.2,51.8z"/>
		</g>
		<g>
			<path class="st1" d="M55.2,56.1c0.1,0.1,3.4,1.4,3.4,1.4l-1.9,1.1c0,0-3.2,1.7-3.4,1.4c-0.1-0.3,0.9-3,0.9-3L55.2,56.1z"/>
		</g>
		<g>
			<path class="st1" d="M50.8,20.9c-0.8,0.1-1.6,0.2-2.4,0.4c-0.8,0.1-1.6,0.3-2.4,0.5c-0.6,0.1-1.3,0.3-1.9,0.5
				c0.1,0.2,0.2,0.5,0.4,0.7c0.2,0.3,0.5,0.6,0.7,0.8c0.5,0.5,1.2,0.8,1.9,1.1c1.4,0.5,3,0.4,4.6,0.2c0.7-0.1,1.5-0.3,2.2-0.6
				c0.7-0.3,1.4-0.7,2-1.2c0.7-0.4,1.4-0.9,2.2-1.2c0.2-0.1,0.4-0.1,0.6-0.2l-1.4-0.4L53,20.4C52.3,20.6,51.5,20.7,50.8,20.9
				L50.8,20.9z"/>
		</g>
		<g>
			<path class="st6" d="M49.5,21l7.1,2.2c0,0,2-1,3.2-1.1l-6.6-1.9l-3.9,0.6L49.5,21z"/>
		</g>
		<g>
			<path class="st1" d="M45.9,21c0.8-0.2,1.6-0.4,2.4-0.6c1.4-0.3,2.8-0.5,4.2-0.6c-0.2-1.4-0.6-2.8-1.4-4.1
				c-0.4-0.7-0.9-1.3-1.4-1.8c-0.6-0.5-1.3-0.9-2-1.2c-0.7-0.3-1.5-0.5-2.3-0.6c-0.4-0.1-0.8-0.1-1.2-0.1c-0.4,0-0.8-0.1-1.2,0
				c-0.1,0-0.3,0-0.5,0c0.1,0,0.3,0.1,0.4,0.1c0.3,0.1,0.7,0.2,1,0.4c0.3,0.2,0.6,0.4,0.9,0.6c0.1,0.1,0.1,0.2,0,0.4
				c-0.1,0.1-0.2,0.1-0.3,0c-0.5-0.3-1.1-0.5-1.8-0.7c-0.5-0.2-1.1-0.3-1.7-0.5c0,0.1-0.1,0.3-0.1,0.5c-0.1,0.2-0.2,0.5-0.4,0.7
				c-0.1,0.1-0.2,0.1-0.4,0c0,0-0.1-0.1-0.1-0.1c-0.1-0.3,0-0.6,0.1-0.8c0,0,0,0,0-0.1c-0.5,0.2-0.9,0.3-1.3,0.6
				c2.2,2.5,3.8,5.5,4.9,8.6C44.5,21.4,45.2,21.3,45.9,21L45.9,21z"/>
		</g>
		<g>
			<path class="st6" d="M40.8,12c-0.2,0.1,7.2,1,8.5,8.4l3.5-0.3c0,0,0.6-7.8-8.9-8.4C43.8,11.7,41.5,11.8,40.8,12L40.8,12z"/>
		</g>
		<g>
			<path class="st5" d="M50.2,13.5c0.7,0.5,1.3,1.2,1.7,1.9c0.9,1.4,1.5,3,1.8,4.6l3.1,0.8c0.7-1.2,1.2-2.6,1.5-4
				c0.3-1.5,0.4-3,0.3-4.6c-0.1-1.5-0.5-3-1-4.5c-0.4-1.2-1-2.4-1.6-3.6c-0.7,0.4-1.4,0.9-2.1,1.4c-0.9,0.6-1.7,1.3-2.5,2
				c-0.8,0.7-1.6,1.5-2.3,2.3c-0.6,0.7-1.1,1.4-1.6,2.2c0.1,0,0.3,0.1,0.5,0.2C48.8,12.6,49.5,13,50.2,13.5L50.2,13.5z"/>
		</g>
		<g>
			<path class="st4" d="M51.9,15.5C52,15.7,52.7,9,57,6.1l-1-2.3c0,0-7.2,4-8.9,8.4C47.1,12.3,50.9,13.5,51.9,15.5z"/>
		</g>
		<g>
			<path class="st6" d="M41.3,11.1c-0.1-0.1-0.2-0.1-0.4-0.1c-0.1,0-0.2,0-0.3,0c-0.3,0.1-0.5,0.2-0.6,0.4C40,11.5,40,11.8,40,11.9
				c0.5-0.2,1.1-0.3,1.7-0.4C41.6,11.3,41.4,11.2,41.3,11.1L41.3,11.1z"/>
		</g>
		<g>
			<path class="st7" d="M65,35.5l-0.1-0.3c0-0.1,0-0.1-0.1-0.1c-0.1-0.1-0.8-0.1-1.2,0c-0.2,0.1-0.5,0.1-0.7,0.2
				c-0.3,0.1-0.7,0.4-0.5,0.6c0.1,0.1,0.4,0.3,0.5,0.4c0.2,0.4,0.5,0.7,0.8,1c0.1,0.2,0.3,0.3,0.4,0.5c0.1,0.1,0.3,0.3,0.4,0.5
				c0.1,0.1,0.3,0.3,0.4,0.4c0,0,0.3,0.2,0.3,0.2c0-0.8,0-1.9-0.2-2.7C65.1,36,65.1,35.8,65,35.5z"/>
		</g>
		<g>
			<path class="st0" d="M58.9,33.4c0.1-0.1,0.3-0.1,0.5-0.1c0.4,0,0.7,0.4,0.6,0.8c0,0.3-0.2,0.5-0.5,0.6c0,0,0,0,0.1,0
				c0.4,0.2,0.8,0.2,1.1-0.1c-0.2-0.7-0.5-1.3-0.7-2c-0.2-0.5-0.4-1.1-0.7-1.6l-0.1,0.2c-0.1,0.2-0.2,0.5-0.2,0.7
				C58.9,32.5,58.8,33,58.9,33.4L58.9,33.4z"/>
		</g>
		<g>
			<path class="st8" d="M56.4,24.1c-0.5,0.3-1,0.7-1.6,1c0.5,0.2,1,0.3,1.4,0.5c0.7,0.2,1.5,0.4,2.3,0.3c0.2,0,0.4,0,0.6-0.1
				c0.2,0,0.4-0.1,0.5-0.1c0.4-0.1,0.7-0.3,0.9-0.5c0.5-0.5,0.6-1.2,0.6-2c0-0.2,0-0.4-0.1-0.5c-0.1-0.1-0.2-0.3-0.3-0.4
				c-0.8,0-1.5,0.2-2.2,0.5C57.9,23.2,57.2,23.7,56.4,24.1L56.4,24.1z"/>
		</g>
		<g>
			<path class="st9" d="M38.5,52.3c0.2-0.5,0.3-1.1,0.3-1.6c-0.1,0-0.2-0.1-0.3-0.1c-0.3,0.2-0.5,0.4-0.6,0.6v0.3
				C38.1,51.8,38.3,52.1,38.5,52.3L38.5,52.3z"/>
		</g>
		<g>
			<path class="st1" d="M51.8,59.6c-0.4-1-0.7-1.9-1.1-2.9c-0.1-0.2-0.5-0.1-1,0c-0.1,0-0.1,0-0.2,0c-2.9,0.6-5.5-0.2-7.3-1.1
				c-1.1-0.5-2.2-1.2-3.1-1.9c-0.1-0.1-0.2-0.1-0.3-0.2c-0.3-0.2-0.6-0.4-0.8-0.7c0,0.7-0.2,1.4-0.5,2l0.4,0.4l0,0
				c0.6,0.6,1.2,1.1,1.9,1.6c2.3,1.6,5,2.7,8,3.2c0.7,0.1,1.6,0.2,2.4,0.3c0.2,0,0.5,0,0.7,0.1c0.2,0,0.5,0.1,0.7,0.1h0.1
				c0.1,0,0.2,0,0.4,0v0C52.1,60.2,52,59.9,51.8,59.6L51.8,59.6z"/>
		</g>
		<g>
			<path class="st1" d="M53,55.4c0.5,0,1.2,0,1.4,0c0.2-0.1,0.3-0.2,0.4-0.4c0.1-0.2,0.1-0.4,0-0.6c-0.2-0.5-0.7-0.6-1.2-0.7
				C53.3,54.2,53.1,54.7,53,55.4L53,55.4z"/>
		</g>
		<g>
			<path class="st10" d="M58.3,40c0-0.2,0.1-0.3,0.3-0.3s0.3,0.1,0.3,0.3s-0.1,0.3-0.3,0.3S58.3,40.2,58.3,40z"/>
		</g>
		<g>
			<path class="st10" d="M60,38.2c0-0.2,0.1-0.3,0.3-0.3s0.3,0.1,0.3,0.3s-0.1,0.3-0.3,0.3S60,38.4,60,38.2z"/>
		</g>
		<g>
			<path class="st10" d="M61.1,39.7c0-0.2,0.1-0.3,0.3-0.3s0.3,0.1,0.3,0.3l0,0c0,0.2-0.1,0.3-0.3,0.3S61.1,39.9,61.1,39.7z"/>
		</g>
		<g>
			<path class="st2" d="M3.6,6.7C4,7,17.3,2.6,29.8,8.6c12.5,6,12.6,13.6,12.6,13.6l1.2,0.2c0,0-2.5-18.4-31.1-19.3L2.7,3.9L3.6,6.7
				z"/>
		</g>
		<g>
			<path class="st2" d="M48.2,12.4c0,0,3.1-5.6,7.8-8.2c0,0,5,9.6,0.2,16.4l0.6,0.4h0.2c0,0,4.3-7,0.9-13.7l-1.6-4.1
				c0,0-7.1,4.1-9.1,9.1L48.2,12.4z"/>
		</g>
		<g>
			<path class="st2" d="M40.4,51.3l-0.6,2.3l-1-0.7l0.4-2.3l1.2,0.2L40.4,51.3z"/>
		</g>
		<g>
			<path class="st2" d="M55.1,49.4c0,0-2.3,1.4-3.7,7.6l0.6,1.7c0,0,0.1-5.7,4.6-9.5L55.1,49.4z"/>
		</g>
		<g>
			<path class="st2" d="M54.6,51.8c0,0,1.6,1.7,0.7,3.4c0,0,0.4-1.5-2-2.2l1-1.7L54.6,51.8z"/>
		</g>
		<g>
			<path class="st2" d="M59,58.2c-1.2-0.3-3-0.9-4.6-2l0.6-0.9c1.4,1,3,1.5,4.2,1.8L59,58.2z"/>
		</g>
		<g>
			<path class="st5" d="M61.1,35.3c-0.4-2.4-3-7-3.5-7.6c0,0-2.1-1.7-2.8-2.1c-0.2-0.1-0.3-0.1-0.5-0.2c-0.8,0.4-1.6,0.6-2.4,0.7
				c-0.8,0.1-1.7,0.2-2.5,0.2c-0.9,0-1.7-0.2-2.5-0.4c-1.6-0.5-2.9-1.7-3.5-3.4c-0.1,0-0.1,0-0.2,0c-0.9,0.3-1.8,0.6-2.6,1
				c-0.8,1.5-1.2,3.1-1.2,4.8c0,6,5.5,10.9,12.2,10.9c1.4,0,2.9-0.2,4.2-0.6c0.2-0.1,0.3-0.2,0.5-0.4c0.8-0.5,1.6-1,2.4-1.4
				c0.5-0.2,1-0.5,1.5-0.7c0.3-0.2,0.8-0.4,1.1-0.6C61.2,35.4,61.1,35.3,61.1,35.3L61.1,35.3z"/>
		</g>
		<g>
			<path class="st2" d="M65.2,38.7c-0.1-0.1-0.3-0.2-0.4-0.4s-0.3-0.3-0.4-0.5c-0.1-0.2-0.3-0.3-0.4-0.5c-0.3-0.3-0.6-0.7-0.8-1
				c-0.2-0.2-0.3-0.5-0.5-0.7c0.8-0.3,1.6-0.5,2-0.5c0,0,0.1,0.1,0.1,0.1l0.1,0.3c0.1,0.2,0.1,0.4,0.1,0.6c0.2,0.8,0.2,1.6,0.2,2.4
				L65.2,38.7L65.2,38.7z M65.1,40.1c0,0.2,0,0.5-0.1,0.7c0,0.1,0,0.1,0,0.2c-0.1,0.4-0.2,0.7-0.3,1.1c-0.3,0.9-0.7,1.7-1.3,2.4
				c-1.2,1.8-3,3-5,3.7c-0.7,0.3-1.5,0.5-2.2,0.7c-0.4,0.1-0.7,0.2-1.1,0.3c-0.4,0.1-0.7,0.2-1.1,0.3c-1.2,0.3-2.4,0.6-3.7,0.7
				c-1,0.1-1.9,0.2-2.9,0.3c-3.4,0.2-7-0.4-9.9-2.2c-3.2-2-5.4-5.4-6-9.2c-0.6-3.7,0.4-7.7,2.7-10.7c2.3-3,5.7-5.1,9.4-5.9
				c0.8,1.7,2.6,2.9,4.4,3.3s3.8,0.1,5.6-0.5c0.3-0.1,0.6-0.2,1-0.1c0.2,0,0.4,0.1,0.6,0.2c0.6,0.4,1.5,1.3,1.8,1.6
				c0,0,0.4,0.5,1,1.3c0,0,0,0.1,0.1,0.1c0.1,0.2,0.3,0.5,0.5,0.7c0.9,1.4,1.9,3.4,2.4,5.5l0.1,0.5c-0.3,0.1-1.2,0.6-2.4,1.2
				c-0.6,0.3-1.2,0.7-1.8,1.1c-1.1,0.7-2.2,1.4-2.7,2.1c0,0,4.1-2.4,7.3-3.8c0.4,0.6,1.8,2.9,3.9,3.5C65.2,39.8,65.1,40.1,65.1,40.1
				L65.1,40.1z M37.9,51.3c0-0.2,0.2-0.5,0.6-0.7c0.1,0,0.2,0.1,0.3,0.1c-0.1,0.5-0.2,1.1-0.3,1.6c-0.2-0.2-0.5-0.5-0.5-0.7
				C38,51.4,37.9,51.3,37.9,51.3L37.9,51.3z M42.2,55.7c1.7,0.8,4.4,1.7,7.3,1.1c0.1,0,0.1,0,0.2,0c0.4-0.1,0.9-0.2,1,0
				c0.4,0.9,0.8,1.9,1.1,2.9c0.1,0.4,0.2,0.7,0.4,1v0h-0.5c-0.2,0-0.5,0-0.8-0.1c-0.2,0-0.4-0.1-0.7-0.1c-0.8,0-1.6-0.1-2.4-0.3
				c-3-0.5-5.8-1.6-8.1-3.2c-0.7-0.5-1.3-1-1.9-1.6l0,0l-0.4-0.4c0.3-0.6,0.4-1.4,0.5-2c0.3,0.2,0.6,0.5,0.8,0.7
				c0.1,0.1,0.2,0.1,0.3,0.2C40.1,54.5,41.1,55.1,42.2,55.7L42.2,55.7z M52.7,56.6l0-0.3c0-0.1,0-0.1,0-0.1c0.4,0,0.8,0,1.4,0
				c-0.5,1-1.1,2.3-1.5,3.4c0-0.1-0.1-0.1-0.1-0.2c0-0.1-0.1-0.3-0.2-0.5C52.5,57.9,52.6,57.1,52.7,56.6L52.7,56.6z M53.6,53.6
				c0.5,0.1,1,0.2,1.2,0.7c0.1,0.1,0.1,0.4,0,0.6c-0.1,0.2-0.2,0.3-0.4,0.4c-0.2,0.1-0.8,0.1-1.4,0C53.1,54.7,53.3,54.1,53.6,53.6
				L53.6,53.6z M11,9.1c0.6,0.1,1.2,0.2,1.9,0.3c1.7,0.4,3.2,1,4.7,1.8c1.5,0.8,2.9,1.8,4.1,3c1.2,1.2,2.2,2.6,3.1,4.1l0.8,1.4
				l-0.2-1.6c-0.2-1.8-0.4-3.5-0.8-5.2c-0.1-0.4-0.2-0.7-0.2-1.1c0,0,3.6,3.7,4.5,6c0,0,0.1-2.6,0.1-3.9c0-0.3-0.1-0.6-0.1-0.9
				c1.3,0.4,8.4,2.9,11.7,9.8c-0.6,0.2-1.2,0.5-1.7,0.7c-1.5,0.7-3,1.6-4.3,2.7c-0.5,0.4-0.9,0.8-1.3,1.3v0
				C16.3,23.4,11.1,9.3,11,9.1L11,9.1z M30,32.5c-0.3,0.8-0.5,1.7-0.7,2.5c-0.1,0.6-0.2,1.2-0.2,1.8C9.4,31.8,4.6,6.6,4.6,6.6
				l0.2-2.2c1.3-0.2,2.7-0.3,4-0.4c2-0.1,4-0.1,6,0c4,0.2,8,0.8,11.8,2.2c3.8,1.3,7.3,3.3,10.2,6.1c2.9,2.7,5,6.1,6.4,9.8
				c-0.7,0.2-1.3,0.4-2,0.6c0-0.1-0.1-0.2-0.1-0.4c0-0.1-0.1-0.3-0.2-0.5c-0.2-0.4-0.3-0.7-0.5-1.1c-0.4-0.7-0.8-1.4-1.2-2
				c-0.9-1.3-1.9-2.5-3.1-3.6c-1.2-1.1-2.4-2.1-3.8-2.9c-1.4-0.8-2.8-1.6-4.3-2.1l-1-0.3l0.2,1c0.1,0.6,0.2,1.2,0.4,1.8
				c0.1,0.6,0.2,1.2,0.3,1.8l0.2,1.5c-0.1-0.2-0.3-0.5-0.4-0.7c-0.5-0.8-1.1-1.7-1.7-2.5c0,0-2.7-3.1-4.2-4.2c0.1,0.2,1.4,2.8,2,6.1
				c0.2,0.7,0.4,1.4,0.5,2.2c-0.6-1-1.3-2-2.2-2.9c-1.2-1.3-2.6-2.4-4.2-3.4c-1.6-0.9-3.2-1.6-4.9-2c-0.9-0.3-1.8-0.4-2.6-0.5
				C9.7,7.6,8.7,7.6,7.8,7.6l-1,0.1l0.4,0.9c1.2,2.5,2.7,4.9,4.4,7.2c1.7,2.2,3.7,4.2,6,5.9c2.2,1.7,4.6,3.2,7.1,4.3
				c2.4,1.1,4.9,2,7.5,2.5l0,0c-0.4,0.5-0.8,1.1-1.1,1.6C30.7,30.9,30.3,31.7,30,32.5L30,32.5z M40.2,12.6c-0.1,0.3-0.1,0.6-0.1,0.8
				c0,0.1,0,0.1,0.1,0.1c0.1,0.1,0.2,0.1,0.4,0c0.2-0.2,0.2-0.5,0.4-0.7c0-0.1,0.1-0.3,0.1-0.5c0.6,0.2,1.1,0.4,1.7,0.5
				c0.6,0.2,1.2,0.4,1.8,0.7c0.1,0.1,0.2,0,0.3,0c0.1-0.1,0.1-0.2,0-0.4c-0.2-0.3-0.6-0.5-0.9-0.6c-0.3-0.2-0.6-0.3-1-0.4
				c-0.1,0-0.3-0.1-0.4-0.1c0.1,0,0.3,0,0.5,0c0.4,0,0.8,0,1.2,0s0.8,0.1,1.2,0.1c0.8,0.1,1.6,0.3,2.3,0.6c0.7,0.3,1.4,0.7,2,1.2
				c0.6,0.5,1.1,1.1,1.4,1.8c0.7,1.2,1.2,2.6,1.4,4.1c-1.4,0.1-2.9,0.3-4.2,0.6c-0.8,0.2-1.6,0.4-2.4,0.6c-0.7,0.2-1.4,0.4-2,0.6
				c-1.1-3.1-2.8-6.1-4.9-8.6C39.4,12.9,39.8,12.7,40.2,12.6C40.3,12.6,40.3,12.6,40.2,12.6L40.2,12.6z M40.1,11.4
				c0.1-0.2,0.3-0.3,0.6-0.4c0.1,0,0.2,0,0.3,0c0.1,0,0.2,0,0.4,0.1c0.2,0.1,0.3,0.3,0.3,0.5c-0.6,0.1-1.1,0.2-1.7,0.4
				C40,11.8,40,11.6,40.1,11.4z M56.6,5.4c0.4,0.7,0.7,1.5,1,2.3c0.5,1.4,0.8,3,1,4.5c0.1,1.5,0,3.1-0.3,4.6c-0.3,1.4-0.8,2.7-1.5,4
				l-3.1-0.8c-0.3-1.7-0.8-3.2-1.8-4.6c-0.5-0.7-1.1-1.3-1.7-1.9c-0.3-0.3-0.7-0.5-1.1-0.7C49,12.7,50.7,8.2,56.6,5.4z M57.5,21.6
				l1.4,0.4c-0.2,0-0.4,0.1-0.6,0.2c-0.8,0.3-1.6,0.7-2.2,1.2c-0.7,0.4-1.4,0.8-2,1.2c-0.7,0.3-1.4,0.5-2.2,0.6
				c-1.5,0.2-3.1,0.2-4.6-0.2c-0.7-0.2-1.4-0.6-1.9-1.1c-0.3-0.2-0.5-0.5-0.7-0.8c-0.1-0.2-0.3-0.5-0.4-0.7c0.6-0.2,1.3-0.4,1.9-0.5
				c0.8-0.2,1.6-0.3,2.4-0.5c0.8-0.1,1.6-0.2,2.4-0.4c0.8-0.1,1.6-0.3,2.3-0.5L57.5,21.6z M60.4,22.5c0.1,0,0.2,0,0.2,0
				c0.1,0,0.2,0.1,0.3,0.3c0.2,0.4,0.2,0.9,0.1,1.3c-0.1,0.4-0.2,0.8-0.5,1.1c-0.3,0.2-0.6,0.4-0.9,0.5c-0.2,0.1-0.4,0.1-0.5,0.1
				c-0.2,0-0.4,0-0.5,0.1c-0.7,0-1.5-0.1-2.2-0.3c-0.5-0.2-1-0.3-1.4-0.5c0.5-0.3,1-0.6,1.5-0.9c0.7-0.4,1.3-0.8,2-1.1
				c0.3-0.1,0.6-0.2,1-0.4C59.8,22.6,60.1,22.5,60.4,22.5L60.4,22.5z M65.6,36c0-0.2-0.1-0.4-0.2-0.6l-0.1-0.3
				c0-0.1-0.1-0.2-0.2-0.4c-0.1-0.2-0.4-0.2-0.6-0.3h0c-0.1,0-0.2,0-0.2,0c-0.2,0-0.3,0-0.4,0.1c-0.5,0.1-1.2,0.3-2.2,0.7
				c0-0.1,0-0.2-0.1-0.3c-0.5-2.2-1.4-4.4-2.5-6.4c-0.7-1.3-1.3-2-1.3-2.1c0.3,0,0.6,0,0.8,0c0.2,0,0.4,0,0.6-0.1
				c0.2,0,0.4-0.1,0.6-0.1c0.4-0.1,0.8-0.3,1.1-0.6c0.3-0.3,0.6-0.7,0.6-1.1c0.1-0.4,0.1-0.8,0.1-1.2c0-0.2-0.1-0.4-0.2-0.6
				c-0.1-0.2-0.3-0.4-0.5-0.6c-0.2-0.1-0.4-0.2-0.6-0.3l-0.6-0.1L57.5,21L57.2,21c0.7-1.2,1.3-2.5,1.6-4c0.4-1.6,0.6-3.2,0.5-4.8
				c-0.1-1.6-0.4-3.2-0.8-4.8c-0.5-1.6-1.1-3-1.8-4.5l-0.3-0.6l-0.6,0.4c-1,0.6-1.9,1.3-2.8,2c-0.9,0.7-1.7,1.5-2.5,2.3
				c-0.8,0.8-1.5,1.7-2.2,2.5c-0.6,0.8-1.1,1.6-1.6,2.4c-0.5-0.1-0.9-0.2-1.4-0.3c-0.8-0.1-1.6-0.2-2.5-0.2c-0.3,0-0.5,0-0.8,0.1
				c-0.1-0.2-0.2-0.6-0.6-0.8c-0.3-0.2-0.6-0.2-1.1-0.1c-0.4,0.1-0.7,0.3-0.9,0.6c-0.2,0.4-0.2,0.8-0.1,1.1
				c-0.3,0.1-0.6,0.3-0.9,0.5c-0.4-0.4-0.7-0.8-1.1-1.1c-2.9-2.9-6.6-5.1-10.4-6.5c-3.9-1.4-8-2.2-12.1-2.4
				c-2.1-0.1-4.1-0.2-6.2-0.1C6.6,2.6,4.6,2.8,2.5,3.2L1.7,3.3L1.8,4C2.2,6,2.5,7.9,3,9.8c0.2,1,0.5,1.9,0.8,2.9
				c0.1,0.5,0.3,0.9,0.5,1.4l0.2,0.7l0.3,0.7c0.7,1.8,1.5,3.6,2.5,5.4c0.9,1.8,2,3.4,3.2,5c2.4,3.2,5.2,6,8.4,8.2
				c3.1,2.2,6.6,3.9,10.3,4.8c0,0.5,0.1,0.9,0.2,1.3c0.4,1.7,1.1,3.3,2.1,4.8c1.6,2.3,3.7,4.1,6.2,5.3c-0.3,0.2-0.5,0.5-0.5,0.8
				c0,0.2,0,0.4,0,0.6c0,0.8,0,2.3-0.5,3c-0.2,0.3,0,0.5,0.7,1.2c0.6,0.6,1.3,1.2,2,1.7c2.4,1.7,5.3,2.8,8.4,3.4
				c0.8,0.1,1.6,0.2,2.5,0.3c0.2,0,0.4,0,0.6,0.1c0.2,0,0.5,0.1,0.8,0.1H52c0.2,0,0.5,0,0.7-0.2c0.1-0.1,0.2-0.2,0.2-0.4
				c0.3-1.3,2.4-5.4,2.4-5.5c0,0,0,0,0-0.1c0.2-0.4,0.2-0.8,0-1.2c-0.3-0.7-0.9-1-1.5-1.1c0.2-0.4,0.4-0.7,0.6-1c-0.3,0-0.6,0-1,0.1
				c-0.6,1-1.2,2.2-1.5,3.6L52,55.9c0,0.1,0,0.1-0.1,0.2l0,0.3c0,0.2-0.1,0.6-0.1,1c-0.1-0.4-0.3-0.7-0.4-1
				c-0.4-0.8-1.3-0.6-1.8-0.5c-0.1,0-0.1,0-0.2,0c-2.7,0.6-5.2-0.2-6.8-1c-1.1-0.5-2.1-1.1-3-1.9c-0.1-0.1-0.2-0.1-0.3-0.2
				c0,0-0.1,0-0.1-0.1c0.2-0.7,0.4-1.3,0.4-1.8c0.1,0,0.1,0,0.2,0.1c1.4,0.5,2.9,0.7,4.3,0.8c0.1,0,0.2,0,0.3,0h0.1
				c0.6,0,1.2,0,1.7,0c8.7-0.2,13.3-2.4,15.6-4.1c0.8-0.5,1.5-1.2,2.1-1.9c1.1-1.4,1.7-3.1,1.9-4.8c0.1-0.8,0.1-1.7,0.1-2.5
				C65.9,37.7,65.8,36.9,65.6,36L65.6,36z"/>
		</g>
		<g>
			<path class="st2" d="M61.8,32.8c0-0.1,0-0.1,0-0.2c-0.2-1.1-0.6-2.2-1-3.2c-0.2-0.5-0.8-0.9-1.4-0.8l-1.4,0.1l-0.6,0.1
				c-0.9,0.1-1.5,0.9-1.4,1.8l0.3,2.2c0.2,1.5,1.6,2.6,3.2,2.4c0,0,0,0,0,0c0.7-0.1,1.3-0.3,1.9-0.6c0.4-0.2,0.6-0.6,0.6-1
				C61.8,33.4,61.8,33.1,61.8,32.8L61.8,32.8z"/>
		</g>
		<g>
			<path class="st6" d="M59,34.2c-0.9,0-1.7-0.7-1.8-1.6l-0.3-2.2c0-0.3,0.2-0.6,0.5-0.6l0.6-0.1l1.4-0.1c0.6,0,0.8,0.6,1,1.1
				c0.1,0.5,0.3,0.9,0.4,1.4s0.3,1.1,0,1.5c-0.2,0.4-1.2,0.5-1.6,0.5H59z"/>
		</g>
		<g>
			<path class="st0" d="M58.5,30.9l0.5,0.2l-0.5,0.3L58.3,32L58,31.5l-0.5-0.2L58,31l0.2-0.5L58.5,30.9z"/>
		</g>
		<g>
			<path class="st2" d="M53.5,31.4c0,0,1-0.7,2.5-0.4l0.2,1.7c0,0-1.9-0.2-2.4,0.6L53.5,31.4z"/>
		</g>
		<g>
			<path class="st2" d="M40.5,36c-0.1,0.1-0.2,0.1-0.2,0.1c-0.1,0-0.2,0-0.3-0.1c-1-1.1-0.7-2.3-0.7-2.4c0-0.2,0.2-0.3,0.4-0.3
				c0.2,0,0.3,0.2,0.3,0.4c0,0-0.2,1,0.5,1.7C40.7,35.7,40.6,35.9,40.5,36L40.5,36z M43.5,34c0.1-0.3-0.2-2.1-0.2-2.1l0.5-1.1
				l-1-0.3c-0.1,0-1.9,1.2-3,1.7c-0.5,0.2-0.9,0.7-1,1.3c0,0,0,0.1,0,0.1c-0.2,1.7,1,3.2,2.6,3.5l5.7,0.4
				C46.9,37.5,43.4,34.2,43.5,34z"/>
		</g>
		<g>
			<path class="st2" d="M39.8,35.1c0,0.5-0.3,1-0.8,1.2c-2.3,1.3-7,2.6-8.1,2.5c-1.4-0.1-0.7-1.6-0.5-1.7c1.3-0.2,7.6-1.7,8.9-2.8
				C39.6,34.1,39.8,34.6,39.8,35.1z"/>
		</g>
		<g>
			<g>
				<path class="st2" d="M55.6,47.1c-1,0.6-2.1,1-3.2,1.2c-1.2,0.2-2.4,0.2-3.5,0c-1.2-0.2-2.3-0.7-3.2-1.5c-1-0.7-1.7-1.7-2.2-2.8
					c1,0.7,1.8,1.3,2.8,1.8c1,0.5,1.9,0.8,2.9,1c1,0.2,2.1,0.3,3.1,0.4C53.4,47.2,54.5,47.2,55.6,47.1L55.6,47.1z"/>
			</g>
			<g>
				<path class="st2" d="M42.4,44.5c-0.2-0.3-0.3-0.8-0.2-1.2c0.1-0.4,0.4-0.8,0.7-1.1c0.7-0.4,1.6-0.4,2.3,0.1
					c-0.8,0.1-1.4,0.2-1.9,0.5c-0.3,0.1-0.5,0.4-0.6,0.6C42.6,43.7,42.5,44.1,42.4,44.5L42.4,44.5z"/>
			</g>
		</g>
		<g>
			<path class="st2" d="M31.2,57.3l0-1.1c3.1-0.1,6-1.7,6-1.8l0.6,1C37.6,55.5,34.5,57.2,31.2,57.3z"/>
		</g>
		<g>
			<g>
				<path class="st2" d="M50.9,37.1l-2.8,0.4c-3,0.4-5.7-1.6-6.1-4.6l-0.1-0.6c-0.1-1,0.6-2,1.6-2.2l7.8-1.1c1-0.1,2,0.6,2.2,1.6
					l0.4,2.6C54,35.1,52.8,36.8,50.9,37.1C51,37.1,50.9,37.1,50.9,37.1L50.9,37.1z"/>
			</g>
			<g>
				<path class="st6" d="M47.4,36.6c-2.2,0-4.1-1.6-4.4-3.7l-0.1-0.6c-0.1-0.5,0.3-0.9,0.7-1c0,0,0,0,0,0l7.8-1.1h0.1
					c0.4,0,0.8,0.3,0.9,0.7l0.4,2.6c0.2,1.3-0.7,2.5-2,2.6L48,36.5C47.8,36.6,47.6,36.6,47.4,36.6L47.4,36.6z"/>
			</g>
		</g>
		<g>
			<path class="st0" d="M45.5,32.3l0.7,0.3l-0.6,0.5l-0.3,0.7l-0.5-0.6l-0.7-0.3l0.6-0.5l0.3-0.7L45.5,32.3z"/>
		</g>
	</g>
</g>
</svg>
