<?xml version="1.0" encoding="utf-8"?>
<!-- Generator: Adobe Illustrator 24.1.2, SVG Export Plug-In . SVG Version: 6.00 Build 0)  -->
<svg version="1.1" id="Layer_1" xmlns="http://www.w3.org/2000/svg" xmlns:xlink="http://www.w3.org/1999/xlink" x="0px" y="0px"
	 viewBox="0 0 34.4 34.4" style="enable-background:new 0 0 34.4 34.4;" xml:space="preserve">
<style type="text/css">
	.st0{fill:#FFFFFF;}
	.st1{fill:none;stroke:#0E294A;stroke-width:1.57;stroke-miterlimit:20;}
	.st2{fill:#F26522;}
	.st3{fill:#0E294A;}
</style>
<g>
	<g>
		<g>
			<g>
				<path class="st0" d="M0.8,17.2c0-9.1,7.3-16.4,16.4-16.4s16.4,7.3,16.4,16.4s-7.3,16.4-16.4,16.4S0.8,26.2,0.8,17.2z"/>
				<path class="st1" d="M0.8,17.2c0-9.1,7.3-16.4,16.4-16.4s16.4,7.3,16.4,16.4s-7.3,16.4-16.4,16.4S0.8,26.2,0.8,17.2z"/>
			</g>
			<g>
				<path class="st2" d="M27.1,23.5l-6.3-6.3l6.3-6.3L27.1,23.5z M8.2,24.4l6.3-6.3l2.2,2.2c0.3,0.3,0.7,0.3,0.9,0l2.2-2.2l6.3,6.3
					L8.2,24.4z M7.3,23.5V10.9l6.3,6.3L7.3,23.5z M26.1,10l-8.9,8.9l-9-8.9L26.1,10z M26.4,8.7H8c-1.1,0-2,0.9-2,2v13.1
					c0,1.1,0.9,2,2,2h18.4c1.1,0,2-0.9,2-2V10.6C28.4,9.5,27.5,8.7,26.4,8.7z"/>
			</g>
			<g>
				<path class="st3" d="M26.5,23.1l-5.9-5.9l5.9-5.9V23.1z M8.8,24l6-6l2.1,2.1c0.2,0.2,0.6,0.2,0.9,0l2-2l5.9,5.9L8.8,24z
					 M7.9,23.1V11.3l6,5.9L7.9,23.1z M25.6,10.4l-8.4,8.4l-8.5-8.4L25.6,10.4z M25.9,9.2H8.5c-1,0-1.9,0.8-1.9,1.9v12.4
					c0,1,0.8,1.9,1.9,1.9h17.4c1,0,1.9-0.8,1.9-1.9V11C27.7,10,26.9,9.2,25.9,9.2z"/>
			</g>
		</g>
	</g>
</g>
</svg>
