<svg xmlns="http://www.w3.org/2000/svg" width="47" height="30" viewBox="0 0 47 30"><g><g><g><path fill="#f26522" d="M44.42 24.752a2.934 2.934 0 0 1-2.93 2.931H5.266a2.934 2.934 0 0 1-2.93-2.93V5.247a2.934 2.934 0 0 1 2.93-2.93H41.49a2.934 2.934 0 0 1 2.931 2.93zm1.954-19.504A4.89 4.89 0 0 0 41.489.363H5.267A4.89 4.89 0 0 0 .383 5.248v19.504a4.89 4.89 0 0 0 4.884 4.885H41.49a4.89 4.89 0 0 0 4.885-4.885z"/></g></g><g><g><path fill="#0e294a" d="M43.112 24.146a2.752 2.752 0 0 1-2.748 2.749H6.393a2.752 2.752 0 0 1-2.749-2.749V5.854a2.752 2.752 0 0 1 2.749-2.749h33.97a2.752 2.752 0 0 1 2.75 2.749zm1.833-18.292a4.587 4.587 0 0 0-4.581-4.581H6.393a4.587 4.587 0 0 0-4.581 4.581v18.292a4.586 4.586 0 0 0 4.58 4.581h33.972a4.586 4.586 0 0 0 4.58-4.58z"/></g><g><path fill="#0e294a" d="M38.172 21.13h-9.009a.916.916 0 1 0 0 1.833h9.01a.916.916 0 1 0 0-1.832zm0-4.504h-9.009a.916.916 0 1 0 0 1.832h9.01a.916.916 0 1 0 0-1.832zM21.33 21.13H7.174a.916.916 0 1 0 0 1.832h14.155a.916.916 0 1 0 0-1.832zM16.459 15a3.958 3.958 0 0 1-3.953-3.953 3.958 3.958 0 0 1 3.954-3.954 3.958 3.958 0 0 1 3.953 3.954A3.957 3.957 0 0 1 16.46 15zm-8.816-3.95c0-2.183 1.77-3.959 3.947-3.959.208 0 .41.02.612.052a5.757 5.757 0 0 0-1.529 3.904c0 1.503.582 2.87 1.525 3.9-.2.03-.402.05-.608.05a3.951 3.951 0 0 1-3.947-3.946zm8.817-5.79c-.872 0-1.696.2-2.437.546a5.79 5.79 0 0 0-2.433-.547 5.785 5.785 0 1 0 0 11.57c.842 0 1.67-.193 2.428-.544a5.743 5.743 0 0 0 2.442.547 5.792 5.792 0 0 0 5.785-5.785 5.793 5.793 0 0 0-5.785-5.786z"/></g></g></g></svg>