<svg xmlns="http://www.w3.org/2000/svg" width="48" height="48" viewBox="0 0 48 48"><g><g><g><g><path fill="#f26522" d="M2.27 46.783l-.662-.572c-1.605-1.38-1.889-3.905-.425-5.524l17.19-19.81c1.37-1.62 3.872-1.905 5.478-.43l.661.572c1.606 1.381 1.889 3.905.425 5.524L7.747 46.354c-1.369 1.62-3.777 1.81-5.477.429z"/></g><g opacity=".4"><path fill="#f26522" d="M16.059 24.305l-.33-.38-2.645 3.047.283.333c4.534 4.572 2.597 9.191 1.558 10.81l.378-.428c.614-.714 1.559-1.81 2.55-3 1.04-1.81 2.503-6.096-1.794-10.382z"/></g><g opacity=".4"><path fill="#f26522" d="M21.726 30.258l.708-.81c.047-.095.142-.19.189-.285-.756.857-1.558 1.762-2.314 2.667a116.79 116.79 0 0 0 1.417-1.572z"/></g><g><path fill="#f26522" d="M25.032 21.496L7.842 1.685C6.472.065 3.97-.22 2.364 1.256l-.661.572c-1.606 1.38-1.89 3.905-.425 5.524l14.498 16.572.33.381c4.298 4.334 2.834 8.62 1.747 10.43.85-1 1.7-2 2.503-2.905.756-.905 1.559-1.81 2.314-2.667.756-.858 1.464-1.667 1.937-2.191 1.652-1.62 1.888-3.857.425-5.476z"/></g></g><g><g><path fill="#f26522" d="M24.087 46.783l-.661-.572c-1.606-1.38-1.89-3.905-.425-5.524l17.19-19.81c1.369-1.62 3.872-1.905 5.478-.43l.66.572c1.606 1.381 1.89 3.905.425 5.524L29.565 46.354c-1.37 1.62-3.778 1.81-5.478.429z"/></g><g opacity=".4"><path fill="#f26522" d="M38.066 24.115l-.331-.381-2.645 3.048.283.333c4.534 4.572 2.598 9.191 1.559 10.81l.378-.428c.614-.715 1.559-1.81 2.55-3 1.04-1.81 2.503-6.096-1.794-10.382z"/></g><g opacity=".4"><path fill="#f26522" d="M43.496 30.258l.709-.81c.046-.095.141-.19.189-.285-.756.857-1.559 1.762-2.314 2.667.566-.62 1.086-1.143 1.416-1.572z"/></g><g><path fill="#f26522" d="M46.802 21.496L29.612 1.685c-1.37-1.62-3.872-1.905-5.478-.429l-.66.572c-1.607 1.38-1.89 3.905-.426 5.524l14.498 16.572.33.381c4.297 4.334 2.834 8.62 1.747 10.43.85-1 1.701-2 2.504-2.905.755-.905 1.558-1.81 2.314-2.667.756-.858 1.464-1.667 1.936-2.191 1.652-1.62 1.888-3.857.425-5.476z"/></g></g></g><g><g><g><path fill="#0e294a" d="M4.457 44.49l-.595-.514c-1.444-1.242-1.699-3.512-.382-4.968L18.94 21.19c1.23-1.456 3.482-1.713 4.926-.386l.595.514c1.444 1.242 1.698 3.512.382 4.969L9.383 44.104c-1.231 1.457-3.397 1.628-4.926.386z"/></g><g opacity=".4"><path fill="#0e294a" d="M16.858 24.275l-.297-.343-2.378 2.741.254.3c4.078 4.111 2.336 8.266 1.402 9.722l.34-.385c.552-.643 1.401-1.628 2.293-2.699.934-1.627 2.251-5.482-1.614-9.336z"/></g><g opacity=".4"><path fill="#0e294a" d="M21.955 29.628l.637-.728c.042-.086.127-.171.17-.257-.68.771-1.402 1.585-2.081 2.399.51-.557.934-1.028 1.274-1.414z"/></g><g><path fill="#0e294a" d="M24.928 21.748L9.468 3.93c-1.231-1.456-3.482-1.713-4.926-.386l-.595.514c-1.444 1.242-1.699 3.512-.382 4.969l13.038 14.904.298.343c3.865 3.897 2.548 7.752 1.571 9.38.765-.9 1.53-1.8 2.251-2.613.68-.814 1.402-1.628 2.081-2.399.68-.77 1.317-1.499 1.742-1.97 1.486-1.456 1.698-3.47.382-4.925z"/></g></g><g><g><path fill="#0e294a" d="M24.078 44.49l-.594-.514c-1.444-1.242-1.7-3.512-.383-4.968l15.46-17.817c1.232-1.456 3.482-1.713 4.927-.386l.594.514c1.444 1.242 1.7 3.512.382 4.969l-15.46 17.816c-1.23 1.457-3.397 1.628-4.926.386z"/></g><g opacity=".4"><path fill="#0e294a" d="M36.65 24.103l-.298-.342-2.378 2.74.255.3c4.077 4.112 2.336 8.267 1.401 9.723l.34-.386c.552-.642 1.402-1.627 2.294-2.698.934-1.627 2.25-5.482-1.614-9.337z"/></g><g opacity=".4"><path fill="#0e294a" d="M41.534 29.628l.637-.728c.042-.086.127-.171.17-.257-.68.771-1.402 1.585-2.081 2.399.51-.557.977-1.028 1.274-1.414z"/></g><g><path fill="#0e294a" d="M44.507 21.748L29.047 3.93c-1.231-1.456-3.482-1.713-4.926-.386l-.595.514c-1.444 1.242-1.699 3.512-.382 4.969l13.039 14.904.296.343c3.865 3.897 2.549 7.752 1.572 9.38.765-.9 1.53-1.8 2.251-2.613.68-.814 1.401-1.628 2.082-2.399.68-.77 1.316-1.499 1.74-1.97 1.487-1.456 1.699-3.47.383-4.925z"/></g></g></g></g></svg>