<svg xmlns="http://www.w3.org/2000/svg" width="56" height="50" viewBox="0 0 56 50"><g><g><path fill="#f26522" d="M53.58 32.64c-.482 0-.79-.631-.924-1.438.103-.344.167-.7.167-1.061 0-.366-.056-.707-.145-1.024.144-.747.445-1.314.902-1.314zm-2.419-19.1a2.42 2.42 0 0 1 2.42 2.42v9.676l-1.06.46c-2.307 0-.407 1.023.157 3.021a6.231 6.231 0 0 0-.022 2.085c-.661 2.192-2.941 3.912-.631 3.912l1.555.198v8.467a3.628 3.628 0 0 1-3.629 3.629H6.408a3.63 3.63 0 0 1-3.629-3.629V12.87a4.784 4.784 0 0 0 2.42.672H51.16zm-2.518-1.012h-5.364l-2.181-6.026 5.225-.219a2.42 2.42 0 0 1 2.419 2.42zm-6.284.321l-27.55.02 15.116-6.586h.012l6.67-2.419h-.004l2.48-.899h.002l1.284 3.537zM25.003 7.485C9.578 12.283 9.61 12.665 9.593 12.67H8.98l-3.822-.368c-1.335 0-2.378-2.265-2.378-3.6a2.42 2.42 0 0 1 2.42-2.42zm30.996 8.475a4.838 4.838 0 0 0-4.838-4.839V8.702a4.838 4.838 0 0 0-4.838-4.838h-4.365l-1.032-2.836a1.198 1.198 0 0 0-1.534-.713l-9.796 3.55H5.198A4.838 4.838 0 0 0 .36 8.701V43.78a6.047 6.047 0 0 0 6.048 6.048H49.95A6.047 6.047 0 0 0 56 43.779z"/></g><g><path fill="#0e294a" d="M47.38 31.244h2.26v-2.26h-2.26zm0 1.129a2.26 2.26 0 0 1 0-4.518h4.518v4.518zm2.26-18.071a2.26 2.26 0 0 1 2.258 2.259v9.035H47.38a4.518 4.518 0 0 0 0 9.036h4.518v7.906a3.388 3.388 0 0 1-3.388 3.388H7.85a3.389 3.389 0 0 1-3.389-3.388V13.675a4.467 4.467 0 0 0 2.26.627h42.918zm-2.26-2.26h-3.872l-1.643-4.517h3.257a2.26 2.26 0 0 1 2.258 2.259zm-6.25 0H17.342L29.81 7.526h.01l6.229-2.259h-.004l2.317-.839 1.2 3.303zM23.267 7.526L10.863 12.02c-.015.006-.024.018-.038.024H6.72a2.26 2.26 0 0 1 0-4.518zm30.89 9.036a4.518 4.518 0 0 0-4.518-4.518V9.784a4.518 4.518 0 0 0-4.517-4.518h-4.077l-.963-2.648a1.118 1.118 0 0 0-1.432-.666l-9.148 3.314H6.72a4.518 4.518 0 0 0-4.518 4.518v32.754a5.646 5.646 0 0 0 5.648 5.647h40.66a5.646 5.646 0 0 0 5.647-5.647z"/></g></g></svg>