<?xml version="1.0" encoding="utf-8"?>
<!-- Generator: Adobe Illustrator 24.1.2, SVG Export Plug-In . SVG Version: 6.00 Build 0)  -->
<svg version="1.1" id="Layer_1" xmlns="http://www.w3.org/2000/svg" xmlns:xlink="http://www.w3.org/1999/xlink" x="0px" y="0px"
	 viewBox="0 0 27 27" style="enable-background:new 0 0 27 27;" xml:space="preserve">
<style type="text/css">
	.st0{fill:#FFFFFF;}
</style>
<g>
	<g>
		<path class="st0" d="M20.3,16.9c3.7,0,6.8,3,6.8,6.8l0,0v0.8c0,1.4-1.1,2.5-2.5,2.5h-22C1.1,27,0,25.9,0,24.5v-0.8
			c0-3.7,3-6.8,6.8-6.8l0,0h2.9c1.2,0.6,2.5,0.8,3.9,0.8c1.3,0,2.6-0.3,3.9-0.8C17.5,16.9,20.3,16.9,20.3,16.9z M5.9,7.6
			C5.9,3.4,9.3,0,13.5,0s7.6,3.4,7.6,7.6s-3.4,7.6-7.6,7.6S5.9,11.8,5.9,7.6z"/>
	</g>
</g>
</svg>
