<?xml version="1.0" encoding="utf-8"?>
<!-- Generator: Adobe Illustrator 24.1.2, SVG Export Plug-In . SVG Version: 6.00 Build 0)  -->
<svg version="1.1" id="Layer_1" xmlns="http://www.w3.org/2000/svg" xmlns:xlink="http://www.w3.org/1999/xlink" x="0px" y="0px"
	 viewBox="0 0 34.4 34.4" style="enable-background:new 0 0 34.4 34.4;" xml:space="preserve">
<style type="text/css">
	.st0{fill:#FFFFFF;}
	.st1{fill:none;stroke:#0E294A;stroke-width:1.57;stroke-miterlimit:20;}
	.st2{fill:none;stroke:#F26522;stroke-miterlimit:20;}
	.st3{fill:none;stroke:#0E294A;stroke-miterlimit:20;}
</style>
<g>
	<g>
		<g>
			<g>
				<path class="st0" d="M0.8,17.2c0-9.1,7.3-16.4,16.4-16.4s16.4,7.3,16.4,16.4s-7.3,16.4-16.4,16.4S0.8,26.2,0.8,17.2z"/>
				<path class="st1" d="M0.8,17.2c0-9.1,7.3-16.4,16.4-16.4s16.4,7.3,16.4,16.4s-7.3,16.4-16.4,16.4S0.8,26.2,0.8,17.2z"/>
			</g>
			<g>
				<path class="st2" d="M25.9,8.7L25.9,8.7l-3.8-0.9c-0.4-0.1-1.2,0-1.4,0.4l-1.8,4.1c-0.2,0.4-0.4,1.3-0.1,1.5l2.2,1.6
					c-1.3,2.8-2.6,4.3-5.5,5.6l-1.8-2c-0.3-0.3-1.1-0.2-1.4,0l-4.1,1.8c-0.4,0.2-0.5,0.9-0.4,1.3l0.9,3.8c0.1,0.4,0.4,0.7,0.9,0.7
					c9.4,0,17-7.6,17-17C26.6,9.1,26.3,8.8,25.9,8.7z"/>
			</g>
			<g>
				<path class="st3" d="M25.2,9.3L25.2,9.3l-3.5-0.8c-0.4-0.1-0.8,0.1-0.9,0.5l-1.6,3.8c-0.1,0.3,0,0.7,0.2,1l2.1,1.7
					c-1.2,2.6-3.4,4.8-6,6l-1.7-2.1c-0.2-0.3-0.6-0.4-1-0.2L9,20.8c-0.4,0.2-0.6,0.6-0.5,0.9l0.8,3.5c0.1,0.4,0.4,0.6,0.8,0.6
					c8.7,0,15.8-7,15.8-15.8C25.9,9.7,25.6,9.4,25.2,9.3z"/>
			</g>
		</g>
	</g>
</g>
</svg>
