<?xml version="1.0" encoding="utf-8"?>
<!-- Generator: Adobe Illustrator 24.1.2, SVG Export Plug-In . SVG Version: 6.00 Build 0)  -->
<svg version="1.1" id="Layer_1" xmlns="http://www.w3.org/2000/svg" xmlns:xlink="http://www.w3.org/1999/xlink" x="0px" y="0px"
	 viewBox="0 0 22.7 13" style="enable-background:new 0 0 22.7 13;" xml:space="preserve">
<style type="text/css">
	.st0{fill:#35BDB2;}
	.st1{fill:#61B4D0;}
	.st2{fill:#007985;}
	.st3{fill:#0E294A;}
	.st4{fill:none;stroke:#0E294A;stroke-width:0.31;stroke-linecap:round;stroke-miterlimit:20;}
</style>
<g>
	<g>
		<g>
			<g>
				<g>
					<path class="st0" d="M9.6,7.9L10,8.3c0.3,0.1,0.4,0.3,0.7,0.4c0.5,0.3,1.1,0.4,1.7,0.4c1.1,0,2.3-0.3,3.4-0.7
						c0.5-0.3,1.1-0.6,1.5-0.8l1.2-1.2c0.4-0.4,0.8-0.8,1.4-1.2C20.1,5,20.2,5,20.3,4.9h-4.5C14.7,5.1,12.3,5.8,9.6,7.9z"/>
				</g>
				<g>
					<path class="st1" d="M12.6,6l5.9,0.4c0,0,1.2-1.1,2.1-1.4l-5.1-0.3L12.6,6L12.6,6z"/>
				</g>
				<g>
					<path class="st0" d="M10.7,6.9l1.7-0.8c1-0.4,2.3-1,3.4-1.4c-0.4-1-1-1.9-1.8-2.8c-0.4-0.4-1-0.8-1.5-1.1s-1.1-0.5-1.8-0.5
						c-0.5-0.1-1.2,0-1.9,0c-0.3,0-0.7,0.1-1,0.1C7.5,0.5,5.6,1,5.6,1C5.2,1.3,5.3,1.6,5.5,2.5C6.8,6,7.5,6.7,9,8
						C9.5,7.6,10.1,7.2,10.7,6.9z"/>
				</g>
				<g>
					<path class="st1" d="M5.5,1.3C5.4,1.4,10.7,0.9,13.1,6l2.5-0.8c0,0-1-5.6-8.1-4.4C7.4,0.6,6,1,5.5,1.3L5.5,1.3z"/>
				</g>
				<g>
					<path class="st1" d="M5.5,0.5H5.2c0,0-0.1,0-0.1,0.1L4.6,1v0.4C4.9,1.2,5.3,1,5.7,0.8C5.6,0.6,5.6,0.5,5.5,0.5z"/>
				</g>
				<g>
					<path class="st2" d="M18.8,7.1l-1,1c0.4,0,0.8,0,1.1,0.1c0.5,0,1.1,0,1.7-0.1C20.7,8.1,20.9,8,21,8c0.1,0,0.3-0.1,0.4-0.1
						c0.3-0.1,0.4-0.3,0.5-0.6c0.3-0.4,0.3-1,0-1.5c0-0.1-0.1-0.3-0.1-0.3c-0.1-0.1-0.1-0.1-0.3-0.1C21,5.5,20.4,5.8,20,6.2
						C19.8,6.1,19.4,6.7,18.8,7.1L18.8,7.1z"/>
				</g>
				<g>
					<path class="st3" d="M22.3,6.2c0,0.1,0,0.3,0,0.4c0.1-0.2,0.2-0.4,0.2-0.7c0.3,0.1,0.1-0.3,0.1-0.6c0-0.1-0.1-0.3-0.3-0.4
						c-0.1-0.1-0.3-0.3-0.4-0.3c-0.1,0-0.3-0.1-0.5-0.1h-5.1c-0.5-1.1-1.2-2.2-2.2-3c-0.5-0.4-1-0.8-1.7-1c-0.3-0.1-0.7-0.3-1-0.3
						c0,0-0.7-0.1-1.7-0.1H8.6c-0.7,0-1.2,0.1-1.9,0.3c-0.1,0-0.4,0.1-0.5,0.1C6.1,0.4,5.9,0.1,5.6,0S5.1,0,4.8,0.1S4.4,0.5,4.3,0.8
						s0,0.7,0.1,0.8C4.2,1.8,4.1,1.9,3.9,2C3.8,2,3.8,2.1,3.6,2.1L3.3,2.2c-0.8,0.7-1.8,1.7-2.5,3C0.4,6.1,0.1,7,0,8
						c0,0-0.4,2.1,1.4,4.5c0.1,0.1,0.3,0.4,0.4,0.5c0,0,2.9-2.3,5.8-4.4l0.1-0.1c0.1-0.1,0.4-0.3,0.5-0.4L8.6,8
						c0.3,0.4,0.7,0.7,1.1,0.8c0.1,0.1,0.4,0.3,0.5,0.3c1.5,0.7,3.4,0.7,5.8-0.4c0.4-0.1,1-0.6,1.2-0.7L18,8.1
						c0.7,0.1,1.7,0.1,2.7-0.3c0,0,0,0-0.1,0c-0.4,0.2-1,0.4-1.5,0.2c-0.4,0-0.8,0-1.1-0.1l1-1c0.4-0.4,0.8-0.8,1.2-1.1
						c0.3-0.1,0.4-0.3,0.7-0.4c0.1-0.1,0.4-0.1,0.5-0.3h0.2c0.1,0,0.1,0.1,0.3,0.1C22.1,5.6,22.1,6,22.3,6.2z M22.1,7.1
						c-0.1,0.2-0.3,0.4-0.5,0.6c-0.1,0.1-0.3,0.1-0.4,0.1h-0.1c0.2-0.1,0.4-0.2,0.5-0.3c0.1-0.1,0.4-0.3,0.5-0.6
						c0-0.1,0.1-0.2,0.1-0.2C22.2,6.8,22.2,7,22.1,7.1z M17,7.8c-0.4,0.3-1,0.7-1.5,0.8c-1.1,0.4-2.2,0.7-3.3,0.7
						c-0.5,0-1.1-0.1-1.7-0.4c-0.3-0.1-0.4-0.3-0.7-0.4L9.5,8c1.9-1.3,4-2.2,6.2-2.9h4.5c-0.1,0-0.3,0.1-0.4,0.3
						c-0.5,0.4-1,0.8-1.4,1.2C18,6.9,17.6,7.4,17,7.8L17,7.8z M9.2,7.6c-1-0.8-1.8-1.8-2.3-2.9C6.6,4.1,6.2,3.6,6.1,2.9L5.6,1.3h0.8
						c1,0,1.9,0.3,1.9,0.3s0.1,0,0.1-0.1V1.2C8.1,1.1,7.9,0.9,7.7,0.9c-0.3,0-0.5-0.1-0.8-0.1H6.6c0.1,0,0.3-0.1,0.3-0.1
						c0.3-0.1,0.5-0.1,0.8-0.1c0.3,0,0.5-0.1,0.8-0.1h1.8c0.5,0.1,1.1,0.3,1.7,0.6c0.6,0.3,1,0.6,1.4,1c0.8,0.7,1.5,1.7,1.9,2.6
						c-1.1,0.3-2.2,0.8-3.2,1.2l-1.5,0.6c-0.1,0.1-0.3,0.1-0.4,0.3L9.2,7.6z M1.9,12.6c0,0-0.1-0.1-0.4-0.6
						c-1.1-1.7-1.4-3.8-0.7-5.6c0.3-0.6,0.4-1.1,0.8-1.5l0.1-0.1c0-0.1,0.1-0.1,0.1-0.3c0.5-1,1.2-1.7,1.9-2.1c0,0,0.1,0,0.1-0.1
						c0.5-0.4,1.1-0.7,1.4-0.8C5.3,2.7,5.7,4,6.3,5.1s1.4,2.1,2.2,3C6.4,9.3,1.9,12.6,1.9,12.6z M4.5,0.9c0-0.1,0.1-0.3,0.4-0.4
						c0,0,0.1,0,0.1-0.1h0.3c0.1,0,0.3,0.1,0.3,0.3C5.2,0.8,4.8,1,4.5,1.3V0.9z M21,7.8L21,7.8C20.9,7.9,20.9,7.8,21,7.8z"/>
				</g>
				<g>
					<path class="st2" d="M8.5,8C6.4,9.2,2,12.7,2,12.7s-0.1-0.1-0.4-0.6c-1.1-1.7-1.4-3.8-0.7-5.6C1.2,6,1.3,5.4,1.8,5l0.1-0.1
						C1.9,4.8,2,4.8,2,4.6c0.5-1,1.2-1.7,1.9-2.1c0,0,0.1,0,0.1-0.1C4.6,2,5.2,1.7,5.5,1.6C5.6,2.8,6,4,6.6,5.1
						C6.8,6.1,7.7,7.1,8.5,8z"/>
				</g>
				<g>
					<path class="st4" d="M5.5,1.2c0,0-1.4,0.8-1.8,2.6"/>
				</g>
			</g>
		</g>
	</g>
</g>
</svg>
