<?xml version="1.0" encoding="utf-8"?>
<!-- Generator: Adobe Illustrator 24.1.2, SVG Export Plug-In . SVG Version: 6.00 Build 0)  -->
<svg version="1.1" id="Layer_1" xmlns="http://www.w3.org/2000/svg" xmlns:xlink="http://www.w3.org/1999/xlink" x="0px" y="0px"
	 viewBox="0 0 34.4 34.4" style="enable-background:new 0 0 34.4 34.4;" xml:space="preserve">
<style type="text/css">
	.st0{fill:#FFFFFF;}
	.st1{fill:none;stroke:#0E294A;stroke-width:1.57;stroke-miterlimit:20;}
	.st2{fill:none;stroke:#F26522;stroke-miterlimit:20;}
	.st3{fill:none;stroke:#0E294A;stroke-miterlimit:20;}
</style>
<g>
	<g>
		<g>
			<g>
				<path class="st0" d="M0.8,17.2c0-9.1,7.3-16.4,16.4-16.4s16.4,7.3,16.4,16.4s-7.3,16.4-16.4,16.4S0.8,26.2,0.8,17.2z"/>
				<path class="st1" d="M0.8,17.2c0-9.1,7.3-16.4,16.4-16.4s16.4,7.3,16.4,16.4s-7.3,16.4-16.4,16.4S0.8,26.2,0.8,17.2z"/>
			</g>
			<g>
				<path class="st2" d="M17.2,7.2c-3.9,0-7,3-7,6.8c0,5.3,7,14.3,7,14.3l0,0c0,0,7-9,7-14.3C24.2,10.2,21.1,7.2,17.2,7.2L17.2,7.2z
					"/>
			</g>
			<g>
				<path class="st3" d="M17.2,16.4c-1.2,0-2.1-0.9-2.1-2.1c0-1.2,0.9-2.1,2.1-2.1c0,0,0,0,0,0c1.2,0,2.1,0.9,2.1,2.1
					C19.3,15.5,18.3,16.4,17.2,16.4z M17.2,7.9c-3.6,0-6.5,2.7-6.5,6c0,4.7,6.5,12.7,6.5,12.7s6.5-8,6.5-12.7
					C23.6,10.5,20.8,7.9,17.2,7.9z"/>
			</g>
		</g>
	</g>
</g>
</svg>
