<svg xmlns="http://www.w3.org/2000/svg" width="18" height="15" viewBox="0 0 18 15"><g><g><g><path fill="#f26522" d="M8.76 4.749a2.374 2.374 0 0 1 2.386 2.367l-.016.125-2.507-2.488zM4.772 7.096c0 2.18 1.785 3.948 3.98 3.948.629 0 1.218-.156 1.75-.417L9.267 9.404c-.164.04-.34.063-.515.063A2.374 2.374 0 0 1 6.366 7.1c0-.172.023-.348.062-.512L5.194 5.366a3.901 3.901 0 0 0-.422 1.73zM1.804 0l14.11 13.993-1.011 1.004-2.332-2.305-.335-.331a9.436 9.436 0 0 1-3.484.663A9.407 9.407 0 0 1 0 7.104a9.292 9.292 0 0 1 2.98-3.937l-.367-.363-1.816-1.8zm6.948 3.156c-.516 0-1.004.105-1.457.285L5.577 1.734A9.417 9.417 0 0 1 17.5 7.104a9.336 9.336 0 0 1-2.73 3.749l-2.324-2.304c.184-.45.286-.934.286-1.445 0-2.18-1.785-3.948-3.98-3.948z"/></g></g></g></svg>