<svg xmlns="http://www.w3.org/2000/svg" width="23" height="22" viewBox="0 0 23 22"><g><g><path fill="none" stroke="#f26522" stroke-miterlimit="20" stroke-width="2" d="M21.423 10.38a1.89 1.89 0 0 0 .482-1.952 1.891 1.891 0 0 0-1.537-1.295l-4.46-.649a.696.696 0 0 1-.524-.38l-1.995-4.043a1.892 1.892 0 0 0-1.707-1.06c-.73 0-1.384.406-1.707 1.06L7.98 6.104a.695.695 0 0 1-.523.38l-4.462.648A1.891 1.891 0 0 0 1.46 8.428a1.89 1.89 0 0 0 .481 1.951l3.229 3.147c.163.16.238.39.2.615l-.763 4.443c-.123.72.167 1.433.758 1.862.59.429 1.358.484 2.004.145l3.99-2.098a.695.695 0 0 1 .647 0l3.99 2.098c.647.34 1.415.284 2.005-.145.59-.429.88-1.142.757-1.862l-.762-4.443a.695.695 0 0 1 .2-.615z"/></g></g></svg>