<?xml version="1.0" encoding="utf-8"?>
<!-- Generator: Adobe Illustrator 24.1.2, SVG Export Plug-In . SVG Version: 6.00 Build 0)  -->
<svg version="1.1" id="Layer_1" xmlns="http://www.w3.org/2000/svg" xmlns:xlink="http://www.w3.org/1999/xlink" x="0px" y="0px"
	 viewBox="0 0 104.1 38.9" style="enable-background:new 0 0 104.1 38.9;" xml:space="preserve">
<style type="text/css">
	.st0{fill:#FFFFFF;}
	.st1{fill:#F26522;}
</style>
<g>
	<g>
		<g>
			<path class="st0" d="M23.4,0.5l-1,8.2l-12,1.1l0.2,2.6l8.5-0.2l-0.6,5.5l-7.3,0.6l1.1,10.1l-9,1.2L0,2.2L23.4,0.5z"/>
		</g>
		<g>
			<path class="st0" d="M27.1,23.7C27,22.6,28,22.1,30,22.1l1.8,0l0.2,2c-1.2,0.2-2.2,0.4-3,0.4C28,24.4,27.3,24.2,27.1,23.7z
				 M31.7,8.4c-4.4-0.1-8,1.9-10.7,6.1l4.4,3.5c2.1-2.3,3.7-3.5,5-3.4c0.7,0.1,1.1,1.3,1.2,3.7c-1.6-0.2-3.2-0.2-4.8,0
				c-3.9,0.5-5.8,2.2-5.8,5.2c0.2,3.5,2.1,5.6,5.5,6.2c2.1,0,4.1-0.3,6-1.1l0.2,1.3l6.7-1.9c-0.2-3.4-0.7-7.4-1.3-12
				C37.2,10.7,35.1,8.3,31.7,8.4L31.7,8.4z"/>
		</g>
		<g>
			<path class="st0" d="M49.3,16.3c1.4-0.1,2.5,0,3.4,0.5l0.2,6.8l-2.2,0.1c-2,0-3.1-1.3-3.2-3.9l0-1C47.4,17.4,48,16.6,49.3,16.3z
				 M53.3,0.2c-0.4,5.7-0.6,9.5-0.6,11.2c-1.2-1-2.6-1.5-4-1.6c-2.2-0.1-4.1,0.5-5.8,1.9c-1.7,1.4-2.5,3.8-2.4,7.3l0.1,1.9
				c0.1,1.6,0.2,2.8,0.5,3.7c1.1,3.4,3.5,5,7,5h1c1.4,0,2.9-0.4,4.5-1.2l0.2,1.7l7.1-1.2c-0.7-6.6-0.6-15.6,0.3-26.9
				c-0.1-0.3-2.6-1-7.5-2L53.3,0.2z"/>
		</g>
		<g>
			<path class="st0" d="M69.9,18.7c0-1.3,0.6-2.1,1.8-2.4c1.4-0.1,2.5,0,3.4,0.5l0.2,6.8l-2.2,0.1c-2,0-3.1-1.3-3.2-3.9L69.9,18.7
				L69.9,18.7z M75.8,0.2c-0.4,5.7-0.6,9.5-0.6,11.2c-1.2-1-2.6-1.5-4-1.6c-2.2-0.1-4.1,0.5-5.8,1.9c-1.7,1.4-2.5,3.8-2.4,7.3
				l0.1,1.9c0.1,1.6,0.2,2.8,0.5,3.7c1.1,3.4,3.5,5,7,5h1c1.4,0,2.9-0.4,4.5-1.2l0.2,1.7l7.1-1.2c-0.7-6.6-0.6-15.6,0.3-26.9
				c-0.1-0.3-2.6-1-7.5-2L75.8,0.2z"/>
		</g>
		<g>
			<path class="st0" d="M103.4,9.6l0.7,6.5c0.1,7.3-1.6,12.7-4.9,16.2c-3.4,3.4-6.2,5.4-8.6,5.9l-4.1-5.7c3.8-2,6.9-4.5,9.1-7.3
				h-2.8c-4.3,0-6.8-2.2-7.3-6.5c-0.1-2.8-0.1-5.5,0.1-8.3l5.9-1.4v1.6c0,4.9,0.6,7.7,1.8,8.3c1.6,0.6,2.8,0.6,3.6,0
				c0.1-3.6-0.2-7.1-0.7-10.4L103.4,9.6z"/>
		</g>
	</g>
	<g>
		<g>
			<path class="st1" d="M20.9,34.6c0-0.2,0-0.3,0.2-0.4c0.1-0.1,0.2-0.1,0.4-0.1c0.1,0,0.3,0,0.4,0.1c0.1,0.1,0.2,0.2,0.2,0.4v2.7
				c0,0.1-0.1,0.3-0.2,0.4c-0.1,0.1-0.2,0.1-0.4,0.1c-0.1,0-0.3,0-0.4-0.1c-0.1-0.1-0.2-0.2-0.2-0.4V34.6z"/>
		</g>
		<g>
			<path class="st1" d="M22.6,32.6c0.1,0.1,0.1,0.2,0.1,0.4c0,0.1,0,0.3-0.1,0.4c-0.1,0.1-0.2,0.2-0.4,0.2c-0.2,0-0.3,0-0.4-0.1
				c-0.1-0.1-0.1-0.2-0.1-0.4c0-0.1,0-0.3,0.1-0.4c0.1-0.1,0.2-0.2,0.4-0.2C22.4,32.4,22.5,32.5,22.6,32.6z"/>
		</g>
		<g>
			<path class="st1" d="M20.8,32.6c0.1,0.1,0.1,0.2,0.1,0.4c0,0.1,0,0.3-0.1,0.4c-0.1,0.1-0.2,0.2-0.4,0.2c-0.2,0-0.3,0-0.4-0.1
				c-0.1-0.1-0.1-0.2-0.1-0.4c0-0.1,0-0.3,0.1-0.4c0.1-0.1,0.2-0.2,0.4-0.2C20.6,32.4,20.7,32.5,20.8,32.6z"/>
		</g>
		<g>
			<path class="st1" d="M26.2,33.5c0.1,0,0.3,0.1,0.4,0.2s0.2,0.2,0.2,0.4v1.1l1.2-1.4c0.1-0.1,0.2-0.1,0.4-0.1c0.1,0,0.2,0,0.3,0.1
				c0.1,0,0.1,0.1,0.2,0.2c0,0.1,0.1,0.2,0.1,0.3c0,0.1,0,0.3-0.1,0.4l-1,1.2l1,1.2c0.1,0.1,0.1,0.2,0.1,0.4c0,0.1-0.1,0.3-0.2,0.4
				c-0.1,0.1-0.2,0.2-0.4,0.2c-0.1,0-0.3,0-0.4-0.1l-1.2-1.4v1.1c0,0.1-0.1,0.3-0.2,0.4c-0.1,0.1-0.2,0.1-0.4,0.1
				c-0.1,0-0.3,0-0.4-0.1c-0.1-0.1-0.2-0.2-0.2-0.4v-1.1l-1.2,1.4c-0.1,0.1-0.2,0.2-0.4,0.2c-0.1,0-0.3-0.1-0.4-0.2
				c-0.1-0.1-0.1-0.2-0.1-0.4c0-0.1,0-0.3,0.1-0.4l1-1.2l-1-1.2c-0.1-0.1-0.2-0.2-0.2-0.4c0-0.1,0.1-0.3,0.2-0.4
				c0.1-0.1,0.2-0.2,0.4-0.2c0.1,0,0.2,0,0.4,0.1l1.2,1.4V34c0-0.1,0-0.2,0.1-0.2c0.1-0.1,0.1-0.2,0.2-0.2
				C26,33.5,26.1,33.5,26.2,33.5L26.2,33.5z"/>
		</g>
		<g>
			<path class="st1" d="M32.4,36.1c-0.1,0.2-0.2,0.3-0.4,0.4c-0.2,0.1-0.3,0.1-0.5,0.1c-0.2,0-0.4,0-0.5-0.1
				c-0.1-0.1-0.3-0.2-0.4-0.4c-0.1-0.2-0.1-0.3-0.1-0.5c0-0.2,0-0.4,0.1-0.5c0.1-0.2,0.2-0.3,0.4-0.4c0.2-0.1,0.3-0.1,0.5-0.1
				c0.2,0,0.4,0,0.5,0.1c0.1,0.1,0.3,0.2,0.4,0.4c0.1,0.2,0.1,0.3,0.1,0.5C32.6,35.8,32.5,36,32.4,36.1L32.4,36.1z M33.6,37.2v-1.6
				c0-0.4-0.1-0.8-0.3-1.1c-0.2-0.3-0.5-0.6-0.8-0.8c-0.3-0.2-0.7-0.3-1.1-0.3c-0.4,0-0.7,0.1-1.1,0.3c-0.3,0.2-0.6,0.5-0.8,0.8
				c-0.2,0.4-0.3,0.7-0.3,1.1c0,0.4,0.1,0.8,0.3,1.1c0.2,0.3,0.5,0.6,0.8,0.8c0.3,0.2,0.7,0.3,1.1,0.3c0.2,0,0.4-0.1,0.6-0.2
				c0.2-0.1,0.4-0.2,0.5-0.4c0,0.3,0.2,0.5,0.5,0.5c0.1,0,0.3-0.1,0.4-0.2C33.6,37.5,33.6,37.4,33.6,37.2L33.6,37.2z"/>
		</g>
		<g>
			<path class="st1" d="M38.8,35.7c0-0.1,0-0.2,0.1-0.2c0.1-0.1,0.1-0.2,0.2-0.2c0.1,0,0.2-0.1,0.2-0.1c0.1,0,0.1,0,0.2-0.1
				c0,0,0.1-0.1,0.1-0.2c0-0.1,0-0.1-0.1-0.2c0,0-0.1-0.1-0.2-0.1c-0.1,0-0.1,0-0.2,0.1c0,0-0.1,0.1-0.1,0.1c0,0.1-0.1,0.3-0.2,0.4
				c-0.1,0.1-0.2,0.1-0.4,0.1c-0.1,0-0.3,0-0.4-0.1c-0.1-0.1-0.2-0.2-0.2-0.4c0-0.2,0.1-0.4,0.2-0.6c0.1-0.2,0.3-0.3,0.5-0.5
				c0.2-0.1,0.4-0.2,0.6-0.2c0.2,0,0.5,0.1,0.6,0.2c0.2,0.1,0.4,0.3,0.5,0.5c0.1,0.2,0.2,0.4,0.2,0.7c0,0.2-0.1,0.3-0.1,0.4
				c-0.1,0.1-0.2,0.2-0.2,0.4c0.1,0.1,0.1,0.2,0.2,0.4c0.1,0.2,0.1,0.3,0.1,0.4c0,0.2-0.1,0.5-0.2,0.7c-0.1,0.2-0.3,0.4-0.5,0.5
				c-0.2,0.1-0.4,0.2-0.6,0.2c-0.2,0-0.4-0.1-0.6-0.2c-0.2-0.1-0.4-0.3-0.5-0.5C38.1,37,38,36.8,38,36.6c0-0.2,0.1-0.3,0.2-0.4
				c0.1-0.1,0.2-0.1,0.4-0.1c0.1,0,0.2,0,0.4,0.1c0.1,0.1,0.1,0.2,0.2,0.4c0,0.1,0.1,0.2,0.3,0.2c0.1,0,0.1,0,0.2-0.1
				c0,0,0.1-0.1,0.1-0.2c0-0.1,0-0.1-0.1-0.2c0,0-0.1-0.1-0.2-0.1c-0.1,0-0.2,0-0.2-0.1C39,36.1,39,36,38.9,35.9
				C38.9,35.8,38.8,35.8,38.8,35.7z"/>
		</g>
		<g>
			<path class="st1" d="M47.2,35.1l0.5,1.6h-1.1L47.2,35.1z M46.1,38.3v-0.5h2.2v0.5c0,0.2,0,0.3,0.1,0.4c0.1,0.1,0.2,0.1,0.4,0.1
				c0.1,0,0.3,0,0.4-0.1c0.1-0.1,0.2-0.2,0.2-0.4v-1.1c0-0.1-0.1-0.3-0.2-0.4c-0.1-0.1-0.2-0.2-0.4-0.2l-1.3-3
				c-0.1-0.1-0.2-0.2-0.4-0.2c-0.1,0-0.2,0.1-0.4,0.2l-1.2,3c-0.1,0-0.2,0-0.2,0.1c-0.1,0.1-0.2,0.1-0.2,0.2c0,0.1-0.1,0.1-0.1,0.2
				v1.1c0,0.2,0,0.3,0.1,0.4c0.1,0.1,0.2,0.1,0.4,0.1c0.1,0,0.3,0,0.4-0.1C46,38.6,46.1,38.5,46.1,38.3L46.1,38.3z"/>
		</g>
		<g>
			<path class="st1" d="M51,35.1c0.1-0.2,0.2-0.3,0.4-0.4c0.2-0.1,0.3-0.1,0.5-0.1c0.2,0,0.4,0,0.5,0.1c0.1,0.1,0.3,0.2,0.4,0.4
				c0.1,0.2,0.1,0.3,0.1,0.5c0,0.2,0,0.4-0.1,0.5c-0.1,0.2-0.2,0.3-0.4,0.4c-0.2,0.1-0.3,0.1-0.5,0.1c-0.2,0-0.4,0-0.5-0.1
				c-0.1-0.1-0.3-0.2-0.4-0.4c-0.1-0.2-0.1-0.3-0.1-0.5C50.8,35.4,50.9,35.3,51,35.1L51,35.1z M53.8,34.5c-0.2-0.3-0.5-0.6-0.8-0.8
				c-0.3-0.2-0.7-0.3-1.1-0.3c-0.4,0-0.7,0.1-1.1,0.3c-0.3,0.2-0.6,0.5-0.8,0.8c-0.2,0.4-0.3,0.7-0.3,1.1s0.1,0.8,0.3,1.1
				c0.2,0.3,0.5,0.6,0.8,0.8c0.3,0.2,0.7,0.3,1.1,0.3c0.4,0,0.7-0.1,1.1-0.3c0.3-0.2,0.6-0.5,0.8-0.8c0.2-0.4,0.3-0.7,0.3-1.1
				S54,34.9,53.8,34.5z"/>
		</g>
		<g>
			<path class="st1" d="M55.6,35.6c0,0.2,0,0.4,0.1,0.6c0.1,0.2,0.2,0.3,0.4,0.4c0.2,0.1,0.3,0.1,0.5,0.1c0.3,0,0.5-0.1,0.7-0.3
				c0.1-0.2,0.2-0.2,0.4-0.2c0.1,0,0.2,0,0.3,0.1c0.1,0.1,0.2,0.1,0.2,0.2c0.1,0.1,0.1,0.2,0.1,0.3c0,0.1-0.1,0.3-0.2,0.4
				c-0.2,0.2-0.4,0.4-0.7,0.5c-0.2,0.1-0.5,0.2-0.8,0.2c-0.4,0-0.7-0.1-1.1-0.3c-0.3-0.2-0.6-0.5-0.8-0.8c-0.2-0.3-0.3-0.7-0.3-1.1
				c0-0.4,0.1-0.7,0.3-1.1c0.2-0.3,0.5-0.6,0.8-0.8c0.3-0.2,0.7-0.3,1.1-0.3c0.3,0,0.6,0.1,0.8,0.2c0.2,0.1,0.5,0.3,0.7,0.5
				c0,0,0.1,0.1,0.1,0.2c0.1,0.1,0.1,0.1,0.1,0.2c0,0.2-0.1,0.3-0.2,0.4c-0.1,0.1-0.2,0.1-0.4,0.1c-0.2,0-0.3-0.1-0.4-0.2
				c-0.2-0.2-0.5-0.3-0.7-0.3c-0.2,0-0.4,0-0.5,0.1c-0.2,0.1-0.3,0.2-0.4,0.4C55.6,35.2,55.6,35.4,55.6,35.6L55.6,35.6z"/>
		</g>
		<g>
			<path class="st1" d="M60.4,37.8c-0.1,0-0.2-0.1-0.4-0.2s-0.2-0.2-0.2-0.4v-2.6h-0.5c-0.1,0-0.3-0.1-0.4-0.2
				c-0.1-0.1-0.1-0.2-0.1-0.4c0-0.1,0-0.3,0.1-0.4c0.1-0.1,0.2-0.2,0.4-0.2h2.2c0.2,0,0.3,0.1,0.4,0.2C62,33.7,62,33.9,62,34
				c0,0.1,0,0.3-0.1,0.4c-0.1,0.1-0.2,0.2-0.4,0.2H61v2.7c0,0.1-0.1,0.3-0.2,0.4C60.7,37.7,60.6,37.8,60.4,37.8z"/>
		</g>
		<g>
			<path class="st1" d="M65.6,36.1c-0.1,0.1-0.2,0.3-0.4,0.4c-0.2,0.1-0.3,0.1-0.5,0.1c-0.2,0-0.4,0-0.5-0.1
				c-0.1-0.1-0.3-0.2-0.4-0.4c-0.1-0.2-0.1-0.3-0.1-0.5c0-0.2,0-0.4,0.1-0.5c0.1-0.2,0.2-0.3,0.4-0.4c0.2-0.1,0.3-0.1,0.5-0.1
				c0.2,0,0.4,0,0.5,0.1c0.1,0.1,0.3,0.2,0.4,0.4c0.1,0.2,0.1,0.3,0.1,0.5C65.8,35.8,65.7,36,65.6,36.1L65.6,36.1z M66.8,37.2v-1.6
				c0-0.4-0.1-0.8-0.3-1.1c-0.2-0.3-0.5-0.6-0.8-0.8c-0.3-0.2-0.7-0.3-1.1-0.3c-0.4,0-0.7,0.1-1.1,0.3c-0.3,0.2-0.6,0.5-0.8,0.8
				c-0.2,0.4-0.3,0.7-0.3,1.1c0,0.4,0.1,0.8,0.3,1.1c0.2,0.3,0.5,0.6,0.8,0.8c0.3,0.2,0.7,0.3,1.1,0.3c0.2,0,0.4-0.1,0.6-0.2
				c0.2-0.1,0.4-0.2,0.5-0.4c0,0.3,0.2,0.5,0.5,0.5c0.1,0,0.3-0.1,0.4-0.2C66.8,37.5,66.8,37.4,66.8,37.2L66.8,37.2z"/>
		</g>
		<g>
			<path class="st1" d="M68.8,36.3c0,0,0.1,0.1,0.1,0.2c0,0.1,0,0.1-0.1,0.2c0,0-0.1,0.1-0.2,0.1c-0.1,0-0.1,0-0.2-0.1
				c0,0-0.1-0.1-0.1-0.2c0-0.1,0-0.1,0.1-0.2c0,0,0.1-0.1,0.2-0.1C68.7,36.2,68.7,36.2,68.8,36.3z M68.5,35.1c0,0-0.1-0.1-0.1-0.2
				c0-0.1,0-0.1,0.1-0.2c0,0,0.1-0.1,0.2-0.1c0.1,0,0.1,0,0.2,0.1c0,0,0.1,0.1,0.1,0.2c0,0.1,0,0.1-0.1,0.2c0,0-0.1,0.1-0.2,0.1
				C68.5,35.1,68.5,35.1,68.5,35.1z M69.7,34.2c-0.1-0.2-0.3-0.4-0.5-0.5c-0.2-0.1-0.4-0.2-0.6-0.2h-0.8c-0.1,0-0.2,0-0.2,0.1
				c-0.1,0-0.1,0.1-0.2,0.2c0,0.1-0.1,0.2-0.1,0.2v3.2c0,0.1,0,0.3,0.1,0.4c0.1,0.1,0.2,0.2,0.4,0.2h0.8c0.2,0,0.4-0.1,0.6-0.2
				c0.2-0.1,0.4-0.3,0.5-0.5c0.1-0.2,0.2-0.4,0.2-0.7c0-0.2-0.1-0.5-0.4-0.8c0.2-0.3,0.4-0.6,0.4-0.8C69.9,34.6,69.9,34.4,69.7,34.2
				L69.7,34.2z"/>
		</g>
		<g>
			<path class="st1" d="M73,33.5c0.1,0,0.2,0,0.3,0.1c0.1,0.1,0.2,0.1,0.2,0.2c0,0.1,0.1,0.2,0.1,0.2c0,0.1-0.1,0.2-0.2,0.4l-1,1.2
				l1,1.2c0.1,0.1,0.1,0.2,0.1,0.4c0,0.2,0,0.3-0.1,0.4c-0.1,0.1-0.2,0.2-0.4,0.2c-0.1,0-0.2-0.1-0.4-0.2l-1.2-1.4v1.1
				c0,0.2-0.1,0.3-0.2,0.4c-0.1,0.1-0.2,0.1-0.4,0.1c-0.1,0-0.3,0-0.4-0.1c-0.1-0.1-0.1-0.2-0.1-0.4V34c0-0.2,0-0.3,0.1-0.4
				c0.1-0.1,0.2-0.1,0.4-0.1c0.1,0,0.3,0,0.4,0.1s0.2,0.2,0.2,0.4v1.1l1.2-1.4C72.8,33.6,72.9,33.5,73,33.5L73,33.5z"/>
		</g>
		<g>
			<path class="st1" d="M75.3,35.1c0.1-0.2,0.2-0.3,0.4-0.4c0.2-0.1,0.3-0.1,0.5-0.1c0.2,0,0.4,0,0.5,0.1c0.1,0.1,0.3,0.2,0.4,0.4
				c0.1,0.2,0.1,0.3,0.1,0.5c0,0.2,0,0.4-0.1,0.5c-0.1,0.2-0.2,0.3-0.4,0.4c-0.2,0.1-0.3,0.1-0.5,0.1c-0.2,0-0.4,0-0.5-0.1
				c-0.1-0.1-0.3-0.2-0.4-0.4c-0.1-0.2-0.1-0.3-0.1-0.5C75.2,35.4,75.2,35.3,75.3,35.1L75.3,35.1z M78.1,34.5
				c-0.2-0.3-0.5-0.6-0.8-0.8c-0.3-0.2-0.7-0.3-1.1-0.3c-0.4,0-0.7,0.1-1.1,0.3c-0.3,0.2-0.6,0.5-0.8,0.8c-0.2,0.4-0.3,0.7-0.3,1.1
				s0.1,0.8,0.3,1.1c0.2,0.3,0.5,0.6,0.8,0.8c0.3,0.2,0.7,0.3,1.1,0.3c0.4,0,0.7-0.1,1.1-0.3c0.3-0.2,0.6-0.5,0.8-0.8
				c0.2-0.4,0.3-0.7,0.3-1.1S78.3,34.9,78.1,34.5z"/>
		</g>
		<g>
			<path class="st1" d="M81.7,35.1c0.1-0.1,0.2-0.3,0.4-0.4c0.2-0.1,0.3-0.1,0.5-0.1c0.2,0,0.4,0.1,0.5,0.1c0.2,0.1,0.3,0.2,0.4,0.4
				c0.1,0.2,0.1,0.3,0.1,0.5c0,0.2,0,0.4-0.1,0.5c-0.1,0.2-0.2,0.3-0.4,0.4c-0.2,0.1-0.3,0.1-0.5,0.1c-0.2,0-0.4,0-0.5-0.1
				c-0.2-0.1-0.3-0.2-0.4-0.4c-0.1-0.2-0.1-0.3-0.1-0.5C81.6,35.4,81.6,35.3,81.7,35.1L81.7,35.1z M80.5,35.1H80V34
				c0-0.2-0.1-0.3-0.2-0.4c-0.1-0.1-0.2-0.1-0.4-0.1c-0.1,0-0.3,0-0.4,0.1c-0.1,0.1-0.1,0.2-0.1,0.4v3.2c0,0.2,0.1,0.3,0.2,0.4
				c0.1,0.1,0.2,0.1,0.4,0.1c0.1,0,0.3,0,0.4-0.1c0.1-0.1,0.2-0.2,0.2-0.4v-1.1h0.6c0.1,0.3,0.2,0.6,0.4,0.8
				c0.2,0.2,0.5,0.4,0.7,0.6c0.3,0.1,0.6,0.2,0.9,0.2c0.4,0,0.7-0.1,1.1-0.3c0.3-0.2,0.6-0.5,0.8-0.8c0.2-0.4,0.3-0.7,0.3-1.1
				c0-0.4-0.1-0.8-0.3-1.1c-0.2-0.3-0.5-0.6-0.8-0.8c-0.4-0.2-0.7-0.3-1.1-0.3c-0.3,0-0.6,0.1-0.9,0.2c-0.3,0.1-0.5,0.3-0.7,0.6
				C80.7,34.5,80.6,34.8,80.5,35.1L80.5,35.1z"/>
		</g>
	</g>
</g>
</svg>
