<?xml version="1.0" encoding="utf-8"?>
<!-- Generator: Adobe Illustrator 24.1.2, SVG Export Plug-In . SVG Version: 6.00 Build 0)  -->
<svg version="1.1" id="Layer_1" xmlns="http://www.w3.org/2000/svg" xmlns:xlink="http://www.w3.org/1999/xlink" x="0px" y="0px"
	 viewBox="0 0 17 18.1" style="enable-background:new 0 0 17 18.1;" xml:space="preserve">
<style type="text/css">
	.st0{fill:#F26522;}
</style>
<g>
	<g>
		<g>
			<path class="st0" d="M11.5,10.7c-0.2,0.1-0.4,0.2-0.6,0.4c-0.2,0.1-0.1,0.1-0.3,0.2c1.1,0.5,2.8,1.1,4.5,1.1
				c0.5-0.9,0.9-1.7,1.2-2.7C14.8,10.4,13.2,10.7,11.5,10.7z"/>
		</g>
		<g>
			<path class="st0" d="M16.9,4c-1,2.7-2.8,5-5.2,6.6c1.7-0.2,3.7-0.9,4.8-1.6c0-0.1,0-0.1,0.1-0.2C17,7.2,17.1,5.6,16.9,4z"/>
		</g>
		<g>
			<path class="st0" d="M14.9,12.7c-1.8,0-3.5-0.3-5.1-1c-0.9-0.4-1.8-0.8-2.7-1.4l0,0C3.6,7.9,1.3,4.2,0.9,0C0.2,2-0.1,4.1,0.1,6.3
				c0.1,0.7,0.2,1.4,0.3,2c0,0.1,0,0,0,0.1c1,1,2.5,2,3.9,2.5C3,10.5,1.8,10,0.6,9.2c0.4,1.3,1,2.6,1.8,3.7c0.1,0.2,0,0.1,0.2,0.2
				c0.5,0.4,2,0.9,3,1.1c-0.9-0.1-1.7-0.3-2.6-0.5c1.5,1.9,3.5,3.4,5.8,4.3C11.4,16.9,13.5,15,14.9,12.7L14.9,12.7z"/>
		</g>
	</g>
</g>
</svg>
