<svg xmlns="http://www.w3.org/2000/svg" width="25" height="25" viewBox="0 0 25 25"><defs><clipPath id="pda6a"><path fill="#fff" d="M-2 26V-2h28v28z"/></clipPath></defs><g><g><g><g><path fill="#fff" d="M1.113 12.458c0-6.266 5.08-11.345 11.345-11.345 6.266 0 11.345 5.08 11.345 11.345 0 6.266-5.079 11.345-11.345 11.345-6.266 0-11.345-5.079-11.345-11.345z"/><path fill="none" stroke="#0e294a" stroke-miterlimit="20" stroke-width="1.57" d="M1.113 12.458c0-6.266 5.08-11.345 11.345-11.345 6.266 0 11.345 5.08 11.345 11.345 0 6.266-5.079 11.345-11.345 11.345-6.266 0-11.345-5.079-11.345-11.345z"/></g></g><g><path fill="#f26522" d="M17.135 16.914a1.602 1.602 0 0 1-1.23.574H8.227c-.476 0-.924-.21-1.23-.574a1.602 1.602 0 0 1-.352-1.312l.973-5.507a1.604 1.604 0 0 1 1.582-1.327h5.73c.781 0 1.446.558 1.582 1.327l.973 5.507c.083.469-.045.947-.351 1.312zm-5.069-11.01c.576 0 1.044.47 1.044 1.045 0 .576-.17 1.576-1.044 1.576s-1.044-1-1.044-1.576c0-.576.468-1.044 1.044-1.044zm6.183 9.563l-.973-5.507a2.378 2.378 0 0 0-2.345-1.967h-1.213c.208-.296.615-2.643-1.652-2.643s-1.885 2.347-1.677 2.643H9.201A2.378 2.378 0 0 0 6.856 9.96l-.973 5.507a2.376 2.376 0 0 0 .52 1.945c.454.54 1.12.851 1.825.851h7.676c.706 0 1.371-.31 1.825-.851.453-.54.643-1.25.52-1.945z"/></g><g><g><g><g><path fill="#0e294a" d="M16.764 16.532c-.284.338-.7.532-1.14.532H8.509a1.485 1.485 0 0 1-1.466-1.748l.902-5.104a1.487 1.487 0 0 1 1.466-1.23h5.31c.724 0 1.34.517 1.467 1.23l.901 5.104c.077.435-.041.878-.325 1.216zM12.066 6.328a.969.969 0 0 1 0 1.936.969.969 0 0 1 0-1.936zm5.731 8.863l-.902-5.104a2.204 2.204 0 0 0-2.173-1.823h-1.276c.193-.274.307-.608.307-.968 0-.93-.757-1.687-1.687-1.687a1.688 1.688 0 0 0-1.38 2.655H9.411a2.204 2.204 0 0 0-2.174 1.823l-.902 5.104a2.202 2.202 0 0 0 .483 1.803c.42.5 1.037.788 1.69.788h7.116c.654 0 1.27-.287 1.69-.788.421-.502.597-1.159.483-1.803z"/></g></g></g><g><g><g><path fill="#0e294a" d="M10.885 13.023l.9-.93a.36.36 0 1 0-.516-.5l-1.007 1.04v-.79a.36.36 0 1 0-.72 0v2.36a.36.36 0 0 0 .72 0v-.79l1.007 1.04a.358.358 0 0 0 .508.009.36.36 0 0 0 .008-.508z"/></g></g></g><g><g><g><path fill="#0e294a" d="M14.23 12.765h-.54a.36.36 0 0 0 0 .719h.175a.432.432 0 0 1-.858-.072v-.778a.432.432 0 0 1 .773-.265.36.36 0 0 0 .566-.443 1.152 1.152 0 0 0-2.058.707v.78a1.152 1.152 0 0 0 2.3 0v-.288a.36.36 0 0 0-.358-.36z"/></g></g></g></g></g></g></svg>